<?xml version="1.0" encoding="utf-8"?>
<!-- Generator: Adobe Illustrator 23.0.0, SVG Export Plug-In . SVG Version: 6.00 Build 0)  -->
<svg version="1.1" id="Contours" xmlns="http://www.w3.org/2000/svg" xmlns:xlink="http://www.w3.org/1999/xlink" x="0px" y="0px"
	 viewBox="0 0 48 48" style="enable-background:new 0 0 48 48;" xml:space="preserve">
<style type="text/css">
	.st0{fill:#AEAEAE;}
</style>
<desc  xmlns:shape="http://adobe.com/products/shape"></desc>
<g>
	<path fill="#AEAEAE" d="M37.1,4.8c0.4,0.9,0.5,1.9,0.4,2.8c-0.3,2-1.8,3.7-3.6,4.3c-1.9,0.6-4.1-0.1-5.4-1.6c-1.3-1.5-1.6-3.8-0.8-5.6
		c0.8-1.8,2.7-3,4.7-3S36.3,3,37.1,4.8 M31.5,3.6c-1.6,0.4-2.7,2.1-2.6,3.8c0.2,1.4,1.3,2.7,2.6,3c1.4,0.3,2.9-0.2,3.7-1.4
		c0.8-1.2,0.8-2.8,0-4C34.4,3.8,32.8,3.2,31.5,3.6"/>
	<path fill="#AEAEAE" d="M20.8,4.8c0.4,0.9,0.5,1.9,0.4,2.8c-0.3,2-1.8,3.7-3.6,4.3s-4.1-0.1-5.4-1.6s-1.6-3.8-0.8-5.6
		c0.8-1.8,2.7-3,4.7-3S20,3,20.8,4.8 M15.2,3.6c-1.6,0.4-2.7,2.1-2.6,3.8c0.2,1.4,1.3,2.7,2.6,3c1.4,0.3,2.9-0.2,3.7-1.4
		c0.8-1.2,0.8-2.8,0-4C18.1,3.8,16.5,3.2,15.2,3.6"/>
	<path fill="#AEAEAE" d="M41.8,16.1c0.4,0.9,0.5,1.9,0.4,2.8c-0.3,2-1.8,3.7-3.6,4.3s-4.1-0.1-5.4-1.6c-1.3-1.5-1.6-3.8-0.8-5.6
		c0.8-1.8,2.7-3,4.7-3S41,14.3,41.8,16.1 M36.2,14.9c-1.6,0.4-2.7,2.1-2.6,3.8c0.2,1.4,1.3,2.7,2.6,3c1.4,0.3,2.9-0.2,3.7-1.4
		c0.8-1.2,0.8-2.8,0-4C39.1,15.1,37.6,14.5,36.2,14.9"/>
	<path fill="#AEAEAE" d="M15.5,16c0.4,0.9,0.5,1.9,0.4,2.8c-0.3,2-1.8,3.7-3.6,4.3s-4.1-0.1-5.4-1.6C5.5,20.1,5.2,17.8,6,16
		c0.8-1.8,2.7-3,4.7-3S14.7,14.2,15.5,16 M9.8,14.8c-1.6,0.4-2.7,2.1-2.6,3.8c0.2,1.4,1.3,2.7,2.6,3c1.4,0.3,2.9-0.2,3.7-1.4
		c0.8-1.2,0.8-2.8,0-4C12.8,15,11.2,14.4,9.8,14.8"/>
	<path fill="#AEAEAE" d="M28.9,13.4c0.4,0.9,0.5,1.9,0.4,2.8c-0.3,2-1.8,3.7-3.6,4.3c-1.9,0.6-4.1-0.1-5.4-1.6s-1.6-3.8-0.8-5.6
		c0.8-1.8,2.7-3,4.7-3S28.1,11.6,28.9,13.4 M23.3,12.1c-1.6,0.4-2.7,2.1-2.6,3.8c0.2,1.4,1.3,2.7,2.6,3c1.4,0.3,2.9-0.2,3.7-1.4
		c0.8-1.2,0.8-2.8,0-4C26.2,12.3,24.6,11.7,23.3,12.1"/>
	<path fill="#AEAEAE" d="M35.2,38.7c-0.5,1.7-1.9,3.1-3.5,3.6c-0.1,0-0.2,0.1-0.2,0.2V48h-2.1V29.8h2.1V40c0.8-0.2,1.4-0.9,1.7-1.7
		c0.3-0.8,0.3-1.7,0.2-2.5c0-2.3-0.1-4.6-0.1-6.9c0-0.7,0-1.5-0.4-2.1c-0.3-0.6-1-1-1.6-1.3c-4.5-2.4-10.2-2.4-14.6,0.1
		c-0.6,0.3-1.2,0.7-1.5,1.4c-0.2,0.4-0.2,1-0.2,1.5c0,2.6-0.1,5.1-0.2,7.7c0,0.7,0,1.3,0.2,2c0.3,0.9,0.9,1.6,1.7,2V29.8h2.1V48
		h-2.1v-5.3c0-0.2-0.1-0.3-0.3-0.4c-1.8-0.5-3.2-2.1-3.5-3.9c-0.1-0.7-0.1-1.5-0.1-2.2c0-2.3,0.1-4.6,0.1-6.9c0-1,0-2,0.4-2.9
		c0.6-1.5,2.1-2.5,3.6-3.2c4.7-2.1,10.2-2,14.8,0.2c1.2,0.6,2.4,1.3,3,2.5c0.6,1.1,0.6,2.4,0.7,3.7c0,2,0.1,3.9,0.1,5.9
		C35.5,36.5,35.5,37.7,35.2,38.7z"/>
	<rect x="36.1" y="24.8" fill="#AEAEAE" width="0.8" height="2"/>
	<path fill="#AEAEAE" d="M11.2,24.7L11.2,24.7c-2.5,0-5,0.6-7.2,1.7c-1.6,0.8-3.1,1.9-3.5,3.6c-0.1,0.6-0.2,1.2-0.2,1.8
		c-0.1,2.6-0.2,5.2-0.2,7.8c0,0.8,0,1.6,0.2,2.3c0.5,1.5,2.1,2.5,3.7,2.8c0.1,0,0.2,0.2,0.2,0.3c0,0.1,0,0.1,0,0.2
		c0,0.1,0,0.2,0,0.3v2.4C4.2,48,4.4,48,4.6,48c0.4,0,0.8,0,1.3,0c0.1,0,0.1,0,0.2,0V33.1c-0.1,0-0.2,0-0.3,0c-0.3,0-0.6,0-0.8,0
		c0,0,0,0-0.1,0H4.1v9.3l0,0c-0.1,0.1-0.3,0.1-0.5,0c-0.6-0.3-1.2-0.6-1.4-1.2c-0.1-0.3-0.1-0.6-0.1-0.9c0.1-2.7,0.1-5.5,0.2-8.2
		c0-0.6,0-1.2,0.3-1.8c0.4-0.9,1.2-1.5,2.1-1.9c2.1-1.1,4.5-1.6,6.8-1.5c0,0,0,0,0,0H12v-2L11.2,24.7L11.2,24.7z"/>
	<path fill="#AEAEAE" d="M36.8,24.7L36.8,24.7c2.5,0,5,0.6,7.2,1.7c1.6,0.8,3.1,1.9,3.5,3.6c0.1,0.6,0.2,1.2,0.2,1.8
		c0.1,2.6,0.2,5.2,0.2,7.8c0,0.8,0,1.6-0.2,2.3c-0.5,1.5-2.1,2.5-3.7,2.8c-0.1,0-0.2,0.2-0.2,0.3c0,0.1,0,0.1,0,0.2
		c0,0.1,0,0.2,0,0.3v2.4C43.8,48,43.6,48,43.4,48c-0.4,0-0.8,0-1.3,0c-0.1,0-0.1,0-0.2,0V33.1c0.1,0,0.2,0,0.3,0c0.3,0,0.6,0,0.8,0
		c0,0,0,0,0.1,0h0.6v9.3l0,0c0.1,0.1,0.3,0.1,0.5,0c0.6-0.3,1.2-0.6,1.4-1.2c0.1-0.3,0.1-0.6,0.1-0.9c-0.1-2.7-0.1-5.5-0.2-8.2
		c0-0.6,0-1.2-0.3-1.8c-0.4-0.9-1.2-1.5-2.1-1.9c-2.1-1.1-4.5-1.6-6.8-1.5c0,0,0,0,0,0H36v-2L36.8,24.7L36.8,24.7z"/>
	<path fill="#AEAEAE" d="M4.1,45.2c0,0.1,0,0.2,0,0.3V45C4.1,45,4.1,45.1,4.1,45.2z"/>
	<path fill="#AEAEAE" d="M4.1,47.9C4.2,48,4.4,48,4.5,48H4.1V47.9z"/>
	<path fill="#AEAEAE" d="M6,33L6,33c-0.1,0-0.2,0-0.3,0H6z"/>
	<path fill="#AEAEAE" d="M5.8,48c0.1,0,0.1,0,0.2,0v0H4.6C5,48,5.4,48,5.8,48z"/>
</g>
</svg>
