<?xml version="1.0" encoding="utf-8"?>
<!-- Generator: Adobe Illustrator 23.0.0, SVG Export Plug-In . SVG Version: 6.00 Build 0)  -->
<svg version="1.1" id="Contours" xmlns="http://www.w3.org/2000/svg" xmlns:xlink="http://www.w3.org/1999/xlink" x="0px" y="0px"
	 viewBox="0 0 48 48" style="enable-background:new 0 0 48 48;" xml:space="preserve">
<style type="text/css">
	.st0{fill:#AEAEAE;}
	.st1{fill:#6C6A68;}
	.st2{fill:#D31145;}
</style>
<desc  xmlns:shape="http://adobe.com/products/shape"></desc>
<rect x="36.8" y="31.7" fill="#AEAEAE" width="2" height="16"/>
<rect x="41.9" y="31.7" fill="#6C6A68" width="2" height="16"/>
<rect x="31.9" y="33.7" fill="#6C6A68" width="2" height="14"/>
<rect x="41.9" y="31.7" fill="#6C6A68" width="2" height="16"/>
<path fill="#D31145" d="M35.2,22.6c-0.6-0.6-1.1-1.1-1.7-1.7c-0.2-0.2-0.2-0.3,0-0.5c0.3-0.3,0.7-0.7,1-1c0.1-0.1,0.3-0.1,0.3,0
	c1.3,1.3,2.6,2.6,3.9,3.9c0.4,0.4,0.4,0.9,0,1.3c-0.5,0.6-1.1,1.1-1.7,1.6c-0.7,0.7-1.4,1.4-2.1,2.1c-0.2,0.2-0.4,0.2-0.6-0.1
	c-0.3-0.3-0.6-0.6-0.9-0.9c-0.2-0.2-0.2-0.3,0-0.5c0.5-0.5,0.9-1,1.4-1.4c0.2-0.2,0.4-0.3,0.6-0.4c0,0,0.1-0.1,0.1-0.1
	c-0.1,0-0.1-0.1-0.2-0.1c-0.1,0-0.3,0-0.4,0c-1.3,0-2.6,0-4,0c-0.6,0-1.2,0-1.8,0c-0.2,0-0.2-0.2-0.2-0.3c0-0.4,0-0.8,0-1.3
	c0-0.3,0.1-0.4,0.4-0.4c1.6,0,3.2,0,4.8,0c0.4,0,0.8,0,1.2,0c0.1,0,0.1,0,0.2,0c0,0-0.1-0.1-0.1-0.1C35.3,22.8,35.3,22.7,35.2,22.6"
	/>
<path fill="#AEAEAE" d="M43.9,3.9c0.5,1.1,0.7,2.3,0.5,3.5c-0.3,2.5-2.2,4.6-4.5,5.3c-2.4,0.7-5.1-0.1-6.7-1.9c-1.6-1.9-2-4.7-1-6.9
	c1-2.2,3.4-3.8,5.9-3.8C40.5,0.1,42.9,1.7,43.9,3.9 M36.9,2.4c-2,0.5-3.4,2.6-3.2,4.7c0.2,1.7,1.6,3.3,3.3,3.7
	c1.7,0.4,3.7-0.3,4.6-1.8c1-1.5,1-3.5-0.1-5C40.6,2.6,38.6,1.9,36.9,2.4"/>
<path fill="#D31145" d="M14,34.9c0-0.7,0-1.4,0-2c0-0.2,0.2-0.5,0.3-0.7c0.1-0.3,0.5-0.4,0.8-0.4c0.7-0.1,1.4-0.3,1.9-0.8
	c0.5-0.5,0.9-1,1-1.7c0.1-0.3,0.1-0.7,0.1-1c0-0.4,0-0.7,0-1.1c0-0.2,0.1-0.3,0.3-0.3c0.5,0,0.9,0,1.4,0c0.3,0,0.3,0.1,0.3,0.3
	c0,1.3,0,2.6-0.6,3.8c-0.3,0.7-0.8,1.2-1.4,1.7c-0.5,0.4-1.1,0.7-1.7,0.9c-0.2,0.1-0.3,0.2-0.3,0.4c0,2.7,0,5.3,0,8
	c0,1.8,0,3.6-0.1,5.5c0,0.3-0.1,0.4-0.4,0.4c-0.5,0-0.9,0-1.4,0c-0.2,0-0.3,0-0.3-0.3c0-1.8,0-3.6,0-5.4c0-1.8,0-3.5,0.1-5.3
	C14,36.2,14.1,35.6,14,34.9"/>
<path fill="#AEAEAE" d="M33.9,32.8v14.7c0,0.1,0,0.2,0,0.3h-1.9c0-0.1,0-0.1,0-0.3V34.1c0,0,0,0,0-0.1c0-0.2-0.1-0.3-0.4-0.4
	c-0.7-0.3-1.3-0.6-1.9-1.1c-0.9-0.8-1.4-1.8-1.6-2.9c-0.1-0.7-0.1-1.5-0.1-2.2c0-0.5,0.1-0.5,0.6-0.5c0.4,0,0.8,0,1.2,0
	c0.2,0,0.2,0.1,0.2,0.3c0,0.5,0,1.1,0,1.6c0,0.7,0.3,1.4,0.7,1.9c0.4,0.5,1,0.9,1.6,1c0,0,0.1,0,0.1,0c0.3,0.1,0.6,0.1,0.8,0.1
	C33.6,32,33.8,32.4,33.9,32.8z"/>
<path fill="#D31145" d="M14.1,22.9c1.6,0,3.1,0,4.6,0c0.3,0,0.4,0.1,0.4,0.4c0,0.4,0,0.8,0,1.2c0,0.2-0.1,0.4-0.4,0.4
	c-2.7,0-5.5,0-8.2,0c-0.4,0-0.5,0-0.5-0.5c0-0.4,0-0.8,0-1.3c0-0.2,0.1-0.3,0.3-0.3c1,0,2,0,3,0C13.6,22.9,13.9,22.9,14.1,22.9"/>
<path fill="#D31145" d="M21.1,23.8c0-0.2,0-0.5,0-0.7c0-0.1,0.1-0.2,0.2-0.2c0.5,0,0.9,0,1.4,0c0.3,0,0.4,0.1,0.4,0.4
	c0,0.4,0,0.9,0,1.3c0,0.2-0.1,0.3-0.3,0.3c-0.5,0-1,0-1.5-0.1c-0.1,0-0.2-0.1-0.2-0.2C21.1,24.4,21.1,24.1,21.1,23.8"/>
<path fill="#D31145" d="M25.9,22.9c0.3,0,0.6,0,0.9,0c0.1,0,0.2,0.1,0.2,0.1c0,0.6,0,1.1,0,1.7c0,0-0.1,0.1-0.2,0.1c-0.5,0-1,0-1.5,0
	c-0.2,0-0.2,0-0.2-0.2c0-0.5,0-1,0-1.5c0-0.2,0.1-0.3,0.3-0.3C25.5,22.9,25.7,22.9,25.9,22.9"/>
<path d="M5.3,7C5.3,7,5.3,7,5.3,7C5.3,7,5.3,7,5.3,7C5.3,7.1,5.3,7,5.3,7"/>
<path d="M32.4,7.1C32.4,7.1,32.4,7.1,32.4,7.1C32.4,7.1,32.4,7.1,32.4,7.1C32.3,7.1,32.3,7.1,32.4,7.1"/>
<path d="M32.1,6.9C32.1,6.9,32.1,6.9,32.1,6.9C32.1,6.9,32.1,6.9,32.1,6.9C32.1,6.9,32.1,6.9,32.1,6.9"/>
<path d="M33.1,6.5C33.1,6.5,33.1,6.5,33.1,6.5C33.1,6.5,33.1,6.5,33.1,6.5"/>
<path d="M33,6C33,6,33,5.9,33,6C33,5.9,33,6,33,6"/>
<path fill="#D31145" d="M16.1,3.9c0.5,1.1,0.7,2.3,0.5,3.5c-0.3,2.5-2.2,4.6-4.5,5.3c-2.4,0.7-5.1-0.1-6.7-1.9s-2-4.7-1-6.9
	c1-2.2,3.4-3.8,5.9-3.8S15.1,1.7,16.1,3.9 M9.1,2.4C7.1,2.9,5.7,5,5.9,7.1c0.2,1.7,1.6,3.3,3.3,3.7c1.7,0.4,3.7-0.3,4.6-1.8
	c1-1.5,1-3.5-0.1-5C12.8,2.6,10.8,1.9,9.1,2.4"/>
<path fill="#D31145" d="M4.6,21.8c0.4,0,0.8,0,1.1,0c0.4,0,0.4,0,0.4,0.4c0,2.6,0,5.3,0,7.9c0,2.1,0,4.2,0,6.3c0,2,0,4.1-0.1,6.1
	c0,1.7,0,3.3-0.1,5c0,0.2-0.1,0.3-0.3,0.3c-0.5,0-1,0-1.5,0c-0.2,0-0.2-0.1-0.2-0.2c0-0.1,0-0.1,0-0.2c0-2.4,0-4.8,0-7.2
	c0-2.1,0-4.2,0.1-6.2c0-0.2-0.1-0.3-0.3-0.4c-0.7-0.2-1.3-0.5-1.8-1c-0.6-0.5-1.1-1.2-1.4-1.9C0.2,30.1,0,29.6,0,29
	c0-3.1,0-6.1,0-9.2c0-1,0.3-1.9,1-2.7c1.1-1.2,2.4-1.9,3.9-2.4c0.9-0.3,1.8-0.5,2.8-0.7c1.1-0.2,2.1-0.2,3.2-0.1
	c1.2,0.1,2.4,0.2,3.5,0.6c0.7,0.3,1.5,0.5,2.2,0.8c0.9,0.4,1.8,1,2.4,1.7c0.6,0.6,1,1.4,1,2.2c0,0.4,0.1,0.8,0,1.2
	c0,0.1-0.2,0.3-0.3,0.3c-0.5,0-0.9,0-1.4,0c-0.2,0-0.3-0.1-0.3-0.3c0-0.5,0-0.9-0.1-1.4c-0.2-0.4-0.4-0.8-0.8-1.1
	c-0.5-0.4-1-0.7-1.6-1c-0.9-0.4-1.8-0.7-2.7-0.9c-1.1-0.3-2.3-0.4-3.5-0.3C8.6,16,7.8,16.1,7,16.3c-0.9,0.1-1.7,0.5-2.5,0.8
	c-0.8,0.4-1.6,0.9-2.1,1.6c-0.2,0.3-0.3,0.7-0.3,1c0,0.3,0,0.7,0,1s0,0.7,0,1c0,0.3,0,0.7,0,1c0,0.1,0,0.1,0,0.2c0,1.9,0,3.8,0,5.7
	c0,1.2,0.6,2.1,1.6,2.7c0.1,0,0.1,0.1,0.2,0.1c0.1,0,0.3,0.1,0.3-0.2c0-0.6,0-1.1,0-1.7c0-1,0-2.1,0-3.1c0-1.5,0-2.9,0-4.4
	C4.1,21.7,4.4,21.8,4.6,21.8"/>
<path fill="#AEAEAE" d="M48,21.1c0,2.6,0,5.1,0,7.7c0,1-0.3,2-0.9,2.9c-0.5,0.7-1.1,1.3-1.9,1.7c-0.3,0.2-0.7,0.3-1,0.4
	c-0.2,0.1-0.3,0.2-0.3,0.4c0,4,0,7.9,0,11.9c0,0.5,0,1.1,0,1.6c0,0,0,0,0,0c0,0,0,0,0,0h-1.9c0,0,0-0.1,0-0.1c0,0,0,0,0,0
	c0-0.1,0-0.2,0-0.3c0-1.1,0-2.2,0-3.3v-11c0-0.4,0-0.8,0-1.2c0-1,0-1.9,0-2.9c0-0.5,0-0.9,0-1.4c0-1.7,0-3.4,0-5.1
	c0-0.2,0.1-0.3,0.3-0.3c0.5,0,0.9,0,1.4,0c0.2,0,0.3,0.1,0.3,0.3c0,1.4,0,2.7,0,4.1c0,1.7,0,3.3,0,5c0,0.1,0,0.2,0.1,0.3
	c0.1,0,0.2,0,0.3-0.1c0.4-0.3,0.8-0.6,1.1-0.9c0.4-0.4,0.6-0.9,0.6-1.5c0-2.4,0-4.7,0.1-7.1c0-0.6,0-1.2,0-1.7c0-1-0.4-1.7-1.2-2.3
	c-0.8-0.6-1.7-1-2.6-1.3c-0.8-0.3-1.6-0.4-2.4-0.6c-0.7-0.1-1.4-0.2-2.1-0.2c-0.8,0-1.5,0.2-2.3,0.3c-1.2,0.1-2.3,0.6-3.3,1.1
	c-0.5,0.2-0.9,0.5-1.3,0.9c-0.7,0.6-1,1.4-0.9,2.3c0,0.3-0.1,0.4-0.5,0.4c-0.4,0-0.8,0-1.2,0C28,21,28,20.9,28,20.7
	c-0.1-0.9,0.1-1.7,0.5-2.5c0.3-0.6,0.7-1,1.2-1.4c0.6-0.5,1.3-0.9,2.1-1.3c0.9-0.4,1.8-0.7,2.8-0.9c0.8-0.2,1.6-0.3,2.5-0.4
	c0.9-0.1,1.7,0,2.5,0.1c0.8,0.1,1.6,0.2,2.4,0.4c0.6,0.1,1.2,0.4,1.8,0.6c0.7,0.3,1.4,0.7,2.1,1.1c1.1,0.7,1.9,1.7,2.2,3
	c0.1,0.4,0,0.8,0,1.3C48,20.8,48,20.9,48,21.1z"/>
<rect x="3.9" y="32.5" fill="#D31145" width="2" height="15.2"/>
<rect x="8.9" y="31.7" fill="#D31145" width="2" height="16"/>
<rect x="14" y="33.9" fill="#D31145" width="2" height="13.9"/>
</svg>
