<?xml version="1.0" encoding="utf-8"?>
<!-- Generator: Adobe Illustrator 23.0.0, SVG Export Plug-In . SVG Version: 6.00 Build 0)  -->
<svg version="1.1" id="Contours" xmlns="http://www.w3.org/2000/svg" xmlns:xlink="http://www.w3.org/1999/xlink" x="0px" y="0px"
	 viewBox="0 0 48 48" style="enable-background:new 0 0 48 48;" xml:space="preserve">
<style type="text/css">
	.st0{fill:#AEAEAE;}
</style>
<desc  xmlns:shape="http://adobe.com/products/shape"></desc>
<g>
	<polygon fill="#AEAEAE" points="32.9,41.3 32.9,37.2 32.3,37.2 31.1,37.2 17.3,37.2 15.9,37.2 15.5,37.2 15.5,44.2 1.1,44.2 1.1,44.4 
		1,44.4 1,48 2.8,48 2.8,46 15.5,46 15.5,48 17.3,48 17.3,39 31.1,39 31.1,48 32.9,48 32.9,43.1 45.7,43.1 45.7,48 47.5,48 
		47.5,43.1 47.5,41.6 47.5,41.3 	"/>
	<path fill="#AEAEAE" d="M29.4,3.6c0.4,0.9,0.6,2,0.4,3c-0.3,2.1-1.9,3.9-3.9,4.5s-4.3-0.1-5.7-1.6c-1.4-1.6-1.7-4-0.9-5.9
		c0.9-1.9,2.9-3.2,5-3.2S28.5,1.7,29.4,3.6 M23.4,2.3c-1.7,0.5-2.9,2.2-2.7,4c0.2,1.5,1.3,2.8,2.8,3.2c1.5,0.4,3.1-0.3,3.9-1.5
		c0.8-1.2,0.8-3,0-4.2C26.5,2.5,24.9,1.9,23.4,2.3"/>
	<path d="M28.2,35.8v0.1C28.2,35.9,28.2,35.8,28.2,35.8z"/>
	<path d="M30.1,36v-0.6c0,0.1,0,0.3,0,0.4C30.1,35.9,30.1,35.9,30.1,36z"/>
	<rect x="23.4" y="26.3" fill="#AEAEAE" width="1.9" height="9.9"/>
	<path d="M30.1,34.4v1C30.1,35.1,30.1,34.7,30.1,34.4z"/>
	<path fill="#AEAEAE" d="M38,9.8c0,1.1-0.4,2-1,2.8c-0.2,0.3-0.4,0.5-0.7,0.8c-0.6,0.6-1.3,1.2-1.9,1.9c-0.8,0.8-1.6,1.5-2.4,2.3
		c-0.5,0.5-1.1,1-1.6,1.5c-0.2,0.2-0.3,0.4-0.3,0.7c0,4.7,0,9.3,0,14c0,0.2,0,0.4,0,0.6c0,0.3,0,0.7,0,1v0.8h-1.9V18.9
		c0-0.3,0.1-0.5,0.3-0.7c0,0,0,0,0.1-0.1c0.6-0.6,1.2-1.1,1.8-1.7c0.6-0.6,1.2-1.2,1.8-1.8c0.9-0.8,1.7-1.7,2.6-2.5
		c0.5-0.4,0.9-0.9,1.1-1.6c0.3-0.8,0.2-1.6,0-2.4c0-0.1-0.1-0.3-0.3-0.1c-0.9,0.9-1.9,1.7-2.8,2.6c-0.7,0.7-1.4,1.3-2.2,2
		c-0.8,0.7-1.5,1.4-2.4,2.1c-0.6,0.5-1.3,0.7-2.1,0.7c-0.9,0-1.9,0.1-2.8,0.1c-1.3,0-2.5-0.4-3.5-1.3c-0.7-0.7-1.5-1.4-2.3-2
		c-0.8-0.7-1.6-1.5-2.5-2.2c-0.7-0.6-1.4-1.2-2-1.8c-0.1-0.1-0.3-0.3-0.4,0.1c-0.4,1.4-0.2,2.6,0.8,3.6c0.8,0.8,1.7,1.6,2.6,2.5
		c0.7,0.6,1.3,1.3,2,1.9c0.7,0.6,1.3,1.3,2,1.8c0.4,0.3,0.4,0.6,0.4,1c0,1.2,0,2.3,0,3.4c0,2.3,0,4.6-0.1,6.9c0,2.1,0,4.7-0.1,6.7
		c-0.5,0-1.6,0-2,0c0-0.6,0-1.6,0-2.3c0-1.5,0-3,0.1-4.5c0-2.2,0-4.5,0.1-6.7c0-1,0-2,0.1-3.1c0-0.1-0.1-0.3-0.2-0.4
		c-0.7-0.7-1.4-1.3-2-1.9c-0.5-0.5-1-0.9-1.5-1.4c-0.9-0.8-1.7-1.7-2.6-2.4c-0.9-0.8-1.4-1.7-1.7-2.8c-0.3-1.2-0.2-2.3,0.3-3.4
		c0.3-0.7,0.8-1.3,1.3-1.9c0.2-0.2,0.3-0.1,0.5,0c0.3,0.2,0.5,0.5,0.8,0.7c0.7,0.6,1.3,1.2,2,1.8c0.8,0.7,1.6,1.5,2.4,2.2
		c0.8,0.7,1.6,1.4,2.4,2.1c0.5,0.5,1,1,1.7,1.2c0.3,0.1,0.6,0.2,0.9,0.2c0.7,0,1.4,0,2.1,0c0.2,0,0.4,0,0.6,0c0.8,0,1.5-0.2,2-0.8
		c0.5-0.4,0.9-0.8,1.4-1.3c0.9-0.9,1.9-1.7,2.8-2.6c0.6-0.5,1.2-1.1,1.8-1.6c0.8-0.7,1.5-1.4,2.3-2c0.1,0,0.2,0,0.3,0
		c0.8,0.8,1.4,1.8,1.6,3C37.9,8.9,38,9.3,38,9.8z"/>
</g>
</svg>
