<?xml version="1.0" encoding="utf-8"?>
<!-- Generator: Adobe Illustrator 23.0.0, SVG Export Plug-In . SVG Version: 6.00 Build 0)  -->
<svg version="1.1" id="Contours" xmlns="http://www.w3.org/2000/svg" xmlns:xlink="http://www.w3.org/1999/xlink" x="0px" y="0px"
	 viewBox="0 0 48 48" style="enable-background:new 0 0 48 48;" xml:space="preserve">
<style type="text/css">
	.st0{fill:#AEAEAE;}
	.st1{fill:#D31145;}
</style>
<desc  xmlns:shape="http://adobe.com/products/shape"></desc>
<g>
	<rect x="23.5" y="20.5" fill="#AEAEAE" width="1.8" height="27.5"/>
	<path fill="#D31145" d="M16.3,5.2c0.5,1,0.6,2.2,0.5,3.3c-0.3,2.3-2,4.3-4.2,4.9s-4.7-0.1-6.2-1.8S4.4,7.3,5.4,5.2
		c0.9-2.1,3.2-3.5,5.5-3.5S15.3,3.1,16.3,5.2 M9.8,3.8C7.9,4.3,6.6,6.2,6.8,8.1c0.2,1.6,1.4,3.1,3,3.5c1.6,0.4,3.4-0.3,4.3-1.6
		c0.9-1.3,0.9-3.3-0.1-4.6C13.2,4,11.4,3.3,9.8,3.8"/>
	<path fill="#D31145" d="M2.1,21.2C2.1,21.1,2.1,21.1,2.1,21.2C2.1,21.1,2,21.1,2.1,21.2C2,21.1,2,21.1,2.1,21.2"/>
	<path fill="#D31145" d="M2,24.1C1.9,24.1,1.9,24.1,2,24.1C1.9,24.1,1.9,24.1,2,24.1C1.9,24.1,1.9,24.1,2,24.1"/>
	<rect x="9.6" y="32" fill="#D31145" width="1.9" height="16"/>
	<path fill="#D31145" d="M29.5,15.3c-0.3,1-0.6,2-1.3,2.9c-0.7,0.9-1.4,1.8-2.5,2.2l-0.5,0.2c-0.1,0-0.3,0.1-0.4,0.1
		c-0.5,0.1-0.9,0.1-1.4,0.2c-2.1,0-4.2,0-6.3,0c-0.5,0-0.6,0.1-0.6,0.6c0,0.2,0,0.4,0,0.7s0,0.4,0,0.6c0,0.2,0,0.5,0,0.7
		c0,1.9,0,3.8,0,5.6c0,0.7,0,1.5,0,2.2V48h-1.9v-8c0-1.3,0-2.6,0-3.9c0-1.2,0-2.5,0-3.7c0-4.1,0-8.2-0.1-12.3c0-0.6,0.5-1,1-1.1
		c2.7,0,5.3,0,8-0.1c0.8,0,1.5-0.3,2.1-0.8c0.6-0.6,1.1-1.3,1.4-2.1c0.1-0.2,0-0.2-0.1-0.2c-1.4,0-2.7,0-4.1,0c-0.5,0-0.9,0-1.4,0
		c-2.4,0-4.8,0-7.2,0c-2.1,0-4.3,0-6.4,0.1c-0.9,0-1.9,0-2.8,0.3c-1.3,0.5-2.2,1.5-2.5,2.9c-0.1,0.5-0.1,0.9-0.1,1.4
		c0,2.2,0,4.5,0,6.7c0,0.6-0.1,1.2-0.1,1.8c0,0.8,0.2,1.6,0.8,2.2c0.3,0.3,0.7,0.5,1,0.8c0.1,0.1,0.2,0.1,0.2,0v-10h1.9V48
		c-0.1,0-0.1,0-0.2,0h0c-0.4,0-0.8,0-1.3,0H4.5V34.4c-0.1-0.2-0.3-0.2-0.7-0.4c-1.3-0.5-2.2-1.3-2.8-2.5c-0.4-0.8-0.6-1.6-0.6-2.4
		c0-0.8,0-1.7,0-2.5c0-2.2,0-4.4,0.1-6.6c0-1.4,0.5-2.6,1.4-3.7c0.9-1.1,2.1-1.7,3.4-2.1C5.8,14,6.4,14,6.9,14c1,0,2,0,2.9,0
		c2.5,0,4.9,0,7.4-0.1c3.7,0,7.4,0,11.1-0.1C29.2,13.8,29.7,14.4,29.5,15.3z"/>
	<rect x="23.5" fill="#AEAEAE" width="1.8" height="13.8"/>
	<path fill="#AEAEAE" d="M24.4,1.7c0,0,0,7.2,0,9.6c2.7-1.8,8.1-0.8,9.8-0.5c0,0-0.1,1.4,0,2.5c0.1,1.1,1.6,0.7,1.6,0.7s0-9.8,0-11.5
		C33.9,0.4,28.5,0.8,24.4,1.7z M33.5,9.2C32.8,9,32,8.9,31.2,8.8c-0.4-0.1-0.8-0.1-1.3-0.1c-1.2,0.1-2.4,0-3.6,0.3
		c-0.2,0-0.3,0.1-0.5,0.2c-0.4,0.1-0.7-0.1-0.7-0.5c0-0.9,0-1.8-0.1-2.7c0-0.8,0-1.6,0-2.4c0-0.3,0.1-0.5,0.4-0.6
		c0.7-0.2,1.5-0.4,2.3-0.5c1-0.1,1.9-0.1,2.9-0.1c1.1,0,2.1,0.2,3.1,0.5c0.3,0.1,0.5,0.3,0.5,0.6c0,1.7,0,3.3,0.1,5
		C34.3,9.2,33.9,9.3,33.5,9.2z"/>
	<path fill="#AEAEAE" d="M44.8,10.3c0,0,2.7-2.5,2.8-3.1c-4-3.8-9.1-3.4-12.4-2.8c0,0-0.1,7.7-0.1,9.7c0.9,0.1,2.6-0.9,5.7-0.7
		c3.7,0.3,5.6,2.3,6.4,2C46.9,13.4,45.9,11.9,44.8,10.3z M35.9,12.1c0-1.9,0-6.2,0-6.2c3-0.7,8.6,0.2,9.5,1.7
		c-0.5,0.8-2.4,2.5-2.4,2.6c1,1.3,1.5,2.6,1.5,2.6C41.8,11.8,39.1,10.9,35.9,12.1z"/>
</g>
</svg>
