<?xml version="1.0" encoding="utf-8"?>
<!-- Generator: Adobe Illustrator 23.0.0, SVG Export Plug-In . SVG Version: 6.00 Build 0)  -->
<svg version="1.1" id="Contours" xmlns="http://www.w3.org/2000/svg" xmlns:xlink="http://www.w3.org/1999/xlink" x="0px" y="0px"
	 viewBox="0 0 48 48" style="enable-background:new 0 0 48 48;" xml:space="preserve">
<style type="text/css">
	.st0{fill:#AEAEAE;}
</style>
<desc  xmlns:shape="http://adobe.com/products/shape"></desc>
<path fill="#AEAEAE" d="M14.2,41c-0.2,0.4-0.5,0.8-0.7,1.3c-0.1,0.1-0.2,0.2-0.3,0.1c-0.5-0.3-0.9-0.6-1.4-0.9
	c-0.6-0.4-1.1-0.9-1.7-1.4c-0.4-0.3-0.8-0.7-1.1-1.1c-0.5-0.6-1-1.2-1.5-1.8c-0.4-0.6-0.8-1.2-1.2-1.8c0,0,0-0.1,0-0.1
	C5.6,34.1,5,33,4.7,31.9c-0.2-0.7-0.4-1.4-0.6-2.1c-0.1-0.5-0.2-1-0.2-1.5C3.8,28,4,28,4.2,27.9c0.4-0.1,0.7-0.1,1.1-0.2
	c0.3,0,0.4,0,0.4,0.3C5.8,29,6,29.8,6.3,30.7c0.3,0.8,0.6,1.7,1,2.5c0.5,1,1.1,2,1.8,2.9c0.7,0.9,1.4,1.7,2.2,2.4
	c0.9,0.8,1.8,1.5,2.8,2.1C14.3,40.8,14.3,40.8,14.2,41z"/>
<path fill="#AEAEAE" d="M16.9,6.5c-0.2-0.4-0.4-0.9-0.6-1.3c-0.1-0.1,0-0.3,0.1-0.3c0.5-0.2,1-0.4,1.6-0.6C18.6,4,19.3,3.8,20,3.7
	c0.5-0.1,1-0.2,1.5-0.3c0.8-0.1,1.6-0.2,2.4-0.2c0.7,0,1.5,0,2.2,0c0,0,0.1,0,0.1,0c1.2,0.1,2.4,0.3,3.6,0.6
	c0.7,0.2,1.4,0.4,2.1,0.7c0.5,0.2,0.9,0.4,1.4,0.7c0.2,0.1,0.1,0.3,0,0.5c-0.2,0.3-0.3,0.7-0.5,1c-0.1,0.2-0.2,0.3-0.5,0.1
	c-0.8-0.4-1.6-0.7-2.4-1c-0.9-0.3-1.7-0.4-2.6-0.6C26.1,5,24.9,5,23.8,5c-1.1,0-2.2,0.2-3.3,0.5c-1.2,0.3-2.3,0.7-3.4,1.1
	C17,6.7,16.9,6.6,16.9,6.5z"/>
<path fill="#AEAEAE" d="M34.8,41c0.2,0.4,0.5,0.8,0.7,1.3c0.1,0.1,0.2,0.2,0.3,0.1c0.5-0.3,0.9-0.6,1.4-0.9c0.6-0.4,1.1-0.9,1.7-1.4
	c0.4-0.3,0.8-0.7,1.1-1.1c0.5-0.6,1-1.2,1.5-1.8c0.4-0.6,0.8-1.2,1.2-1.8c0,0,0-0.1,0-0.1c0.6-1.1,1.1-2.2,1.5-3.3
	c0.2-0.7,0.4-1.4,0.6-2.1c0.1-0.5,0.2-1,0.2-1.5c0-0.2-0.2-0.2-0.4-0.3c-0.4-0.1-0.7-0.1-1.1-0.2c-0.3,0-0.4,0-0.4,0.3
	c-0.1,0.9-0.3,1.7-0.5,2.6c-0.3,0.8-0.6,1.7-1,2.5c-0.5,1-1.1,2-1.8,2.9c-0.7,0.9-1.4,1.7-2.2,2.4c-0.9,0.8-1.8,1.5-2.8,2.1
	C34.7,40.8,34.8,40.8,34.8,41z"/>
<g>
	<path fill="#AEAEAE" d="M32.3,40.6c0-0.4-0.1-0.8-0.3-1.1c-0.4-0.7-0.9-1.2-1.6-1.6c-0.7-0.5-1.5-0.9-2.3-1.2
		c-1.1-0.5-2.2-0.7-3.4-0.7c-0.7,0-1.4,0.1-2,0.2c-1,0.2-1.9,0.5-2.8,1c-0.7,0.3-1.3,0.7-1.9,1.2c-0.5,0.5-1,1-1.1,1.7
		c-0.1,0.5-0.1,1-0.1,1.4c0,0.8,0,1.7-0.1,2.5c0,0.1,0,0.2,0.1,0.3c0.2,0.2,0.4,0.4,0.6,0.5c0.8,0.6,1.6,1.1,2.6,1.4
		c0.7,0.2,1.4,0.4,2.1,0.5c0.6,0.1,1.1,0.1,1.7,0.2c0.3,0,0.5,0,0.8,0c1.3,0,2.6-0.1,3.9-0.4c1.3-0.3,2.4-0.9,3.4-1.7
		c0.1-0.1,0.3-0.2,0.3-0.4c0-0.5,0.1-1,0.1-1.5C32.3,42.1,32.3,41.3,32.3,40.6z M30.3,41.4c0,0.6,0,1.1,0,1.7c0,0.3-0.1,0.5-0.3,0.6
		c-0.8,0.4-1.6,0.7-2.5,0.9c-0.5,0.1-0.9,0.1-1.4,0.2c-0.7,0-1.5,0.1-2.2,0c-0.8,0-1.5-0.2-2.3-0.3c-0.8-0.1-1.4-0.4-2.1-0.7
		c-0.3-0.1-0.5-0.3-0.7-0.4c-0.2-0.2-0.2-0.4-0.2-0.7c0-0.8,0-1.5,0.1-2.2c0-0.3,0.2-0.6,0.4-0.8c0.5-0.5,1.1-0.8,1.8-1.1
		c0.7-0.3,1.4-0.6,2.2-0.7c0.4-0.1,0.9-0.2,1.3-0.1c1.1,0,2.2,0.2,3.3,0.7c0.9,0.4,1.7,0.9,2.3,1.5C30.4,40.5,30.3,41.3,30.3,41.4z"
		/>
	<path fill="#AEAEAE" d="M29.9,27.5c0.4,1,0.6,2,0.5,3.1c-0.3,2.1-1.9,4-4,4.7c-2.1,0.6-4.5-0.1-5.9-1.7c-1.4-1.6-1.8-4.1-0.9-6.1
		c0.9-2,3-3.3,5.2-3.3S29.1,25.6,29.9,27.5 M23.8,26.2c-1.7,0.5-3,2.3-2.8,4.1c0.2,1.5,1.4,2.9,2.9,3.3c1.5,0.4,3.2-0.3,4.1-1.6
		c0.9-1.3,0.8-3.1,0-4.3C27,26.4,25.3,25.8,23.8,26.2"/>
</g>
<g>
	<path fill="#AEAEAE" d="M15.5,18.3c0-0.4-0.1-0.8-0.3-1.1c-0.4-0.6-0.9-1.1-1.5-1.6c-0.6-0.4-1.3-0.8-2.1-1.1c-0.1,0-0.1,0-0.2-0.1
		c-0.7-0.3-1.4-0.5-2.1-0.6C8.6,14.1,7.8,14.2,7,14c-0.2,0-0.4-0.1-0.6-0.2c-0.1,0-0.2,0-0.3,0c-0.7,0.1-1.4,0.3-2,0.6
		c-0.3,0.1-0.5,0.2-0.8,0.3c-0.7,0.3-1.3,0.7-1.8,1.2c-0.5,0.4-1,1-1.1,1.7c-0.1,0.5-0.1,0.9-0.1,1.4c0,0.8,0,1.6,0,2.4
		c0,0.1,0,0.2,0.1,0.3c0.2,0.2,0.4,0.4,0.6,0.5c0.8,0.6,1.6,1,2.5,1.4c0.7,0.2,1.4,0.4,2.1,0.5c0.6,0,1.1,0.1,1.7,0.2
		c0.3,0,0.5,0,0.8,0c1.3,0,2.6-0.1,3.9-0.4c1.2-0.3,2.3-0.9,3.3-1.7c0.1-0.1,0.2-0.2,0.3-0.4c0-0.5,0.1-0.9,0.1-1.4
		C15.5,19.8,15.6,19,15.5,18.3z M13.6,20.8c0,0.3-0.1,0.5-0.3,0.6c-0.8,0.4-1.6,0.7-2.4,0.9c-0.4,0.1-0.9,0.1-1.3,0.1
		c-0.7,0-1.4,0.1-2.2,0c-0.7,0-1.5-0.2-2.2-0.3c-0.7-0.1-1.4-0.4-2.1-0.7c-0.2-0.1-0.5-0.3-0.7-0.4c-0.2-0.2-0.2-0.4-0.2-0.6
		c0-0.7,0-1.4,0-2.1c0-0.3,0.2-0.6,0.4-0.7c0.5-0.4,1.1-0.8,1.8-1.1c0.7-0.3,1.3-0.6,2-0.7l0,0c0,0,0.1,0,0.1,0
		c0.4-0.1,0.9-0.2,1.3-0.1c0.5,0,1,0.1,1.5,0.2l0,0c0.6,0.1,1.1,0.3,1.7,0.5c0.8,0.4,1.6,0.8,2.3,1.5c0.4,0.4,0.3,1.2,0.3,1.3
		C13.6,19.7,13.6,20.2,13.6,20.8z"/>
	<path fill="#AEAEAE" d="M12.9,8.2c-0.9-1.9-2.9-3.2-5-3.2s-4.2,1.3-5,3.2c-0.9,1.9-0.5,4.3,0.9,5.9c0.1,0.1,0.2,0.3,0.4,0.4
		c0.7,0.6,1.5,1,2.3,1.3l0,0l2.9,0l0,0c0,0,0.1,0,0.1,0c0.8-0.2,1.5-0.7,2.1-1.3c0.9-0.9,1.6-2,1.7-3.3C13.5,10.2,13.4,9.1,12.9,8.2
		z M7,14c-0.2,0-0.4-0.1-0.6-0.2c-1.2-0.5-2.1-1.7-2.2-3c-0.2-1.7,1-3.5,2.7-4c1.5-0.4,3.1,0.2,4,1.4c0.9,1.2,0.9,3,0,4.2
		c-0.4,0.6-0.9,1-1.6,1.3C8.6,14.1,7.8,14.2,7,14z"/>
</g>
<g>
	<path fill="#AEAEAE" d="M47.8,18.3c0-0.4-0.1-0.8-0.3-1.1c-0.4-0.6-0.9-1.1-1.5-1.6c-0.6-0.4-1.3-0.8-2.1-1.1c-0.1,0-0.1,0-0.2-0.1
		c-0.7-0.3-1.4-0.5-2.1-0.6c-0.7,0.3-1.6,0.4-2.4,0.2c-0.2,0-0.4-0.1-0.6-0.2c-0.1,0-0.2,0-0.3,0c-0.7,0.1-1.4,0.3-2,0.6
		c-0.3,0.1-0.5,0.2-0.8,0.3c-0.7,0.3-1.3,0.7-1.8,1.2c-0.5,0.4-1,1-1.1,1.7c-0.1,0.5-0.1,0.9-0.1,1.4c0,0.8,0,1.6,0,2.4
		c0,0.1,0,0.2,0.1,0.3c0.2,0.2,0.4,0.4,0.6,0.5c0.8,0.6,1.6,1,2.5,1.4c0.7,0.2,1.4,0.4,2.1,0.5c0.6,0,1.1,0.1,1.7,0.2
		c0.3,0,0.5,0,0.8,0c1.3,0,2.6-0.1,3.9-0.4c1.2-0.3,2.3-0.9,3.3-1.7c0.1-0.1,0.2-0.2,0.3-0.4c0-0.5,0.1-0.9,0.1-1.4
		C47.8,19.8,47.9,19,47.8,18.3z M45.9,20.8c0,0.3-0.1,0.5-0.3,0.6c-0.8,0.4-1.6,0.7-2.4,0.9c-0.4,0.1-0.9,0.1-1.3,0.1
		c-0.7,0-1.4,0.1-2.2,0c-0.7,0-1.5-0.2-2.2-0.3c-0.7-0.1-1.4-0.4-2.1-0.7c-0.2-0.1-0.5-0.3-0.7-0.4c-0.2-0.2-0.2-0.4-0.2-0.6
		c0-0.7,0-1.4,0-2.1c0-0.3,0.2-0.6,0.4-0.7c0.5-0.4,1.1-0.8,1.8-1.1c0.7-0.3,1.3-0.6,2-0.7l0,0c0,0,0.1,0,0.1,0
		c0.4-0.1,0.9-0.2,1.3-0.1c0.5,0,1,0.1,1.5,0.2l0,0c0.6,0.1,1.1,0.3,1.7,0.5c0.8,0.4,1.6,0.8,2.3,1.5c0.4,0.4,0.3,1.2,0.3,1.3
		C45.9,19.7,45.9,20.2,45.9,20.8z"/>
	<path fill="#AEAEAE" d="M45.2,8.2c-0.9-1.9-2.9-3.2-5-3.2c-2.1,0-4.2,1.3-5,3.2c-0.9,1.9-0.5,4.3,0.9,5.9c0.1,0.1,0.2,0.3,0.4,0.4
		c0.7,0.6,1.5,1,2.3,1.3l0,0l2.9,0l0,0c0,0,0.1,0,0.1,0c0.8-0.2,1.5-0.7,2.1-1.3c0.9-0.9,1.6-2,1.7-3.3C45.8,10.2,45.7,9.1,45.2,8.2
		z M39.3,14c-0.2,0-0.4-0.1-0.6-0.2c-1.2-0.5-2.1-1.7-2.2-3c-0.2-1.7,1-3.5,2.7-4c1.5-0.4,3.1,0.2,4,1.4c0.9,1.2,0.9,3,0,4.2
		c-0.4,0.6-0.9,1-1.6,1.3C41,14.1,40.1,14.2,39.3,14z"/>
</g>
</svg>
