<?xml version="1.0" encoding="utf-8"?>
<!-- Generator: Adobe Illustrator 23.0.0, SVG Export Plug-In . SVG Version: 6.00 Build 0)  -->
<svg version="1.1" id="Contours" xmlns="http://www.w3.org/2000/svg" xmlns:xlink="http://www.w3.org/1999/xlink" x="0px" y="0px"
	 viewBox="0 0 48 48" style="enable-background:new 0 0 48 48;" xml:space="preserve">
<style type="text/css">
	.st0{fill:#AEAEAE;}
	.st1{fill:#6C6A68;}
</style>
<desc  xmlns:shape="http://adobe.com/products/shape"></desc>
<path d="M10.4,36.1C10.3,36,10.3,36,10.4,36.1c0-0.1,0-0.1,0-0.1C10.4,36,10.4,36,10.4,36.1"/>
<path fill="#AEAEAE" d="M18.1,37.5c0-0.2-0.1-0.3-0.3-0.3c-0.8,0-1.5,0-2.3,0h-3c-0.7,0-1.4,0-2,0c-0.5,0-0.9-0.1-1.3-0.3
	c-0.8-0.2-1.4-0.9-2-1.5c-0.2-0.2-0.3-0.5-0.4-0.7c-0.2-0.6-0.4-1.3-0.3-2c0.1-0.7,0-1.5,0-2.2c0-0.3,0-0.5,0.1-0.8
	c0-1.6,0-3.3,0.1-4.9c0-0.4,0-0.9,0-1.3c0-1.3,0-2.6,0-4c0-0.1-0.1-0.2-0.2-0.2c0,0,0,0-0.1,0v0H4.4V34h0c0,0.2,0.1,0.4,0.2,0.7
	c0.2,0.8,0.5,1.6,1,2.2c0.4,0.4,0.7,0.9,1.1,1.2c0.4,0.3,0.8,0.5,1.2,0.7c0.8,0.4,1.6,0.6,2.5,0.7c0.1,0,0.2,0.1,0.2,0.2
	c0,0.5,0.1,1.1,0.1,1.6c0,0.8,0,1.5,0,2.3c0,0.6,0,1.2,0,1.8c0,0.4-0.1,0.5-0.4,0.5c-0.2,0-0.4,0-0.6,0c-1,0-1.9,0.1-2.9,0
	c-0.4,0-0.3,0.2-0.3,0.3c0,0.4,0,0.9,0,1.3c0,0.4,0.1,0.5,0.5,0.5c0.4,0,0.7,0,1.1,0c0.7,0,1.4,0,2.2,0c0.3,0,0.6,0,0.9,0
	c0.7,0,1.3,0,2,0c0.8,0,1.6,0,2.4,0c0.4,0,0.9,0,1.3,0c0.2,0,0.2-0.1,0.2-0.2c0-0.5,0-1.1,0-1.6c0-0.1-0.1-0.3-0.2-0.3
	c-0.4,0-0.8-0.1-1.3-0.1c-0.3,0-0.6,0-1,0c-0.5,0-1,0-1.4,0.1c-0.3,0-0.4-0.1-0.3-0.4c0-0.1,0-0.1,0-0.2c0-0.7,0-1.3,0-2
	c0-0.5,0-1,0-1.5c0-0.7,0-1.4,0-2.2c0-0.2,0.1-0.2,0.2-0.2c0.4,0,0.9-0.1,1.3,0c0.6,0,1.2,0,1.8,0c0.6,0,1.2,0,1.8,0
	c0.2,0,0.2-0.1,0.2-0.3C18.1,38.6,18.1,38.1,18.1,37.5z"/>
<path fill="#6C6A68" d="M4.9,22.9C4.9,22.9,4.9,22.9,4.9,22.9C4.9,22.9,4.9,22.9,4.9,22.9z"/>
<path fill="#6C6A68" d="M4.9,22.7C4.9,22.6,4.9,22.6,4.9,22.7C4.9,22.6,4.9,22.6,4.9,22.7z"/>
<path fill="#6C6A68" d="M5,22.5C4.9,22.5,4.9,22.5,5,22.5C4.9,22.5,4.9,22.5,5,22.5z"/>
<path fill="#6C6A68" d="M5.4,19.8C5.4,19.8,5.4,19.8,5.4,19.8C5.4,19.7,5.4,19.8,5.4,19.8z"/>
<path fill="#6C6A68" d="M5.6,19.8C5.5,19.8,5.5,19.8,5.6,19.8C5.5,19.7,5.5,19.8,5.6,19.8z"/>
<path fill="#6C6A68" d="M5.9,19.8C5.9,19.8,5.9,19.8,5.9,19.8C5.9,19.7,5.9,19.8,5.9,19.8z"/>
<path fill="#6C6A68" d="M6,21.1C6,21.1,6,21.1,6,21.1C6,21,6,21.1,6,21.1z"/>
<path fill="#6C6A68" d="M6.4,20.6C6.4,20.6,6.4,20.6,6.4,20.6C6.4,20.6,6.4,20.6,6.4,20.6z"/>
<path fill="#AEAEAE" d="M44.8,9.5c-0.3-0.2-0.6-0.3-0.9-0.3c-1,0-2.1,0-3.1,0c-1.1,0-2.1,0-3.2,0c-1,0-2,0-3,0c-1.3,0-2.6,0-3.8,0
	c-1,0-1.9,0-2.9,0c-0.4,0-0.8,0.1-1.1,0.6c-0.4,0.7-0.8,1.4-1.2,2c-0.6,1-1.1,1.9-1.7,2.9c-0.4,0.6-0.7,1.2-1.1,1.8
	c-0.2,0.3-0.1,0.4,0.2,0.6c0.3,0.2,0.7,0.3,1,0.6c0.3,0.2,0.4,0.2,0.6-0.1c0.2-0.4,0.5-0.9,0.7-1.3c0.1-0.2,0.2-0.4,0.3-0.6
	c0.4-0.7,0.8-1.3,1.1-2c0.4-0.7,0.8-1.4,1.2-2.1c0.2-0.3,0.3-0.4,0.7-0.3c0.1,0,0.1,0,0.2,0c0.2,0,0.4-0.1,0.6-0.1
	c0.9,0,1.8,0,2.7,0c0.4,0,0.8,0,1.3,0c0.6,0,1.1,0,1.7,0c1.1,0,2.2,0,3.3,0c0.8,0,1.6,0,2.4,0c0.2,0,0.4,0.1,0.6,0
	c0.3,0,0.6,0,0.9,0c0.2,0,0.2,0,0.1,0.2c-0.1,0.1-0.2,0.2-0.2,0.4c-0.1,0.2-0.2,0.4-0.3,0.6c-0.5,0.8-0.9,1.6-1.4,2.4
	c-0.6,1-1.2,2.1-1.7,3.1c-0.4,0.8-0.8,1.5-1.3,2.3c0,0.1-0.1,0.1-0.2,0.2h-7.7v2.1h8.6v0c0.3,0,0.5-0.2,0.7-0.4
	c0.4-0.8,0.9-1.6,1.3-2.4c0.5-1,1.1-2,1.6-2.9c0.4-0.7,0.8-1.5,1.2-2.2c0.4-0.7,0.8-1.5,1.2-2.2c0.3-0.6,0.6-1.1,0.9-1.6
	C45.3,10.4,45.2,9.8,44.8,9.5z"/>
<path fill="#AEAEAE" d="M27.4,23.6c-0.1,0-0.2,0-0.1-0.2c0.2-0.5,0.3-1,0.4-1.5c0.1-0.7,0-1.4,0-2.1c0-0.1,0-0.3-0.3-0.3
	c-0.2,0-0.5,0-0.7,0c-1,0-1.9,0-2.9-0.1c-0.3,0-0.6,0-0.9,0c-0.5,0-1.1,0-1.6,0c-0.2,0-0.4-0.1-0.5-0.2c-0.5-0.6-1-1.3-1.5-1.9
	c-0.4-0.4-0.7-0.9-1.1-1.3c-0.6-0.7-1.1-1.3-1.6-2c-0.1-0.1-0.2-0.2-0.3-0.4c-0.2-0.4-0.4-0.5-0.8-0.5c-0.1,0-0.3,0-0.4,0
	c-0.3,0-0.6,0-1,0c-0.3,0-0.6,0.1-0.9,0c-0.7-0.1-1.3-0.1-1.9,0.1c-0.7,0.2-1.4,0.5-1.9,1c-0.7,0.6-1,1.3-1.2,2.2
	C8,16.9,8,17.3,7.9,17.6c0,0.4,0,0.9,0,1.3c0,0.6,0,1.2-0.1,1.8c0,1.1,0,2.2-0.1,3.3c0,0.4,0,0.7,0,1.1c0,0.7,0,1.4,0,2.1
	c0,0.6,0,1.1,0,1.7c0,0.7,0,1.4-0.1,2.1c0,0.7,0.2,1.4,0.4,2.1C8.4,34,9,34.5,9.6,35.1c0.2,0.2,0.4,0.3,0.6,0.5
	c0.9,0.6,1.9,0.7,3,0.7c1,0,2.1,0,3.1,0c0.6,0,1.2,0,1.8,0c0.4,0,0.8,0,1.2,0c0.2,0,0.3,0.1,0.4,0.2c0.3,0.5,0.6,1.1,0.9,1.6
	c0.3,0.5,0.5,1,0.8,1.5c0.4,0.8,0.9,1.6,1.3,2.4c0.2,0.4,0.5,0.9,0.7,1.4c0.4,0.8,0.8,1.5,1.2,2.3c0.3,0.5,0.5,0.9,0.8,1.4
	c0.1,0.2,0.3,0.2,0.4,0.1c0.5-0.2,0.9-0.5,1.4-0.8c0.1,0,0.1-0.2,0.1-0.3c-0.1-0.3-0.2-0.5-0.4-0.8c-0.2-0.4-0.4-0.7-0.6-1
	c-0.5-0.9-0.9-1.7-1.4-2.6c-0.5-0.9-1-1.8-1.4-2.7c-0.5-1-1.1-1.9-1.5-2.8c-0.2-0.6-0.6-1.2-0.9-1.8c-0.1-0.1-0.2-0.3-0.4-0.3
	c-0.6,0-1.3,0-1.9,0c-0.2,0-0.4,0-0.7,0c-0.8,0-1.6,0-2.4,0c-0.7,0-1.4,0-2.1,0c-0.4,0-0.8-0.1-1.2-0.1c-0.9-0.1-1.5-0.5-2-1.2
	c-0.4-0.6-0.6-1.3-0.6-2c0-0.3,0-0.7,0-1c0-1,0-2.1,0.1-3.1c0-1.1,0-2.1,0.1-3.1c0-1,0-2,0.1-3c0-1.1,0-2.2,0.1-3.3
	c0-0.2,0.1-0.5,0.1-0.7c0.3-0.8,1.1-1.3,1.9-1.3c0.5,0,0.9,0,1.4,0c0.3,0,0.6,0,1,0c0.2,0,0.4,0,0.6,0.2c0.1,0.1,0.1,0.2,0.2,0.3
	c0.5,0.6,1,1.2,1.5,1.8c0.5,0.6,0.9,1.1,1.4,1.7c0.5,0.6,1,1.1,1.4,1.7c0.1,0.2,0.4,0.5,0.6,0.5c1,0.1,1.9,0,2.9,0h2.2
	c0.2,0,0.3,0.2,0.3,0.3c0,0.2-0.1,0.3-0.2,0.5c-0.2,0.8-0.8,1.2-1.7,1.2c-0.6,0-1.2,0-1.9,0c-1.2,0-2.5,0-3.7,0
	c-0.4,0-0.6-0.3-0.8-0.6c-0.6-0.8-1.2-1.6-1.8-2.3c-0.4-0.6-0.9-1.1-1.4-1.6c-0.1-0.2-0.3-0.2-0.4-0.1c-0.3,0.2-0.6,0.4-0.9,0.7
	c-0.1,0.1-0.3,0.2-0.4,0.3c0,0.1-0.1,0.2,0,0.3c0.1,0.2,0.3,0.4,0.4,0.6c0.6,0.7,1.1,1.4,1.7,2.1c0.3,0.4,0.6,0.7,0.5,1.2
	c-0.1,1-0.1,1.9-0.1,2.9c0,0.9,0,1.7,0,2.6c0,0.1,0.1,0.2,0.2,0.2c0.5,0,0.9,0.1,1.4,0.1c0.6,0,1.2,0,1.9,0c0.4,0,0.7,0,1.1,0
	c0.9,0,1.9-0.1,2.8,0.4c0.4,0.2,0.8,0.5,1,1c0.4,0.7,0.7,1.5,1,2.2c0.5,1.2,1,2.3,1.6,3.5c0.4,1,0.9,2,1.4,3
	c0.4,0.9,0.8,1.8,1.2,2.7c0.2,0.5,0.5,1.1,0.7,1.6c0.2,0.4,0.3,0.7,0.5,1.1c0.3,0.6,0.5,1.1,0.8,1.7c0.1,0.2,0.2,0.2,0.4,0.1
	c0.3-0.1,0.5-0.2,0.8-0.3c0.2-0.1,0.4-0.2,0.6-0.3c0.3-0.1,0.3-0.2,0.2-0.4c-0.1-0.2-0.2-0.4-0.2-0.6c-0.5-1.1-0.9-2.1-1.4-3.2
	c-0.2-0.4-0.3-0.7-0.5-1.1c-0.3-0.7-0.7-1.5-1-2.2C29,38.1,28.5,37.1,28,36c-0.4-1-0.9-1.9-1.3-2.8c-0.5-1-1-2-1.4-3.1
	c-0.2-0.5-0.6-0.9-1-1.2c-0.9-0.7-2.1-1-3.2-1.1c-0.7,0-1.4,0-2.1,0h-1.4c-0.3,0-0.4,0-0.4-0.4c0-0.2,0.1-0.4,0.1-0.6
	c0-0.2,0-0.5,0-0.7c0,0,0-0.5,0-0.5h-0.9v0.1c0,0-0.1-0.1-0.1-0.1c0-0.2,0-0.5,0-0.7c0-0.1,0-0.2,0-0.3c0,0,0,0,0,0v-0.3
	c0,0,0,0,0,0c0,0,0,0,0,0c0,0,0,0,0-0.1c0,0,0,0,0,0c0,0,0,0,0,0c0,0,0,0,0-0.1c0,0,0,0,0,0c0,0,0,0,0,0c0,0,0.1,0,0.1,0
	c0,0,0,0,0,0c0,0,0,0,0,0"/>
<polygon fill="#AEAEAE" points="46.1,23.5 16.2,23.5 16.2,25.6 39.9,25.6 39.9,48 42,48 42,25.6 46.1,25.6 "/>
<path fill="#AEAEAE" d="M22.5,3.6C23,4.7,23.1,5.9,23,7c-0.3,2.3-2.1,4.4-4.3,5.1c-2.3,0.7-4.9-0.1-6.4-1.8s-2-4.5-1-6.6
	c1-2.1,3.3-3.6,5.6-3.6S21.5,1.5,22.5,3.6 M15.8,2.1c-1.9,0.5-3.3,2.5-3,4.5c0.2,1.7,1.5,3.2,3.1,3.6c1.6,0.4,3.5-0.3,4.4-1.7
	c0.9-1.4,0.9-3.4-0.1-4.7C19.3,2.4,17.4,1.7,15.8,2.1"/>
</svg>
