<svg width="220" height="32" viewBox="0 0 220 32" fill="none" xmlns="http://www.w3.org/2000/svg">
    <g clip-path="url(#clip0)">
        <path
            d="M36.1767 31.2508L22.2625 0.252929C22.2063 0.112413 22.0376 0 21.869 0H14.3356C14.167 0 13.9983 0.112413 13.9421 0.252929L0.0279506 31.2508C-0.0282682 31.3913 -0.0282682 31.5318 0.05606 31.6723C0.140388 31.7847 0.280935 31.869 0.421482 31.869H16.219V26.5013L11.5247 23.9439L18.0742 8.54338L24.6237 23.9439L19.9575 26.5013V31.869H35.755C35.8956 31.869 36.0361 31.7847 36.1204 31.6723C36.2329 31.5318 36.2329 31.3913 36.1767 31.2508Z"
            fill="white" />
        <path
            d="M56.7528 11.9161H52.7051V9.27441C56.5842 9.27441 59.8449 9.27441 63.7521 9.27441V11.9161H59.7043V22.5672H56.7528V11.9161Z"
            fill="white" />
        <path
            d="M75.9798 22.5956V17.3403H70.0206V22.5956H67.041V9.30273H70.0206V14.6142H75.9798V9.30273H78.9032V22.5956H75.9798Z"
            fill="white" />
        <path
            d="M93.5201 22.5672H83.3726C83.3726 18.1269 83.3726 13.6866 83.3726 9.27441H93.239V12.0004H86.2959V14.5578H92.8454V17.1714H86.2959V19.8412H93.5201V22.5672Z"
            fill="white" />
        <path
            d="M106.619 17.9302L106.422 13.7428V9.27441H109.402V22.5672H106.844L100.238 14.052L100.35 18.4361V22.5672H97.3428V9.27441H99.9007L106.619 17.9302Z"
            fill="white" />
        <path
            d="M46.1556 9.27441H42.9231L36.9639 22.5672H40.1683L41.1241 20.2909L41.7706 18.8014L44.5534 20.2628L47.3362 18.8014L47.9828 20.2909L48.9385 22.5672H52.143L46.1556 9.27441ZM44.5253 17.059L42.8668 16.1878L44.5253 12.2815L46.1838 16.1878L44.5253 17.059Z"
            fill="white" />
        <path
            d="M121.517 9.27441H118.284L112.325 22.5672H115.53L116.485 20.2909L117.132 18.8014L119.915 20.2628L122.698 18.8014L123.344 20.2909L124.3 22.5672H127.504L121.517 9.27441ZM119.887 17.059L118.228 16.1878L119.887 12.2815L121.545 16.1878L119.887 17.059Z"
            fill="white" />
    </g>
    <path
        d="M143.554 19.0068C143.554 19.5089 143.453 19.9734 143.253 20.4003C143.052 20.8146 142.782 21.1787 142.443 21.4925C142.104 21.7938 141.708 22.0324 141.256 22.2081C140.804 22.3714 140.321 22.453 139.806 22.453H133.517V9.08244H139.938C140.403 9.08244 140.823 9.18288 141.2 9.38375C141.577 9.58462 141.897 9.84826 142.16 10.1747C142.424 10.4885 142.625 10.8526 142.763 11.2669C142.914 11.6687 142.989 12.0767 142.989 12.491C142.989 13.1689 142.819 13.7904 142.48 14.3553C142.142 14.9077 141.671 15.322 141.068 15.5982C141.834 15.8242 142.437 16.2448 142.876 16.8599C143.328 17.4751 143.554 18.1907 143.554 19.0068ZM142.236 18.7808C142.236 18.4544 142.179 18.1405 142.066 17.8392C141.953 17.5253 141.79 17.2554 141.577 17.0294C141.376 16.7909 141.131 16.6026 140.842 16.4645C140.566 16.3138 140.265 16.2385 139.938 16.2385H134.816V21.3042H139.806C140.145 21.3042 140.466 21.2352 140.767 21.0971C141.068 20.959 141.325 20.7769 141.539 20.551C141.752 20.3124 141.922 20.0425 142.047 19.7412C142.173 19.4273 142.236 19.1072 142.236 18.7808ZM134.816 10.2312V15.1651H139.411C139.737 15.1651 140.039 15.096 140.315 14.9579C140.604 14.8198 140.848 14.6378 141.049 14.4118C141.263 14.1858 141.426 13.9285 141.539 13.6397C141.652 13.3384 141.708 13.0245 141.708 12.6981C141.708 12.3592 141.652 12.039 141.539 11.7377C141.438 11.4364 141.288 11.179 141.087 10.9656C140.899 10.7396 140.666 10.5639 140.39 10.4383C140.127 10.3002 139.838 10.2312 139.524 10.2312H134.816Z"
        fill="white" />
    <path
        d="M155.078 21.2854V22.453H146.096V9.08244H154.909V10.25H147.395V15.0709H153.948V16.182H147.395V21.2854H155.078Z"
        fill="white" />
    <path
        d="M158.944 11.5306V22.453H157.645V9.08244H158.662L167.513 20.212V9.10127H168.812V22.453H167.682L158.944 11.5306Z"
        fill="white" />
    <path
        d="M181.193 21.2854V22.453H172.21V9.08244H181.023V10.25H173.509V15.0709H180.063V16.182H173.509V21.2854H181.193Z"
        fill="white" />
    <path d="M183.759 22.453V9.08244H192.516V10.25H185.058V15.1651H191.367V16.2573H185.058V22.453H183.759Z"
        fill="white" />
    <path d="M194.775 22.453V9.10127H196.074V22.453H194.775Z" fill="white" />
    <path d="M208.974 10.25H204.21V22.453H202.892V10.25H198.127V9.08244H208.974V10.25Z" fill="white" />
    <path
        d="M218.719 11.5871C218.343 11.1602 217.834 10.815 217.194 10.5513C216.566 10.2877 215.857 10.1558 215.066 10.1558C213.873 10.1558 213.007 10.3818 212.467 10.8338C211.927 11.2732 211.657 11.8758 211.657 12.6416C211.657 13.0434 211.726 13.3761 211.864 13.6397C212.015 13.8908 212.241 14.1105 212.542 14.2988C212.856 14.4871 213.245 14.6503 213.71 14.7884C214.187 14.9265 214.746 15.0646 215.386 15.2027C216.102 15.3534 216.742 15.5229 217.307 15.7112C217.872 15.887 218.355 16.1192 218.757 16.408C219.159 16.6842 219.466 17.0294 219.68 17.4437C219.893 17.8455 220 18.3476 220 18.9503C220 19.5654 219.88 20.099 219.642 20.551C219.403 21.0029 219.071 21.3795 218.644 21.6809C218.217 21.9822 217.709 22.2081 217.119 22.3588C216.528 22.4969 215.888 22.5659 215.198 22.5659C213.101 22.5659 211.312 21.9194 209.831 20.6263L210.471 19.5529C210.961 20.0676 211.62 20.507 212.448 20.8711C213.277 21.2226 214.2 21.3984 215.217 21.3984C216.284 21.3984 217.119 21.2101 217.721 20.8334C218.324 20.4442 218.625 19.8605 218.625 19.0821C218.625 18.6678 218.537 18.3225 218.361 18.0463C218.198 17.7576 217.947 17.5128 217.608 17.3119C217.269 17.0985 216.842 16.9164 216.328 16.7658C215.825 16.6151 215.242 16.4645 214.576 16.3138C213.873 16.1506 213.258 15.9811 212.731 15.8054C212.203 15.6296 211.758 15.4099 211.394 15.1463C211.042 14.8826 210.772 14.5687 210.584 14.2047C210.408 13.828 210.32 13.3698 210.32 12.83C210.32 12.2148 210.433 11.6687 210.659 11.1916C210.898 10.702 211.224 10.3002 211.638 9.98636C212.065 9.65995 212.568 9.41513 213.145 9.25193C213.735 9.07616 214.382 8.98828 215.085 8.98828C215.964 8.98828 216.748 9.12638 217.439 9.40258C218.142 9.66622 218.776 10.0429 219.341 10.5325L218.719 11.5871Z"
        fill="white" />
    <defs>
        <clipPath id="clip0">
            <rect width="127.476" height="31.869" fill="white" />
        </clipPath>
    </defs>
</svg>