<svg width="24" height="24" viewBox="0 0 24 24" fill="none" xmlns="http://www.w3.org/2000/svg">
<path d="M9 20H0C0.2 22 1.6 24 4 24H13.8C11.4 24 9.3 22.1 9 20Z" fill="#FF8300"/>
<path d="M5 3V19H9.5C9.8 19 10 19.2 10 19.5C10 21.3 11.9 23 13.8 23H17C18.2 22.1 19.1 20.8 19.1 19.5V6V5V0H8C6.3 0 5 1.3 5 3ZM16 13H8C7.7 13 7.5 12.8 7.5 12.5C7.5 12.2 7.7 12 8 12H16C16.3 12 16.5 12.2 16.5 12.5C16.5 12.8 16.2 13 16 13ZM16 10H8C7.7 10 7.5 9.8 7.5 9.5C7.5 9.2 7.7 9 8 9H16C16.3 9 16.5 9.2 16.5 9.5C16.5 9.8 16.2 10 16 10ZM16.5 6.5C16.5 6.8 16.2 7 16 7H8C7.7 7 7.5 6.8 7.5 6.5C7.5 6.2 7.7 6 8 6H16C16.2 6 16.5 6.2 16.5 6.5Z" fill="#FF8300"/>
<path d="M20 0V5H23.5C23.8 5 24 4.8 24 4.5C24 2.3 22.6 0 20 0Z" fill="#FF8300"/>
</svg>
