<svg width="32" height="36" viewBox="0 0 32 36" fill="none" xmlns="http://www.w3.org/2000/svg">
<g clip-path="url(#clip0)">
<path d="M22.4068 19.415C22.3397 19.4808 22.2726 19.5466 22.2055 19.5466L15.4969 17.9671C15.3628 17.9671 15.3628 17.8355 15.3628 17.7697C15.3628 17.638 15.4969 17.638 15.564 17.638L22.2726 19.2176C22.3397 19.1517 22.4068 19.2834 22.4068 19.415C22.4068 19.3492 22.4068 19.3492 22.4068 19.415ZM13.4173 17.309C13.3502 17.3748 13.2831 17.4406 13.216 17.4406L6.44032 15.7953C6.30615 15.7953 6.30615 15.6636 6.30615 15.5978C6.30615 15.4662 6.44032 15.4662 6.50741 15.4662L13.216 17.0457C13.3502 17.0457 13.4173 17.1773 13.4173 17.309C13.4173 17.2432 13.4173 17.2432 13.4173 17.309Z" fill="#F86D09"/>
<path d="M27.9079 20.6655C27.8408 20.7313 27.7737 20.7971 27.7067 20.7971L24.4195 20.0074C24.2853 20.0074 24.2853 19.8757 24.2853 19.8099C24.2853 19.6783 24.4194 19.6783 24.4865 19.6783L27.7737 20.468C27.9079 20.468 27.975 20.5339 27.9079 20.6655Z" fill="#F86D09"/>
<path d="M21.5346 25.2724C21.5346 25.3382 21.4675 25.404 21.3333 25.404H0.201258C0.067086 25.404 0 25.3382 0 25.2066C0 25.075 0.067086 25.0092 0.201258 25.0092H21.3333C21.4675 25.0092 21.5346 25.075 21.5346 25.2724C21.5346 25.2066 21.5346 25.2724 21.5346 25.2724Z" fill="#F86D09"/>
<path d="M26.3648 25.2724C26.3648 25.3382 26.2977 25.404 26.1635 25.404H23.9497C23.8155 25.404 23.7484 25.3382 23.7484 25.2066C23.7484 25.075 23.8155 25.0092 23.9497 25.0092H26.1635C26.2977 25.0092 26.3648 25.075 26.3648 25.2724C26.3648 25.2066 26.3648 25.2066 26.3648 25.2724Z" fill="#F86D09"/>
<path d="M23.3457 31.6563C23.3457 31.7221 23.2786 31.7879 23.2116 31.7879L15.1612 34.4205C15.0942 34.4205 14.96 34.4205 14.8929 34.2889C14.8258 34.1572 14.8929 34.0914 15.0271 34.0256L23.0774 31.3931C23.1445 31.3931 23.2786 31.3931 23.3457 31.5247C23.3457 31.5905 23.3457 31.5905 23.3457 31.6563Z" fill="#F86D09"/>
<path d="M13.2159 34.947C13.2159 35.0128 13.1488 35.0786 13.0817 35.0786L10.3312 36C10.2641 36 10.1299 36 10.0628 35.8684C9.99573 35.7367 10.0628 35.6709 10.197 35.6051L12.9475 34.6837C13.0146 34.6837 13.1488 34.6837 13.2159 34.8153C13.2159 34.8812 13.2159 34.8812 13.2159 34.947Z" fill="#F86D09"/>
<path d="M27.0355 30.4717C27.0355 30.5375 26.9684 30.6033 26.9013 30.6033L25.4925 31.064C25.4255 31.064 25.2913 31.064 25.2242 30.9324C25.1571 30.8008 25.2242 30.7349 25.3584 30.6691L26.7672 30.2084C26.8343 30.2084 26.9684 30.2084 27.0355 30.3401C27.0355 30.4059 27.0355 30.4059 27.0355 30.4717Z" fill="#F86D09"/>
<path d="M29.8532 11.4516C29.7861 11.4516 29.7861 11.4516 29.8532 11.4516C29.7191 11.5174 29.652 11.5174 29.5849 11.3858L24.8218 4.47537C24.8218 4.34374 24.8218 4.21211 24.8889 4.21211C24.9559 4.1463 25.0901 4.1463 25.1572 4.27793L29.8532 11.2542C29.9203 11.32 29.8532 11.3858 29.8532 11.4516Z" fill="#F86D09"/>
<path d="M23.9498 2.69835C23.8156 2.76417 23.7485 2.76417 23.6814 2.63254L22.0714 0.263254C22.0043 0.197441 22.0714 0.0658135 22.1385 0C22.2055 0 22.3397 0 22.4068 0.0658135L24.0169 2.4351C24.0169 2.56673 24.0169 2.63254 23.9498 2.69835Z" fill="#F86D09"/>
<path d="M31.933 14.6107C31.7988 14.6765 31.7317 14.6765 31.6646 14.6107L30.8596 13.3602C30.7925 13.2944 30.8596 13.1628 30.9267 13.0969C30.9937 13.0311 31.1279 13.0311 31.195 13.1628L32 14.3474C32 14.479 32 14.5448 31.933 14.6107Z" fill="#F86D09"/>
<path d="M7.78202 5.13341C7.71493 5.19923 7.58076 5.26504 7.51367 5.19923L6.70864 4.73853C6.64155 4.67272 6.64155 4.6069 6.70864 4.47528C6.77573 4.40946 6.9099 4.34365 6.97698 4.40946L7.78202 4.87016C7.8491 4.87016 7.8491 5.00179 7.78202 5.13341Z" fill="#F86D09"/>
<path d="M13.4172 8.16085C13.3501 8.22667 13.216 8.29248 13.1489 8.22667L10.3983 6.71296C10.3313 6.64714 10.2642 6.51552 10.3313 6.4497C10.3983 6.38389 10.5325 6.31808 10.5996 6.38389L13.3501 7.8976C13.4843 7.96341 13.4843 8.09504 13.4172 8.16085Z" fill="#F86D09"/>
<path d="M29.5179 16.9798C29.4508 17.0457 29.3166 17.1115 29.2495 17.0457L16.369 10.0036C16.302 9.93779 16.2349 9.80617 16.302 9.74035C16.369 9.67454 16.5032 9.60873 16.5703 9.67454L29.4508 16.7166C29.5179 16.7824 29.5179 16.8482 29.5179 16.9798Z" fill="#F86D09"/>
</g>
<defs>
<clipPath id="clip0">
<rect width="32" height="36" fill="white"/>
</clipPath>
</defs>
</svg>
