<svg width="33" height="38" viewBox="0 0 33 38" fill="none" xmlns="http://www.w3.org/2000/svg">
<g clip-path="url(#clip0)">
<path d="M1.40481 22.5726C1.40431 22.4935 1.40333 22.3353 1.56151 22.3343L8.89507 18.8087C8.97367 18.7291 9.13234 18.8072 9.21192 18.8858C9.2915 18.9644 9.21339 19.123 9.1348 19.2026L1.72215 22.7288C1.64355 22.8084 1.48488 22.7303 1.40481 22.5726C1.4053 22.6517 1.40481 22.5726 1.40481 22.5726ZM11.1827 17.8453C11.1822 17.7662 11.1813 17.6081 11.3394 17.6071L18.673 14.0814C18.7516 14.0018 18.9103 14.0799 18.9898 14.1585C19.0694 14.2371 18.9913 14.3958 18.9127 14.4754L11.5792 18.001C11.421 18.002 11.2628 18.003 11.1827 17.8453C11.2618 17.8448 11.2618 17.8448 11.1827 17.8453ZM21.0397 13.1176C21.0392 13.0385 21.0383 12.8803 21.1964 12.8793L28.53 9.35362C28.6086 9.27404 28.7673 9.35215 28.8469 9.43074C28.9264 9.50934 28.8483 9.66801 28.7697 9.74759L21.4362 13.2733C21.1989 13.2747 21.0407 13.2757 21.0397 13.1176Z" fill="#F86D09"/>
<path d="M4.20122 14.4088C4.20073 14.3297 4.12115 14.2511 4.19975 14.1715L9.12816 5.44075C9.20676 5.36117 9.36444 5.28109 9.44402 5.35969C9.5236 5.43829 9.5241 5.51738 9.52508 5.67555L4.59667 14.4063C4.51807 14.4859 4.36039 14.566 4.28081 14.4874C4.20172 14.4879 4.20122 14.4088 4.20122 14.4088Z" fill="#F86D09"/>
<path d="M10.3814 3.45565C10.3809 3.37656 10.3013 3.29797 10.3799 3.21839L12.1012 0.202193C12.1007 0.123105 12.2588 0.12212 12.3379 0.121628C12.4175 0.200224 12.4976 0.357908 12.419 0.437489L10.6977 3.45368C10.6191 3.53326 10.4615 3.61334 10.3819 3.53474C10.3819 3.53474 10.3819 3.53474 10.3814 3.45565Z" fill="#F86D09"/>
<path d="M1.9323 18.3775C1.93181 18.2984 1.85223 18.2198 1.93082 18.1402L2.79144 16.6321C2.87004 16.5525 3.02772 16.4724 3.1073 16.551C3.18688 16.6296 3.26696 16.7873 3.18836 16.8669L2.32774 18.375C2.24914 18.4546 2.09146 18.5346 2.01188 18.4561L1.9323 18.3775Z" fill="#F86D09"/>
<path d="M4.55025 32.3603C4.62835 32.2017 4.70695 32.1221 4.86562 32.2002L14.4545 35.2251C14.6127 35.2241 14.6137 35.3823 14.6147 35.5404C14.6152 35.6195 14.4575 35.6996 14.2993 35.7006L4.7099 32.5966C4.55173 32.5976 4.55074 32.4394 4.55025 32.3603Z" fill="#F86D09"/>
<path d="M16.5167 36.1613C16.5948 36.0026 16.6734 35.9231 16.832 36.0012L20.0811 37.0091C20.2393 37.0081 20.2402 37.1663 20.2412 37.3245C20.2422 37.4827 20.084 37.4837 19.9259 37.4846L16.6768 36.4767C16.5182 36.3986 16.5177 36.3195 16.5167 36.1613Z" fill="#F86D09"/>
<path d="M0.191485 30.9639C0.269589 30.8052 0.348185 30.7256 0.506855 30.8037L2.17116 31.347C2.25025 31.3465 2.33032 31.5042 2.33131 31.6624C2.33229 31.8205 2.17411 31.8215 2.01594 31.8225L0.351632 31.2792C0.272051 31.2006 0.19247 31.122 0.191485 30.9639Z" fill="#F86D09"/>
<path d="M30.5203 24.1314C30.5193 23.9732 30.5979 23.8937 30.7561 23.8927L31.7837 23.8072C31.9419 23.8062 32.0215 23.8848 32.0225 24.043C32.0235 24.2012 31.9449 24.2807 31.7867 24.2817L30.759 24.3672C30.6004 24.2891 30.5208 24.2105 30.5203 24.1314Z" fill="#F86D09"/>
<path d="M22.9307 24.6531C22.9297 24.4949 23.0083 24.4154 23.1665 24.4144L26.8822 24.154C27.0403 24.153 27.1199 24.2316 27.1209 24.3898C27.1219 24.5479 27.0433 24.6275 26.8851 24.6285L23.1694 24.8889C23.0113 24.8899 22.9317 24.8113 22.9307 24.6531Z" fill="#F86D09"/>
<path d="M1.34944 26.3693C1.34846 26.2111 1.42705 26.1316 1.58523 26.1306L18.8977 24.7573C19.0559 24.7564 19.1355 24.8349 19.1365 24.9931C19.1375 25.1513 19.0589 25.2309 18.9007 25.2319L1.58819 26.6051C1.43001 26.6061 1.35043 26.5275 1.34944 26.3693Z" fill="#F86D09"/>
</g>
<defs>
<clipPath id="clip0">
<rect width="31.8733" height="37.4096" fill="white" transform="translate(0 0.198425) rotate(-0.356682)"/>
</clipPath>
</defs>
</svg>
