<svg width="24" height="24" viewBox="0 0 24 24" fill="none" xmlns="http://www.w3.org/2000/svg">
<path d="M12 24C18.6274 24 24 18.6274 24 12C24 5.37258 18.6274 0 12 0C5.37258 0 0 5.37258 0 12C0 18.6274 5.37258 24 12 24Z" fill="#F0F0F0"/>
<path d="M2.47971 4.69223C1.53752 5.92036 0.825021 7.33129 0.412521 8.86879H6.65627L2.47971 4.69223Z" fill="#0052B4"/>
<path d="M23.5875 8.86879C23.175 7.33129 22.4625 5.92036 21.5203 4.69223L17.3438 8.86879H23.5875Z" fill="#0052B4"/>
<path d="M0.412521 15.1313C0.825021 16.6688 1.53752 18.0797 2.47971 19.3079L6.65627 15.1313H0.412521Z" fill="#0052B4"/>
<path d="M19.3078 2.47972C18.0797 1.53754 16.6688 0.825037 15.1313 0.412537V6.65629L19.3078 2.47972Z" fill="#0052B4"/>
<path d="M4.6922 21.5203C5.92032 22.4625 7.33126 23.175 8.86876 23.5875V17.3438L4.6922 21.5203Z" fill="#0052B4"/>
<path d="M8.86876 0.412537C7.33126 0.825037 5.92032 1.53754 4.6922 2.47972L8.86876 6.65629V0.412537Z" fill="#0052B4"/>
<path d="M15.1313 23.5875C16.6688 23.175 18.0797 22.4625 19.3078 21.5203L15.1313 17.3438V23.5875Z" fill="#0052B4"/>
<path d="M17.3438 15.1313L21.5203 19.3079C22.4625 18.0797 23.175 16.6688 23.5875 15.1313H17.3438Z" fill="#0052B4"/>
<path d="M23.8969 10.4344H13.5656V0.103125C13.0547 0.0328125 12.5297 0 12 0C11.4703 0 10.9453 0.0328125 10.4344 0.103125V10.4344H0.103125C0.0328125 10.9453 0 11.4703 0 12C0 12.5297 0.0328125 13.0547 0.103125 13.5656H10.4344V23.8969C10.9453 23.9625 11.4703 24 12 24C12.5297 24 13.0547 23.9672 13.5656 23.8969V13.5656H23.8969C23.9625 13.0547 24 12.5297 24 12C24 11.4703 23.9672 10.9453 23.8969 10.4344Z" fill="#D80027"/>
<path d="M15.1312 15.1313L20.4843 20.4844C20.7328 20.236 20.9672 19.9829 21.1875 19.7157L16.6031 15.1313H15.1312Z" fill="#D80027"/>
<path d="M8.86875 15.1313L3.51562 20.4844C3.76406 20.7328 4.01719 20.9672 4.28438 21.1875L8.86875 16.6032V15.1313Z" fill="#D80027"/>
<path d="M8.86875 8.86875L3.51562 3.51562C3.26719 3.76406 3.03281 4.01719 2.8125 4.28438L7.39688 8.86875H8.86875Z" fill="#D80027"/>
<path d="M15.1312 8.86875L20.4843 3.51562C20.2359 3.26719 19.9828 3.03281 19.7156 2.8125L15.1312 7.39688V8.86875Z" fill="#D80027"/>
</svg>
