<svg width="80" height="80" viewBox="0 0 80 80" fill="none" xmlns="http://www.w3.org/2000/svg">
<path d="M18.333 61.6667C23.6663 55.6667 31.333 52 39.6663 52C48.333 52 55.9997 56 61.333 62" stroke="#AEAEAE" stroke-width="2" stroke-miterlimit="10" stroke-linecap="round" stroke-linejoin="round"/>
<path d="M39.9998 78.3337C61.1708 78.3337 78.3332 61.1712 78.3332 40.0003C78.3332 18.8294 61.1708 1.66699 39.9998 1.66699C18.8289 1.66699 1.6665 18.8294 1.6665 40.0003C1.6665 61.1712 18.8289 78.3337 39.9998 78.3337Z" stroke="#AEAEAE" stroke-width="2" stroke-miterlimit="10" stroke-linecap="round" stroke-linejoin="round"/>
<path d="M18.333 25C18.333 29.6667 21.9997 33.3333 26.6663 33.3333C31.333 33.3333 34.9997 29.6667 34.9997 25" stroke="#AEAEAE" stroke-width="2" stroke-miterlimit="10" stroke-linecap="round" stroke-linejoin="round"/>
<path d="M45 25C45 29.6667 48.6667 33.3333 53.3333 33.3333C58 33.3333 61.6667 29.6667 61.6667 25" stroke="#AEAEAE" stroke-width="2" stroke-miterlimit="10" stroke-linecap="round" stroke-linejoin="round"/>
</svg>
