<svg width="48" height="48" viewBox="0 0 48 48" fill="none" xmlns="http://www.w3.org/2000/svg">
<g filter="url(#filter0_d)">
<rect x="4" width="40" height="40" rx="4" fill="#3E8CE8"/>
<path d="M27.9666 26.8833C27.6166 26.5333 27.2666 26.4167 26.6833 26.4167C25.4 26.4167 24.35 27.4667 24.35 28.75C24.35 30.0333 25.4 31.0833 26.6833 31.0833C27.2666 31.0833 27.7333 30.85 28.0833 30.6167" stroke="white" stroke-miterlimit="10" stroke-linecap="round" stroke-linejoin="round"/>
<path d="M31.9333 30.6167C32.2833 30.9667 32.8666 31.0833 33.3333 31.0833C34.6166 31.0833 35.6666 30.0333 35.6666 28.75C35.6666 27.4667 34.6166 26.4167 33.3333 26.4167C32.7499 26.4167 32.0499 26.65 31.6999 26.8833" stroke="white" stroke-miterlimit="10" stroke-linecap="round" stroke-linejoin="round"/>
<path d="M28.0833 28.75H32.75" stroke="white" stroke-miterlimit="10" stroke-linecap="round" stroke-linejoin="round"/>
<path d="M24.5833 33.4167H13.5V13.1167L18.9833 6.58333H33.3333V23.5" stroke="white" stroke-miterlimit="10" stroke-linecap="round" stroke-linejoin="round"/>
<path d="M14.0833 13.5833H19.3333V7.16667" stroke="white" stroke-miterlimit="10" stroke-linecap="round" stroke-linejoin="round"/>
</g>
<defs>
<filter id="filter0_d" x="0" y="0" width="48" height="48" filterUnits="userSpaceOnUse" color-interpolation-filters="sRGB">
<feFlood flood-opacity="0" result="BackgroundImageFix"/>
<feColorMatrix in="SourceAlpha" type="matrix" values="0 0 0 0 0 0 0 0 0 0 0 0 0 0 0 0 0 0 127 0"/>
<feOffset dy="4"/>
<feGaussianBlur stdDeviation="2"/>
<feColorMatrix type="matrix" values="0 0 0 0 0 0 0 0 0 0 0 0 0 0 0 0 0 0 0.25 0"/>
<feBlend mode="normal" in2="BackgroundImageFix" result="effect1_dropShadow"/>
<feBlend mode="normal" in="SourceGraphic" in2="effect1_dropShadow" result="shape"/>
</filter>
</defs>
</svg>
