<svg width="28" height="28" viewBox="0 0 28 28" fill="none" xmlns="http://www.w3.org/2000/svg">
<g clip-path="url(#clip0)">
<path d="M1.16669 9.77257V4.03487C1.16669 2.457 2.45767 1.16602 4.03554 1.16602H9.77324" stroke="#00AEA0" stroke-width="1.5" stroke-miterlimit="10" stroke-linecap="round" stroke-linejoin="round"/>
<path d="M27.4167 9.77257V4.03487C27.4167 2.457 26.1258 1.16602 24.5479 1.16602H18.8102" stroke="#00AEA0" stroke-width="1.5" stroke-miterlimit="10" stroke-linecap="round" stroke-linejoin="round"/>
<path d="M27.4167 18.666V24.4037C27.4167 25.9816 26.1258 27.2726 24.5479 27.2726H18.8102" stroke="#00AEA0" stroke-width="1.5" stroke-miterlimit="10" stroke-linecap="round" stroke-linejoin="round"/>
<path d="M1.16669 18.666V24.4037C1.16669 25.9816 2.45767 27.2726 4.03554 27.2726H9.77324" stroke="#00AEA0" stroke-width="1.5" stroke-miterlimit="10" stroke-linecap="round" stroke-linejoin="round"/>
<path d="M19.6707 4.32227C21.8224 5.75669 23.1133 8.05177 23.4002 10.6337C23.6871 13.646 22.683 16.9452 20.3879 19.5272" stroke="#00AEA0" stroke-width="1.5" stroke-miterlimit="10" stroke-linecap="round" stroke-linejoin="round"/>
<path d="M7.62158 8.33907C10.7773 4.753 15.224 3.89235 18.3798 6.18743C19.9576 7.33497 20.9617 8.91284 21.1052 10.921C21.3921 13.3596 20.5314 15.9415 18.5232 18.0932C16.0847 20.8186 14.6503 22.253 11.9249 24.1178" stroke="#00AEA0" stroke-width="1.5" stroke-miterlimit="10" stroke-linecap="round" stroke-linejoin="round"/>
<path d="M18.9535 11.207C19.097 13.0718 18.3798 14.9365 16.9453 16.6579C15.3675 18.3792 14.3634 19.5267 12.929 20.6742" stroke="#00AEA0" stroke-width="1.5" stroke-miterlimit="10" stroke-linecap="round" stroke-linejoin="round"/>
<path d="M5.18304 13.7899C6.76091 12.6424 7.76501 11.6383 9.34288 9.91695C11.7814 7.19154 14.7937 6.47433 17.0888 8.0522" stroke="#00AEA0" stroke-width="1.5" stroke-miterlimit="10" stroke-linecap="round" stroke-linejoin="round"/>
<path d="M5.18304 16.5149C7.76501 14.6501 8.91255 13.646 11.0642 11.2075C12.4986 9.62961 14.5068 8.76895 15.7978 9.77305C17.2322 10.7771 16.9453 13.0722 15.224 14.937C12.7855 17.6624 11.4945 18.9534 8.48223 20.9616" stroke="#00AEA0" stroke-width="1.5" stroke-miterlimit="10" stroke-linecap="round" stroke-linejoin="round"/>
<path d="M14.0764 12.3555C11.4944 15.5112 10.06 16.8022 6.7608 19.0973" stroke="#00AEA0" stroke-width="1.5" stroke-miterlimit="10" stroke-linecap="round" stroke-linejoin="round"/>
</g>
<defs>
<clipPath id="clip0">
<rect width="28" height="28" fill="white"/>
</clipPath>
</defs>
</svg>
