<svg width="147" height="143" viewBox="0 0 147 143" fill="none" xmlns="http://www.w3.org/2000/svg">
<path d="M50.5965 47.6617L57.3749 46.4015C49.9483 47.7589 43.1057 51.4608 37.6903 57.1608C36.606 58.2734 35.298 58.9836 33.9003 59.2169L27.1219 60.477C28.5181 60.2095 29.8276 59.5335 30.9119 58.421C36.3273 52.7209 43.1699 49.0191 50.5965 47.6617Z" fill="#AEE1F2"/>
<path d="M45.9182 20.1448L52.6966 18.8846C40.5017 21.1389 29.3343 27.2295 20.4397 36.5864C19.3569 37.7333 18.0474 38.4092 16.6512 38.6767L9.87281 39.9369C11.269 39.6694 12.6128 38.9919 13.6613 37.8466C22.5201 28.4569 33.7218 22.3648 45.9182 20.1448Z" fill="#AEE1F2"/>
<path d="M54.5835 60.1934L61.3619 58.9333C62.3498 58.7524 63.3423 58.6743 64.372 58.6634L57.5936 59.9235C56.5296 59.936 55.5372 60.014 54.5835 60.1934Z" fill="#AEE1F2"/>
<path d="M47.7671 32.4994L54.5455 31.2392C57.6106 30.6578 60.7921 30.3803 63.9872 30.4115L57.2088 31.6716C54.0137 31.6405 50.8665 31.9164 47.7671 32.4994Z" fill="#AEE1F2"/>
<path d="M43.0869 4.98606L49.8652 3.7259C54.3623 2.90965 58.9803 2.50028 63.6522 2.53509L56.8739 3.79525C52.1662 3.72767 47.5824 4.13553 43.0869 4.98606Z" fill="#AEE1F2"/>
<path d="M57.5602 59.9583C66.8012 60.0324 74.4326 68.0092 74.5542 77.7936C74.6758 87.5781 67.2617 95.4614 58.0208 95.3873C48.7798 95.3131 41.1484 87.3363 41.0268 77.5519C40.9036 67.7332 48.3192 59.8841 57.5602 59.9583Z" fill="#0857DE"/>
<path d="M67.8094 93.8569L61.031 95.1171C68.8316 93.6745 74.6619 86.4792 74.5543 77.7934C74.4327 68.0089 66.8356 60.0306 57.5603 59.958L64.3387 58.6978C73.5797 58.772 81.2111 66.7488 81.3327 76.5332C81.4403 85.219 75.61 92.4144 67.8094 93.8569Z" fill="#AEE1F2"/>
<path d="M97.8149 60.1122L91.0365 61.3724C92.4327 61.1048 93.7422 60.4289 94.825 59.282C97.6473 56.3067 97.6044 51.4309 94.7579 48.396C84.6721 37.7105 71.361 31.7699 57.241 31.6357L64.0194 30.3756C78.1379 30.4755 91.4848 36.4488 101.536 47.1358C104.417 50.1692 104.426 55.0466 101.603 58.0218C100.521 59.1687 99.2126 59.8789 97.8149 60.1122Z" fill="#AEE1F2"/>
<path d="M57.2077 31.6696C71.3262 31.7695 84.6731 37.7429 94.7246 48.4299C97.6054 51.4633 97.6141 56.3406 94.7917 59.3159C93.3798 60.7864 91.5576 61.5193 89.7023 61.4979C87.8126 61.478 85.9241 60.7024 84.4837 59.1857C77.2071 51.468 67.5733 47.1518 57.3711 47.0856C47.3403 47.0119 37.9362 51.0326 30.8795 58.4536C29.4676 59.9241 27.6454 60.657 25.7901 60.6356C23.9004 60.6157 22.0119 59.8401 20.5715 58.3234C17.6907 55.29 17.6821 50.4127 20.5044 47.4374C30.2851 37.1484 43.2948 31.5607 57.2077 31.6696Z" fill="#0857DE"/>
<path d="M114.538 39.7941L107.76 41.0543C109.156 40.7868 110.5 40.1093 111.548 38.9639C114.37 35.9887 114.328 31.1128 111.447 28.0794C96.7862 12.5459 77.3816 3.91938 56.8386 3.75877L63.617 2.49861C84.16 2.65922 103.565 11.2857 118.225 26.8193C121.106 29.8527 121.149 34.7285 118.326 37.7038C117.278 38.8491 115.936 39.5609 114.538 39.7941Z" fill="#AEE1F2"/>
<path d="M56.8375 3.75759C77.3805 3.91821 96.7851 12.5447 111.446 28.0783C114.326 31.1117 114.369 35.9875 111.547 38.9628C110.135 40.4333 108.313 41.1661 106.458 41.1448C104.568 41.1249 102.714 40.3477 101.273 38.831C89.3876 26.2668 73.6946 19.2632 57.068 19.1363C40.6127 19.0018 25.2103 25.6224 13.693 37.8083C12.2811 39.2788 10.4589 40.0117 8.60357 39.9903C6.71394 39.9704 4.85966 39.1933 3.38499 37.6781C0.504189 34.6447 0.461277 29.7689 3.28364 26.7936C17.4937 11.8098 36.536 3.6207 56.8375 3.75759Z" fill="#0857DE"/>
<path d="M100.759 81.5609L76.8949 124.118C73.7044 129.781 77.8309 136.685 84.2518 136.668C97.8954 136.642 118.328 136.563 132.485 136.515C139.491 136.483 143.764 128.739 140.049 122.825L114.135 81.2891C110.991 76.2343 103.603 76.4463 100.759 81.5609Z" fill="#FF8300"/>
<path opacity="0.5" d="M101.468 84.6918C101.468 84.6918 101.554 84.5545 101.655 84.2728C101.742 84.1356 101.829 83.9983 101.922 83.7888C102.088 83.5865 102.255 83.3842 102.428 83.1097C102.666 82.9146 102.904 82.7195 103.15 82.4522C103.46 82.2643 103.785 81.932 104.168 81.7513C104.941 81.3177 105.923 80.9779 107.1 80.8763C108.277 80.7748 109.57 80.9766 110.892 81.619C111.514 81.9727 112.128 82.3986 112.727 82.969C112.857 83.1279 112.995 83.2145 113.125 83.3733C113.255 83.5322 113.385 83.6911 113.515 83.8499C113.775 84.1676 113.963 84.4781 114.216 84.8681C115.914 87.5904 117.937 90.7099 120.076 94.1327C124.427 100.986 129.522 109.153 135.252 118.258C135.939 119.421 136.705 120.519 137.391 121.681C138.143 122.923 138.584 124.353 138.649 125.892C138.788 128.896 137.171 131.945 134.456 133.571C133.134 134.387 131.56 134.814 129.956 134.8C128.497 134.801 126.966 134.794 125.507 134.794C122.517 134.788 119.447 134.847 116.385 134.834C110.181 134.872 104.128 134.852 98.3645 134.861C95.4465 134.862 92.6008 134.871 89.7551 134.879C89.0256 134.879 88.3684 134.886 87.6389 134.887L86.6205 134.858L85.537 134.75C84.0997 134.534 82.6983 133.957 81.5496 133.04C79.3244 131.213 78.1533 128.324 78.5713 125.594C78.6073 125.233 78.6361 124.944 78.7443 124.59C78.8525 124.236 78.9535 123.955 79.0546 123.673L79.5093 122.77C79.6825 122.495 79.7836 122.214 79.9568 121.939C80.5776 120.834 81.1912 119.801 81.7325 118.76C84.1146 114.621 86.2512 110.749 88.2796 107.231C92.2641 100.188 95.5268 94.5311 97.8151 90.6012C98.9556 88.6723 99.8362 87.1553 100.45 86.1222C101.056 85.1614 101.395 84.6846 101.468 84.6918C101.468 84.6918 101.266 85.2552 100.645 86.3605C100.104 87.4008 99.2157 88.99 98.2196 90.9333C96.0686 94.9498 92.9432 100.693 88.9587 107.736C87.0025 111.262 84.8659 115.134 82.5489 119.352C81.9353 120.386 81.3939 121.426 80.7732 122.531C80.5999 122.806 80.4989 123.087 80.3257 123.362L79.9576 124.128C79.8565 124.409 79.7555 124.691 79.7267 124.98C79.6257 125.262 79.5969 125.551 79.5681 125.839C79.2583 128.216 80.2487 130.722 82.2066 132.303C83.153 133.054 84.4099 133.617 85.6378 133.739L86.5768 133.833L87.5952 133.861C88.3247 133.861 88.9819 133.853 89.7114 133.853C92.4849 133.838 95.4029 133.837 98.3208 133.836C104.157 133.834 110.217 133.781 116.349 133.736C119.411 133.749 122.481 133.69 125.471 133.697C127.002 133.703 128.461 133.703 129.92 133.702C131.307 133.695 132.657 133.319 133.82 132.632C136.145 131.259 137.581 128.557 137.479 125.921C137.464 124.606 137.081 123.328 136.387 122.238C135.701 121.075 134.942 119.905 134.248 118.815C128.59 109.716 123.575 101.484 119.304 94.5664C117.165 91.1435 115.293 87.9662 113.595 85.2439C113.407 84.9333 113.154 84.5434 112.966 84.2329C112.836 84.074 112.778 83.9224 112.648 83.7635C112.518 83.6047 112.381 83.518 112.251 83.3592C111.795 82.8032 111.174 82.4495 110.625 82.103C109.448 81.475 108.227 81.2804 107.129 81.3169C106.031 81.3534 105.056 81.621 104.284 82.0546C103.901 82.2353 103.583 82.4954 103.273 82.6833C103.027 82.9506 102.717 83.1385 102.551 83.3408C102.385 83.5431 102.146 83.7382 102.052 83.9477C101.886 84.15 101.8 84.2872 101.713 84.4245C101.554 84.5545 101.468 84.6918 101.468 84.6918Z" fill="#FFF176"/>
<path opacity="0.8" d="M103.559 95.1885L104.685 113.172C104.758 114.639 105.95 115.852 107.402 115.923C108.926 116.002 110.276 114.897 110.506 113.315L112.53 95.2071C112.667 93.8347 111.619 92.6361 110.232 92.6438L105.848 92.7175C104.461 92.7252 103.472 93.8667 103.559 95.1885Z" fill="white"/>
<path opacity="0.8" d="M111.86 125.34C111.117 127.673 108.589 128.88 106.328 128.144C103.995 127.401 102.788 124.874 103.524 122.613C104.267 120.28 106.795 119.073 109.056 119.809C111.389 120.552 112.675 123.014 111.86 125.34Z" fill="white"/>
</svg>
