<svg width="24" height="24" viewBox="0 0 24 24" fill="none" xmlns="http://www.w3.org/2000/svg">
<g clip-path="url(#clip0)">
<path d="M20.2 11C20.2 6.3 16.4 2.5 11.7 2.5C7 2.5 3.2 6.3 3.2 11C3.2 14.9 2.7 16 1.5 16.4C0.800002 16.6 0.400002 17.3 0.400002 18C0.400002 19.2 0.400002 20.5 0.400002 20.5H11.6H23.4C23.4 20.5 23.4 19.2 23.4 18C23.4 17.3 22.8 16.6 22.1 16.4C21 16 20.2 14.9 20.2 11Z" stroke-miterlimit="10" stroke-linecap="round" stroke-linejoin="round"/>
<path d="M14.7 20.5C14.7 22.2 13.4 23.5 11.7 23.5C10 23.5 8.7 22.2 8.7 20.5" stroke-miterlimit="10" stroke-linecap="round" stroke-linejoin="round"/>
<path d="M9.7 2.7C9.7 2.6 9.7 2.5 9.7 2.5C9.7 1.4 10.6 0.5 11.7 0.5C12.8 0.5 13.7 1.4 13.7 2.5C13.7 2.6 13.7 2.7 13.7 2.7" stroke-miterlimit="10" stroke-linecap="round" stroke-linejoin="round"/>
</g>
<defs>
<clipPath id="clip0">
<rect width="24" height="24" fill="white"/>
</clipPath>
</defs>
</svg>
