<svg width="40" height="40" viewBox="0 0 40 40" fill="none" xmlns="http://www.w3.org/2000/svg">
<circle cx="20" cy="20" r="20" fill="#EB5757" fill-opacity="0.2"/>
<path d="M22.9891 22.5769C22.9891 23.5194 22.1522 24.3441 21.0761 24.3441H18.9239C17.8478 24.3441 17.0109 23.5194 17.0109 22.5769V19.0426C17.0109 18.1001 17.8478 17.2754 18.9239 17.2754H21.0761C22.1522 17.2754 22.9891 18.1001 22.9891 19.0426V22.5769Z" stroke="#EB5757" stroke-miterlimit="10" stroke-linecap="round" stroke-linejoin="round"/>
<path d="M17.0109 22.93C17.0109 23.8725 10.5543 26.3466 8.16304 26.8178C7.08696 26.9356 6.25 26.1109 6.25 25.1685V16.686C6.25 15.7435 7.08696 14.801 8.16304 15.0366C10.5543 15.3901 17.0109 17.9819 17.0109 18.9244V22.93Z" stroke="#EB5757" stroke-miterlimit="10" stroke-linecap="round" stroke-linejoin="round"/>
<path d="M16.413 20.8096H14.0217" stroke="#EB5757" stroke-miterlimit="10" stroke-linecap="round" stroke-linejoin="round"/>
<path d="M22.9891 22.93C22.9891 23.8725 29.4457 26.3466 31.837 26.8178C32.913 26.9356 33.75 26.1109 33.75 25.1685V16.686C33.75 15.7435 32.913 14.801 31.837 15.0366C29.4457 15.3901 22.9891 17.9819 22.9891 18.9244V22.93V22.93Z" stroke="#EB5757" stroke-miterlimit="10" stroke-linecap="round" stroke-linejoin="round"/>
<path d="M23.5869 20.8096H25.9782" stroke="#EB5757" stroke-miterlimit="10" stroke-linecap="round" stroke-linejoin="round"/>
</svg>
