<svg width="48" height="48" viewBox="0 0 48 48" fill="none" xmlns="http://www.w3.org/2000/svg">
<path d="M24.0001 26.6667C28.0502 26.6667 31.3334 23.3834 31.3334 19.3333C31.3334 15.2832 28.0502 12 24.0001 12C19.95 12 16.6667 15.2832 16.6667 19.3333C16.6667 23.3834 19.95 26.6667 24.0001 26.6667Z" stroke="#00AEA0" stroke-width="1.2" stroke-miterlimit="10" stroke-linecap="round" stroke-linejoin="round"/>
<path d="M24 23.333C26.2091 23.333 28 21.5421 28 19.333C28 17.1239 26.2091 15.333 24 15.333C21.7909 15.333 20 17.1239 20 19.333C20 21.5421 21.7909 23.333 24 23.333Z" stroke="#00AEA0" stroke-width="1.2" stroke-miterlimit="10" stroke-linecap="round" stroke-linejoin="round"/>
<path d="M16.6667 21.7334L9.33337 34.0001L16.6667 31.6001L21.6 36.4001L24 26.6667" stroke="#00AEA0" stroke-width="1.2" stroke-miterlimit="10" stroke-linecap="round" stroke-linejoin="round"/>
<path d="M31.3333 21.7334L38.6667 34.0001L31.3333 31.6001L26.4 36.4001L24 26.6667" stroke="#00AEA0" stroke-width="1.2" stroke-miterlimit="10" stroke-linecap="round" stroke-linejoin="round"/>
<circle cx="24" cy="24" r="23.625" stroke="#00AEA0" stroke-width="0.75"/>
</svg>
