<svg width="48" height="48" viewBox="0 0 48 48" fill="none" xmlns="http://www.w3.org/2000/svg">
<path d="M24 2C36.2 2 46 11.8 46 24C46 36.2 36.2 46 24 46C11.8 46 2 36.2 2 24C2 11.8 11.8 2 24 2ZM24 0C10.8 0 0 10.8 0 24C0 37.2 10.8 48 24 48C37.2 48 48 37.2 48 24C48 10.8 37.2 0 24 0Z" fill="#EE4035"/>
<path fill-rule="evenodd" clip-rule="evenodd" d="M33.7071 14.2929C34.0976 14.6834 34.0976 15.3166 33.7071 15.7071L15.7071 33.7071C15.3166 34.0976 14.6834 34.0976 14.2929 33.7071C13.9024 33.3166 13.9024 32.6834 14.2929 32.2929L32.2929 14.2929C32.6834 13.9024 33.3166 13.9024 33.7071 14.2929Z" fill="#EE4035"/>
<path fill-rule="evenodd" clip-rule="evenodd" d="M14.2929 14.2929C14.6834 13.9024 15.3166 13.9024 15.7071 14.2929L33.7071 32.2929C34.0976 32.6834 34.0976 33.3166 33.7071 33.7071C33.3166 34.0976 32.6834 34.0976 32.2929 33.7071L14.2929 15.7071C13.9024 15.3166 13.9024 14.6834 14.2929 14.2929Z" fill="#EE4035"/>
</svg>
