<svg width="24" height="24" viewBox="0 0 24 24" fill="none" xmlns="http://www.w3.org/2000/svg">
<path d="M20.8256 10.2313H2.99084V23.1711H20.8256V10.2313Z" stroke-miterlimit="10" stroke-linecap="round" stroke-linejoin="round"/>
<path d="M21.8164 6.24976H2V10.2312H21.8164V6.24976Z" stroke-miterlimit="10" stroke-linecap="round" stroke-linejoin="round"/>
<path d="M11.9082 6.7475V22.6734" stroke-miterlimit="10" stroke-linecap="round" stroke-linejoin="round"/>
<path d="M11.6112 5.65255C10.3232 3.86088 7.74703 1.7706 5.66631 1.7706C3.58559 1.7706 2.69385 2.76597 2.69385 3.76134C2.69385 4.75671 3.68467 6.24977 5.46815 6.24977" stroke-miterlimit="10" stroke-linecap="round" stroke-linejoin="round"/>
<path d="M11.6111 5.65255C12.8992 3.86088 15.4753 1.7706 17.5561 1.7706C19.7359 1.7706 20.5285 2.76597 20.5285 3.76134C20.5285 4.75671 19.5377 6.24977 17.7542 6.24977" stroke-miterlimit="10" stroke-linecap="round" stroke-linejoin="round"/>
<path d="M11.611 5.15494C11.611 4.06003 10.2238 1.96976 9.03485 0.874847" stroke-miterlimit="10" stroke-linecap="round" stroke-linejoin="round"/>
<path d="M11.6111 5.15494C11.6111 4.06003 12.9983 1.96976 14.1873 0.874847" stroke-miterlimit="10" stroke-linecap="round" stroke-linejoin="round"/>
</svg>
