<svg width="40" height="40" viewBox="0 0 40 40" fill="none" xmlns="http://www.w3.org/2000/svg">
<path d="M9.33335 11.667H8.33334V28.3337H9.33335V11.667Z" fill="#D40511"/>
<path d="M13.1667 11.667H11.1667V28.3337H13.1667V11.667Z" fill="#D40511"/>
<path d="M15.1667 11.667H14.1667V28.3337H15.1667V11.667Z" fill="#D40511"/>
<path d="M17.1667 11.667H16.1667V28.3337H17.1667V11.667Z" fill="#D40511"/>
<path d="M19 11.667H18V28.3337H19V11.667Z" fill="#D40511"/>
<path d="M22 11.667H20V28.3337H22V11.667Z" fill="#D40511"/>
<path d="M24.8334 11.667H22.8334V28.3337H24.8334V11.667Z" fill="#D40511"/>
<path d="M27.8333 11.667H26.8333V28.3337H27.8333V11.667Z" fill="#D40511"/>
<path d="M29.6667 11.667H28.6667V28.3337H29.6667V11.667Z" fill="#D40511"/>
<path d="M31.6667 11.667H30.6667V28.3337H31.6667V11.667Z" fill="#D40511"/>
<path fill-rule="evenodd" clip-rule="evenodd" d="M7.037 4.41667C5.59828 4.41667 4.41664 5.59831 4.41664 7.03704V14.4444C4.41664 15.0428 3.93161 15.5278 3.3333 15.5278C2.73499 15.5278 2.24997 15.0428 2.24997 14.4444V7.03704C2.24997 4.40169 4.40166 2.25 7.037 2.25H14.4444C15.0427 2.25 15.5277 2.73502 15.5277 3.33333C15.5277 3.93164 15.0427 4.41667 14.4444 4.41667H7.037Z" fill="black" fill-opacity="0.9"/>
<path fill-rule="evenodd" clip-rule="evenodd" d="M24.4722 3.33333C24.4722 2.73502 24.9572 2.25 25.5555 2.25H32.9629C35.5983 2.25 37.7499 4.40169 37.7499 7.03704V14.4444C37.7499 15.0428 37.2649 15.5278 36.6666 15.5278C36.0683 15.5278 35.5833 15.0428 35.5833 14.4444V7.03704C35.5833 5.59831 34.4016 4.41667 32.9629 4.41667H25.5555C24.9572 4.41667 24.4722 3.93164 24.4722 3.33333Z" fill="black" fill-opacity="0.9"/>
<path fill-rule="evenodd" clip-rule="evenodd" d="M36.6666 24.4727C37.2649 24.4727 37.7499 24.9577 37.7499 25.556V32.9634C37.7499 35.5987 35.5983 37.7504 32.9629 37.7504H25.5555C24.9572 37.7504 24.4722 37.2654 24.4722 36.6671C24.4722 36.0688 24.9572 35.5838 25.5555 35.5838H32.9629C34.4016 35.5838 35.5833 34.4021 35.5833 32.9634V25.556C35.5833 24.9577 36.0683 24.4727 36.6666 24.4727Z" fill="black" fill-opacity="0.9"/>
<path fill-rule="evenodd" clip-rule="evenodd" d="M3.3333 24.4727C3.93161 24.4727 4.41664 24.9577 4.41664 25.556V32.9634C4.41664 34.4021 5.59828 35.5838 7.037 35.5838H14.4444C15.0427 35.5838 15.5277 36.0688 15.5277 36.6671C15.5277 37.2654 15.0427 37.7504 14.4444 37.7504H7.037C4.40166 37.7504 2.24997 35.5987 2.24997 32.9634V25.556C2.24997 24.9577 2.73499 24.4727 3.3333 24.4727Z" fill="black" fill-opacity="0.9"/>
</svg>
