<svg width="28" height="28" viewBox="0 0 28 28" fill="none" xmlns="http://www.w3.org/2000/svg">
<path d="M1.1665 9.77257V4.03487C1.1665 2.457 2.45749 1.16602 4.03536 1.16602H9.77306" stroke="white" stroke-miterlimit="10" stroke-linecap="round" stroke-linejoin="round"/>
<path d="M27.4166 9.77257V4.03487C27.4166 2.457 26.1256 1.16602 24.5478 1.16602H18.8101" stroke="white" stroke-miterlimit="10" stroke-linecap="round" stroke-linejoin="round"/>
<path d="M27.4166 18.666V24.4037C27.4166 25.9816 26.1256 27.2726 24.5478 27.2726H18.8101" stroke="white" stroke-miterlimit="10" stroke-linecap="round" stroke-linejoin="round"/>
<path d="M1.1665 18.666V24.4037C1.1665 25.9816 2.45749 27.2726 4.03536 27.2726H9.77306" stroke="white" stroke-miterlimit="10" stroke-linecap="round" stroke-linejoin="round"/>
<path d="M23.3335 18.0573C23.3335 19.3508 22.1161 20.3399 20.8226 20.3399H7.88784C6.59437 20.3399 5.8335 19.3508 5.8335 18.0573V11.9704C5.8335 10.6769 6.67045 9.68775 7.88784 9.68775H11.3118L12.0726 8.16602H16.6378L17.3987 9.68775H20.7465C22.04 9.68775 23.2574 10.6769 23.2574 11.9704V18.0573H23.3335Z" stroke="white" stroke-miterlimit="10" stroke-linecap="round" stroke-linejoin="round"/>
<path d="M14.3551 18.4368C16.4562 18.4368 18.1595 16.7336 18.1595 14.6325C18.1595 12.5314 16.4562 10.8281 14.3551 10.8281C12.254 10.8281 10.5508 12.5314 10.5508 14.6325C10.5508 16.7336 12.254 18.4368 14.3551 18.4368Z" stroke="white" stroke-miterlimit="10" stroke-linecap="round" stroke-linejoin="round"/>
<path d="M8.87695 9.30774V8.54688" stroke="white" stroke-miterlimit="10" stroke-linecap="round" stroke-linejoin="round"/>
<path d="M20.6704 11.209H21.4313" stroke="white" stroke-miterlimit="10" stroke-linecap="round" stroke-linejoin="round"/>
</svg>
