<svg width="24" height="24" viewBox="0 0 24 24" fill="none" xmlns="http://www.w3.org/2000/svg">
<path d="M5.63086 15.6427C5.63086 13.9228 5.91751 11.8208 6.39525 10.3875C6.873 9.04984 8.30623 5.89673 9.54837 5.51453C10.1217 4.75014 10.5039 3.8902 11.6504 4.17684C11.9371 3.60355 12.4148 3.22135 12.9881 3.508C13.5614 3.79465 13.657 4.36794 13.5614 4.75014C13.7525 4.55904 14.6125 4.84569 14.3258 6.08782C14.0392 7.32996 13.2748 11.5341 13.2748 11.5341C13.2748 11.5341 14.5169 9.14539 15.8546 10.0053C16.619 10.4831 15.568 11.6297 15.1858 12.2985C14.8036 12.8718 14.4214 14.8783 13.5614 15.7383C12.7015 16.5982 10.9816 17.4582 10.4083 18.4136" stroke-miterlimit="10" stroke-linecap="round" stroke-linejoin="round"/>
<path d="M9.54835 5.51453C9.07061 6.66111 8.49731 8.66764 8.49731 10.0053" stroke-miterlimit="10" stroke-linecap="round" stroke-linejoin="round"/>
<path d="M11.746 4.17685C11.4594 4.84569 10.2172 8.38101 10.0261 9.24095" stroke-miterlimit="10" stroke-linecap="round" stroke-linejoin="round"/>
<path d="M13.5614 4.6546C13.1792 5.51454 12.1282 7.90327 11.746 9.81425" stroke-miterlimit="10" stroke-linecap="round" stroke-linejoin="round"/>
<path d="M5.24867 15.7383L10.4083 18.9869L8.30624 23L2 19.178L5.24867 15.7383Z" stroke-miterlimit="10" stroke-linecap="round" stroke-linejoin="round"/>
<path d="M6.01305 12.1074C4.86646 11.4386 2.95548 10.1009 3.91097 8.381C3.05103 7.52106 2.66884 6.66112 3.62433 5.80118C2.95548 5.13233 3.05103 3.22135 4.57982 3.79465C4.57982 2.74361 5.24866 2.45696 5.82195 2.83916C6.39525 3.22135 8.01958 4.46349 9.54836 5.32343" stroke-miterlimit="10" stroke-linecap="round" stroke-linejoin="round"/>
<path d="M14.6125 6.27893C15.1858 7.80772 17.0012 9.1454 18.8166 9.43205" stroke-miterlimit="10" stroke-linecap="round" stroke-linejoin="round"/>
<path d="M11.0772 4.17684C10.9816 1.78812 12.3193 0.832626 12.9881 1.02372C13.657 1.31037 14.3258 2.55251 14.2303 4.55904" stroke-miterlimit="10" stroke-linecap="round" stroke-linejoin="round"/>
<path d="M19.1033 9.24094L15.568 15.7383L18.3389 17.6493L22.0653 10.7697L19.1033 9.24094Z" stroke-miterlimit="10" stroke-linecap="round" stroke-linejoin="round"/>
<path d="M4.57983 3.79465C4.57983 3.79465 6.49081 5.22788 7.15966 5.70563" stroke-miterlimit="10" stroke-linecap="round" stroke-linejoin="round"/>
<path d="M3.62436 5.80118C4.1021 6.18337 5.53534 7.13886 5.82199 7.42551" stroke-miterlimit="10" stroke-linecap="round" stroke-linejoin="round"/>
<path d="M3.81543 8.47656C4.19763 8.76321 4.77092 9.3365 4.96202 9.43205" stroke-miterlimit="10" stroke-linecap="round" stroke-linejoin="round"/>
<path d="M15.6635 15.5472L14.0392 14.9739" stroke-miterlimit="10" stroke-linecap="round" stroke-linejoin="round"/>
</svg>
