<svg width="40" height="40" viewBox="0 0 40 40" fill="none" xmlns="http://www.w3.org/2000/svg">
<path d="M9.33332 11.667H8.33331V28.3337H9.33332V11.667Z" fill="#B2B2B2"/>
<path d="M13.1667 11.667H11.1667V28.3337H13.1667V11.667Z" fill="#B2B2B2"/>
<path d="M15.1666 11.667H14.1666V28.3337H15.1666V11.667Z" fill="#B2B2B2"/>
<path d="M17.1667 11.667H16.1667V28.3337H17.1667V11.667Z" fill="#B2B2B2"/>
<path d="M18.9999 11.667H17.9999V28.3337H18.9999V11.667Z" fill="#B2B2B2"/>
<path d="M22 11.667H20V28.3337H22V11.667Z" fill="#B2B2B2"/>
<path d="M24.8334 11.667H22.8334V28.3337H24.8334V11.667Z" fill="#B2B2B2"/>
<path d="M27.8332 11.667H26.8333V28.3337H27.8332V11.667Z" fill="#B2B2B2"/>
<path d="M29.6666 11.667H28.6666V28.3337H29.6666V11.667Z" fill="#B2B2B2"/>
<path d="M31.6667 11.667H30.6667V28.3337H31.6667V11.667Z" fill="#B2B2B2"/>
<path fill-rule="evenodd" clip-rule="evenodd" d="M2.08331 20C2.08331 19.3096 2.64296 18.75 3.33331 18.75L36.6666 18.75C37.357 18.75 37.9166 19.3096 37.9166 20C37.9166 20.6904 37.357 21.25 36.6666 21.25L3.33331 21.25C2.64296 21.25 2.08331 20.6904 2.08331 20Z" fill="#D40511"/>
<path fill-rule="evenodd" clip-rule="evenodd" d="M7.03703 4.41667C5.59831 4.41667 4.41667 5.59831 4.41667 7.03704V14.4444C4.41667 15.0428 3.93164 15.5278 3.33333 15.5278C2.73502 15.5278 2.25 15.0428 2.25 14.4444V7.03704C2.25 4.40169 4.40169 2.25 7.03703 2.25H14.4444C15.0428 2.25 15.5278 2.73502 15.5278 3.33333C15.5278 3.93164 15.0428 4.41667 14.4444 4.41667H7.03703Z" fill="black" fill-opacity="0.9"/>
<path fill-rule="evenodd" clip-rule="evenodd" d="M24.4722 3.33333C24.4722 2.73502 24.9573 2.25 25.5556 2.25H32.963C35.5983 2.25 37.75 4.40169 37.75 7.03704V14.4444C37.75 15.0428 37.265 15.5278 36.6667 15.5278C36.0684 15.5278 35.5833 15.0428 35.5833 14.4444V7.03704C35.5833 5.59831 34.4017 4.41667 32.963 4.41667H25.5556C24.9573 4.41667 24.4722 3.93164 24.4722 3.33333Z" fill="black" fill-opacity="0.9"/>
<path fill-rule="evenodd" clip-rule="evenodd" d="M36.6667 24.4727C37.265 24.4727 37.75 24.9577 37.75 25.556V32.9634C37.75 35.5987 35.5983 37.7504 32.963 37.7504H25.5556C24.9573 37.7504 24.4722 37.2654 24.4722 36.6671C24.4722 36.0688 24.9573 35.5838 25.5556 35.5838H32.963C34.4017 35.5838 35.5833 34.4021 35.5833 32.9634V25.556C35.5833 24.9577 36.0684 24.4727 36.6667 24.4727Z" fill="black" fill-opacity="0.9"/>
<path fill-rule="evenodd" clip-rule="evenodd" d="M3.33333 24.4727C3.93164 24.4727 4.41667 24.9577 4.41667 25.556V32.9634C4.41667 34.4021 5.59831 35.5838 7.03703 35.5838H14.4444C15.0428 35.5838 15.5278 36.0688 15.5278 36.6671C15.5278 37.2654 15.0428 37.7504 14.4444 37.7504H7.03703C4.40169 37.7504 2.25 35.5987 2.25 32.9634V25.556C2.25 24.9577 2.73502 24.4727 3.33333 24.4727Z" fill="black" fill-opacity="0.9"/>
</svg>
