<svg width="12" height="9" viewBox="0 0 12 9" fill="none" xmlns="http://www.w3.org/2000/svg">
<path d="M11.1465 0.291016C11.2988 0.460286 11.375 0.654948 11.375 0.875C11.375 1.09505 11.2988 1.28971 11.1465 1.45898L4.64648 7.95898C4.47721 8.11133 4.28255 8.1875 4.0625 8.1875C3.84245 8.1875 3.64779 8.11133 3.47852 7.95898L0.228516 4.70898C0.0761719 4.53971 0 4.34505 0 4.125C0 3.90495 0.0761719 3.71029 0.228516 3.54102C0.397786 3.38867 0.592448 3.3125 0.8125 3.3125C1.03255 3.3125 1.22721 3.38867 1.39648 3.54102L4.0625 6.23242L9.97852 0.291016C10.1478 0.138672 10.3424 0.0625 10.5625 0.0625C10.7826 0.0625 10.9772 0.138672 11.1465 0.291016Z" fill="#2AB55A"/>
</svg>
