<svg width="12" height="12" viewBox="0 0 12 12" fill="none" xmlns="http://www.w3.org/2000/svg">
<path d="M9.97852 0.666016C10.1478 0.513672 10.3424 0.4375 10.5625 0.4375C10.7826 0.4375 10.9772 0.513672 11.1465 0.666016C11.2988 0.835286 11.375 1.02995 11.375 1.25C11.375 1.47005 11.2988 1.66471 11.1465 1.83398L6.83008 6.125L11.1465 10.416C11.2988 10.5853 11.375 10.7799 11.375 11C11.375 11.2201 11.2988 11.4147 11.1465 11.584C10.9772 11.7363 10.7826 11.8125 10.5625 11.8125C10.3424 11.8125 10.1478 11.7363 9.97852 11.584L5.6875 7.26758L1.39648 11.584C1.22721 11.7363 1.03255 11.8125 0.8125 11.8125C0.592448 11.8125 0.397786 11.7363 0.228516 11.584C0.0761719 11.4147 0 11.2201 0 11C0 10.7799 0.0761719 10.5853 0.228516 10.416L4.54492 6.125L0.228516 1.83398C0.0761719 1.66471 0 1.47005 0 1.25C0 1.02995 0.0761719 0.835286 0.228516 0.666016C0.397786 0.513672 0.592448 0.4375 0.8125 0.4375C1.03255 0.4375 1.22721 0.513672 1.39648 0.666016L5.6875 4.98242L9.97852 0.666016Z" fill="#AEAEAE"/>
</svg>
