<svg width="199" height="140" viewBox="0 0 199 140" fill="none" xmlns="http://www.w3.org/2000/svg">
<path d="M66.7477 41.6959C62.3467 37.8591 58.1715 33.8531 56.8173 30.2421C56.7609 30.1292 62.2339 29.5086 64.378 29.4522C66.8041 29.3393 70.4716 29.2829 72.8978 29.2829C72.1643 27.7595 71.4872 26.1797 70.8101 24.6562C65.9014 25.1076 59.7513 25.8411 54.8425 26.8567C53.2627 27.1953 51.6829 27.6466 50.103 28.098C57.438 40.511 70.8666 52.4726 84.6901 59.0741C89.6553 61.4438 94.7333 63.3622 100.037 64.3778C96.7645 62.1773 93.7742 59.6383 90.953 56.8736C81.9254 52.9804 72.8978 47.5074 66.7477 41.6959Z" fill="url(#paint0_linear)"/>
<path d="M111.83 68.3278C116.4 70.1333 121.139 71.3746 126.105 70.6411C126.161 70.6411 126.161 70.5847 126.161 70.5283C124.638 56.7048 112.902 36.9568 98.0062 31.4838C97.9498 31.4274 97.8369 31.5403 97.9498 31.5967C108.162 40.2858 116.908 49.5955 120.914 62.4599C121.591 64.2654 122.155 66.0709 122.606 67.9893C122.663 68.1021 122.55 68.215 122.381 68.215C121.422 68.0457 120.462 67.7636 119.447 67.4251C105.115 63.419 84.1827 41.0757 76.2835 22.7383C73.2931 16.5318 70.5848 10.1561 70.8669 5.58584C70.8669 5.473 77.0734 7.33494 79.4996 8.23771C94.3387 13.9364 108.388 20.82 120.237 31.8788C133.045 43.8968 141 58.0589 140.887 75.3242H146.643C146.643 56.7612 138.348 40.6807 123.848 26.6879C108.952 12.3566 90.3327 5.02162 70.3591 0.902762C68.4972 0.507804 66.5788 0.282113 64.604 0C66.7481 16.9268 75.7757 36.2798 87.7373 49.934C94.508 57.8332 102.125 64.4911 111.83 68.3278Z" fill="url(#paint1_linear)"/>
<path d="M198.89 53.4885C194.658 48.9183 192.006 42.8247 187.041 39.1572C181.455 35.0383 173.613 34.6998 167.237 37.3517C160.861 40.0035 155.839 45.3637 152.511 51.4573C157.306 47.3949 162.949 44.0095 169.155 42.9939C175.362 41.9219 182.245 43.4453 186.703 47.9027C181.681 51.683 176.998 56.1404 173.782 61.557C168.14 71.036 167.575 82.4898 162.61 92.3073C157.927 101.617 151.439 109.968 142.411 115.328C141.847 115.666 141.282 116.005 140.662 116.343C138.743 117.415 136.712 118.375 134.568 119.164C133.609 119.559 132.593 119.785 130.844 120.293C131.296 119.672 131.747 119.052 132.142 118.431C133.045 117.133 133.891 115.892 134.681 114.594H127.91C126.895 116.231 125.879 117.923 124.807 119.559C124.468 120.067 124.13 120.631 123.735 121.139C123.058 122.155 121.365 122.832 120.011 123.001C111.04 124.186 97.2164 124.976 88.1323 125.032H88.0759C87.7374 125.032 87.7374 125.484 88.0195 125.54C94.9595 126.387 106.865 126.612 113.917 126.612C115.836 126.612 117.754 126.725 119.673 126.387C119.729 126.387 119.334 127.571 118.544 128.474C115.441 132.142 111.773 136.204 108.67 139.872C108.614 139.928 108.67 140.041 108.783 139.984C113.297 137.05 118.375 132.988 122.099 129.264C123.058 128.305 124.017 127.515 125.089 126.838C127.008 125.315 128.982 124.017 130.901 123.735C141.282 122.155 150.254 117.867 157.532 110.701C158.153 110.08 158.83 109.46 159.507 108.839C168.817 100.15 172.371 87.2293 175.305 75.2677C176.377 71.036 177.393 66.7479 179.706 63.0804C183.769 56.6482 191.499 52.8679 198.89 53.4885C198.946 53.545 198.946 53.545 198.89 53.4885Z" fill="url(#paint2_linear)"/>
<path d="M76.735 110.872L76.2837 108.953H73.6882L73.2368 110.872H71.0928L73.9139 100.885H76.1144L78.9355 110.872H76.735ZM74.0832 107.204H75.8887L74.9859 103.198L74.0832 107.204Z" fill="#CB3728"/>
<path d="M91.5744 100.885H93.6057L91.2923 110.872H89.1483L87.8505 103.367L86.4964 110.872H84.4088L82.1519 100.885H84.2395L85.5372 108.107L86.8349 100.885H88.979L90.2767 108.163L91.5744 100.885Z" fill="#CB3728"/>
<path d="M102.351 110.872L101.899 108.953H99.3039L98.8526 110.872H96.7085L99.5296 100.885H101.73L104.551 110.872H102.351ZM99.6989 107.204H101.504L100.602 103.198L99.6989 107.204Z" fill="#CB3728"/>
<path d="M111.491 107.261H110.758V110.872H108.783V100.885H111.774C112.846 100.885 113.636 101.167 114.143 101.675C114.708 102.239 114.933 103.029 114.933 104.044C114.933 105.511 114.425 106.414 113.353 106.866L115.328 110.815H113.071L111.491 107.261ZM110.758 105.568H111.548C111.999 105.568 112.394 105.455 112.62 105.229C112.846 105.004 112.958 104.609 112.958 104.044C112.958 103.537 112.846 103.142 112.62 102.916C112.394 102.69 111.999 102.577 111.548 102.577H110.758V105.568Z" fill="#CB3728"/>
<path d="M125.654 102.07C126.331 102.86 126.669 104.101 126.669 105.85C126.669 107.543 126.331 108.84 125.654 109.63C124.977 110.42 123.961 110.872 122.607 110.872H119.673V100.885H122.607C124.017 100.885 125.033 101.28 125.654 102.07ZM124.187 108.389C124.525 107.881 124.638 107.035 124.638 105.85C124.638 104.722 124.469 103.875 124.187 103.367C123.848 102.86 123.34 102.634 122.663 102.634H121.704V109.179H122.663C123.34 109.179 123.905 108.897 124.187 108.389Z" fill="#CB3728"/>
<path d="M130.619 109.912L131.578 108.389C131.916 108.671 132.255 108.897 132.537 109.066C132.876 109.235 133.214 109.292 133.553 109.292C134.004 109.292 134.343 109.179 134.625 108.953C134.907 108.727 135.02 108.445 135.02 108.107C135.02 107.825 134.907 107.599 134.737 107.43C134.568 107.26 134.23 107.035 133.778 106.809C133.045 106.47 132.537 106.188 132.142 105.85C131.747 105.568 131.465 105.229 131.296 104.891C131.126 104.552 131.014 104.157 131.014 103.649C131.014 102.69 131.296 101.957 131.916 101.392C132.481 100.828 133.271 100.603 134.23 100.603C134.738 100.603 135.189 100.659 135.64 100.828C136.035 100.997 136.487 101.167 136.882 101.449L135.979 102.972C135.471 102.521 134.907 102.295 134.286 102.295C133.891 102.295 133.553 102.408 133.327 102.577C133.101 102.747 132.988 103.029 132.988 103.367C132.988 103.649 133.101 103.875 133.271 104.044C133.44 104.214 133.778 104.439 134.286 104.665C135.302 105.116 136.035 105.568 136.43 106.076C136.882 106.527 137.051 107.148 137.051 107.881C137.051 108.502 136.882 109.066 136.599 109.517C136.317 109.969 135.922 110.307 135.415 110.589C134.907 110.815 134.343 110.928 133.665 110.928C132.593 111.041 131.578 110.702 130.619 109.912Z" fill="#CB3728"/>
<path d="M16.5318 87.9628C16.4754 87.7936 16.3626 87.85 16.2497 87.9064C15.2341 88.1321 14.2185 88.3578 13.2029 88.5835C12.8079 88.6963 12.8079 88.6963 12.8644 88.245C12.9772 87.5115 13.0336 86.778 13.1465 86.0445C13.2029 85.8188 13.0336 85.7059 12.8644 85.7624C12.5822 85.8188 12.6951 85.6495 12.6387 85.5367C12.6387 85.2546 12.7515 85.0289 12.9772 84.8596C13.1465 84.7468 13.3722 84.6339 13.5979 84.5775C14.1057 84.4646 14.6135 84.4082 15.0648 84.2954C15.4598 84.2389 15.8548 84.2954 16.1369 83.9004C16.1933 83.844 16.2497 83.9004 16.3626 83.9004C16.5318 83.9004 16.5883 83.844 16.5318 83.6747C16.4754 83.5055 16.4754 83.3362 16.419 83.1105C16.3626 82.8848 16.1933 82.8848 16.1369 82.9412C16.024 83.0541 16.024 82.9977 15.9676 82.8848C15.9112 82.7155 15.7983 82.7155 15.6291 82.7155C14.8956 82.8848 14.1621 83.0541 13.3722 83.2233C13.1465 83.2798 13.1465 83.2233 13.1465 82.9976C13.1465 82.4898 13.1465 81.9256 13.0901 81.4178C13.0901 81.305 13.0901 81.2485 12.9772 81.2485C12.8644 81.2485 12.8079 81.2485 12.7515 81.3614C12.7515 81.4178 12.6951 81.4742 12.6387 81.4742C12.5258 81.1357 12.6951 80.8536 12.7515 80.5715C12.9208 80.0637 13.0336 79.4994 12.8644 78.9916C12.8079 78.7659 12.6387 78.6531 12.413 78.766C12.2437 78.8788 12.0744 78.9352 11.8488 79.0481C11.7359 79.1045 11.5666 79.1609 11.4538 78.9916C11.3974 78.8788 11.2845 78.9352 11.2281 78.9352C11.1153 78.9916 11.1717 79.0481 11.1717 79.1609C11.2281 80.0072 11.2281 80.8536 11.2281 81.6999C11.2281 82.0385 11.2281 82.3206 11.1153 82.6591C10.8331 82.4898 10.7767 82.4898 10.7767 82.8284C10.7203 83.0541 10.7203 83.3362 10.7203 83.5619C10.7203 83.844 10.6075 83.9004 10.3818 84.0133C8.9712 84.4646 7.56063 84.8032 6.15007 85.1417C5.92438 85.1981 5.86795 85.0853 5.86795 84.916C5.81153 84.1261 5.86795 83.3926 6.43218 82.772C6.71429 82.4334 6.77072 82.0949 6.54503 81.6999C6.26291 81.305 6.15007 80.8536 6.15007 80.3458C6.15007 80.2329 6.09364 80.1765 5.9808 80.1765C5.41657 80.2894 4.90877 80.4022 4.34454 80.5715C4.28812 80.5715 4.2317 80.6279 4.2317 80.7407C4.2317 80.8536 4.34454 80.7972 4.40097 80.7972C4.57023 80.7972 4.57023 80.8536 4.51381 81.0229C4.40097 81.2485 4.28812 81.4742 4.06243 81.6435C3.94958 81.6999 3.94958 81.7564 3.94958 81.8692C4.00601 82.2077 4.00601 82.5463 4.06243 82.8848C4.17528 83.3926 3.94958 83.844 3.66747 84.2389C3.61105 84.2954 3.4982 84.3518 3.55463 84.4646C3.61105 84.5775 3.72389 84.5211 3.83674 84.4646H3.89316C3.89316 84.4646 3.89316 84.4646 3.89316 84.5211C3.89316 84.8596 3.78032 85.1417 3.72389 85.4802C3.66747 85.7624 3.38536 85.9316 3.10325 85.8188C2.82113 85.7059 2.59544 85.7624 2.31333 85.8188C1.86195 85.9316 1.46699 86.1009 1.01561 86.1573C0.507804 86.2702 0.282113 86.6087 0.169268 87.0601C0.0564226 87.6243 0.282113 87.9064 0.789917 87.7371C1.63626 87.455 2.53902 87.455 3.44178 87.1165C3.4982 87.1165 3.55463 87.0601 3.55463 87.1165C3.61105 87.2858 3.61105 87.455 3.4982 87.5115C3.21609 87.6807 3.27251 87.9064 3.21609 88.1321C3.21609 88.8656 3.32894 89.5991 3.4982 90.2762C3.55463 90.5583 3.4982 90.6711 3.21609 90.7275C3.04682 90.7275 2.82113 90.8968 2.76471 90.8404C2.59544 90.6147 2.42617 90.7276 2.25691 90.784C1.63626 91.0097 1.12845 91.2918 0.507804 91.5739C0.112845 91.7432 0 92.0253 0 92.4202C0.0564226 92.8716 0.112845 92.928 0.507804 92.7588C1.52341 92.3074 2.59544 92.1945 3.61105 91.9124C3.66747 92.0253 3.61105 92.0817 3.61105 92.1381C3.44178 93.4923 3.27251 94.8464 3.10325 96.2005C3.10325 96.3698 2.9904 96.5391 3.27251 96.5955C3.32894 96.5955 3.32894 96.7083 3.38536 96.7648C3.44178 96.934 3.4982 97.0469 3.55463 97.2162C3.66747 97.3854 3.78032 97.4983 4.00601 97.3854C4.34454 97.2726 4.7395 97.2162 5.07804 97.1033C5.24731 97.0469 5.41657 97.0469 5.36015 96.8212C5.36015 96.7084 5.41657 96.7084 5.473 96.7084C5.58584 96.6519 5.69869 96.6519 5.81153 96.6519C5.92438 96.6519 5.9808 96.5955 5.9808 96.4827C5.9808 96.3698 5.86795 96.3698 5.75511 96.3698C5.64226 96.4262 5.473 96.4262 5.36015 96.4827C5.30373 96.4827 5.19088 96.5391 5.13446 96.4262C5.07804 96.3698 5.13446 96.257 5.13446 96.2005C5.19088 96.0313 5.36015 95.862 5.473 95.8056C5.64226 95.6927 5.69869 95.5799 5.69869 95.4106C5.75511 94.3386 5.81153 93.2666 5.81153 92.1381C5.81153 91.7996 5.86795 91.6867 6.20649 91.5739C7.39137 91.2354 8.63266 90.9532 9.87396 90.6711C10.2125 90.6147 10.2125 90.6147 10.2689 90.9532C10.3253 91.1789 10.2689 91.4046 10.4382 91.5739C10.551 91.6867 10.551 91.7432 10.551 91.856C10.551 92.8716 10.4946 93.8872 10.4946 94.9028C10.4946 95.5799 10.4382 95.5799 11.1153 95.6363C11.1717 95.6363 11.2281 95.6363 11.2845 95.6363C11.2281 95.6927 11.1717 95.6927 11.1717 95.6927C11.1153 95.7492 11.0024 95.7492 11.0024 95.8056C11.0024 95.9184 11.1153 95.862 11.2281 95.862C11.3974 95.8056 11.5102 95.8056 11.6795 95.7492C11.7923 95.7492 11.9052 95.6363 11.9052 95.5235C11.9052 95.4106 11.7923 95.3542 11.6795 95.3542C11.5102 95.3542 11.5666 95.2414 11.5666 95.1849C11.5666 95.0157 11.6795 95.0721 11.7359 95.0721C11.9616 95.1285 11.9616 95.0157 12.018 94.8464C12.018 94.7336 12.018 94.5643 12.018 94.4514C12.018 94.3386 12.018 94.1693 12.1309 94.1129C12.3566 94.0001 12.3566 93.7744 12.3566 93.6051C12.3566 93.4358 12.3566 93.2101 12.3566 93.0409C12.3001 92.0817 12.2437 91.1789 12.1309 90.2197C12.1309 90.0505 12.1309 89.9376 12.3566 89.8812C12.8079 89.8248 13.2029 89.7119 13.5979 89.5991C13.7671 89.5427 13.9928 89.3734 14.0492 89.7119C14.0492 89.7119 14.1057 89.7119 14.1621 89.7119C14.3878 89.7119 14.6135 89.6555 14.8392 89.4863C15.0648 89.317 15.2905 89.1477 15.5726 89.0913C16.024 88.922 16.024 88.922 16.024 88.4142C16.024 88.3578 16.024 88.3014 16.024 88.245C16.024 88.1885 16.024 88.1321 16.1369 88.0757C16.419 88.1321 16.5883 88.1321 16.5318 87.9628ZM15.5162 83.2233C15.5162 83.2233 15.5726 83.2798 15.5162 83.2233C15.2341 83.3926 14.8956 83.449 14.557 83.5619C14.557 83.5619 14.557 83.5619 14.557 83.5054C14.8956 83.449 15.2341 83.3362 15.5162 83.2233ZM15.4598 83.6183C15.347 83.844 15.2905 83.844 15.0648 84.0133C14.8392 84.1261 14.7263 83.9004 14.557 83.9568C14.8392 83.7876 15.1213 83.7311 15.4598 83.6183ZM6.15007 81.8128C6.20649 82.0949 6.4886 82.377 6.15007 82.6591C6.15007 82.3206 6.15007 82.0949 6.15007 81.8128ZM1.41057 86.8344C1.41057 87.0037 0.959185 87.455 0.789917 87.455C0.620649 87.5115 0.733494 87.2858 0.677072 87.2858C0.677072 86.8908 1.01561 86.6087 1.35414 86.6651C1.46699 86.6651 1.41057 86.7215 1.41057 86.8344ZM2.20048 91.6303C2.65186 91.2918 3.10325 91.1789 3.61105 91.1225C3.10325 91.2354 2.70829 91.6303 2.20048 91.6303ZM2.65186 86.7215C2.76471 86.8908 2.93398 86.8908 3.10325 86.8344C2.76471 87.0601 2.76471 87.0601 2.65186 86.7215ZM3.78032 86.383C3.55463 86.4394 3.32894 86.4959 3.04682 86.5523V86.4959C3.27251 86.383 3.4982 86.3266 3.78032 86.2137C3.83674 86.2137 3.89316 86.2137 3.89316 86.2702C3.83674 86.3266 3.83674 86.383 3.78032 86.383ZM4.28812 85.4238C4.28812 85.1417 4.40097 84.916 4.51381 84.6903C4.57023 84.9724 4.45739 85.1981 4.28812 85.4238ZM4.51381 96.5955C4.57023 96.4262 4.62666 96.257 4.68308 96.0877C4.7395 96.3134 4.62666 96.4262 4.51381 96.5955ZM4.57023 82.772C4.51381 82.4898 4.45739 82.2077 4.40097 81.9256C4.40097 81.8128 4.40097 81.7564 4.51381 81.7564C4.68308 81.6999 4.68308 81.8128 4.68308 81.9256C4.68308 82.2077 4.68308 82.4898 4.57023 82.772ZM4.79592 88.6963C4.79592 88.4142 4.79592 88.1321 4.79592 87.85C4.90877 88.1321 4.85235 88.4142 4.79592 88.6963ZM5.02161 89.7684C5.07804 89.6555 5.07804 89.4863 5.13446 89.3734C5.19088 89.6555 5.24731 89.8812 5.30373 90.1633C5.02161 90.1069 4.96519 89.9941 5.02161 89.7684ZM5.30373 95.862C5.30373 95.4671 5.30373 95.1285 5.30373 94.8464C5.36015 95.1849 5.58584 95.4671 5.30373 95.862ZM5.2473 82.0385C5.19088 81.8128 5.19088 81.6435 5.13446 81.4178C5.07804 81.1357 5.41657 80.7407 5.69869 80.6843C5.75511 80.6843 5.81153 80.6843 5.81153 80.7407C5.81153 80.91 5.86795 81.0793 5.75511 81.1921C5.41657 81.3614 5.36015 81.6435 5.2473 82.0385ZM5.64226 92.0253C5.75511 92.251 5.69869 92.4767 5.75511 92.7588C5.64226 92.4767 5.69869 92.251 5.64226 92.0253ZM6.03722 90.784C6.31934 90.6147 6.54503 90.6147 6.77072 90.5583C6.54503 90.6711 6.31934 90.7276 6.03722 90.784ZM7.78632 90.3326C7.78632 90.3326 7.84275 90.3326 7.78632 90.3326C7.84275 90.3326 7.84275 90.3326 7.84275 90.3326C7.84275 90.3326 7.84275 90.3326 7.78632 90.3326ZM8.12486 90.2762C8.06844 90.2762 8.06844 90.3326 8.12486 90.2762C8.01201 90.2762 8.01201 90.2762 8.12486 90.2762C8.06844 90.2762 8.06844 90.2762 8.12486 90.2762ZM8.29413 90.2197C8.74551 90.1069 9.19689 89.9941 9.70469 89.8812C9.25331 90.1069 8.80193 90.3326 8.29413 90.2197ZM10.8331 86.0445C10.7767 87.0601 10.6075 88.0757 10.4946 89.0349C10.4946 89.1477 10.4382 89.2041 10.3253 89.2041C8.91478 89.4863 7.50421 89.7684 6.09364 90.1069C5.92438 90.1633 5.92438 90.1069 5.92438 89.9941C5.81153 89.5427 5.75511 89.0913 5.64226 88.6399C5.64226 88.4706 5.64226 88.3578 5.81153 88.3578C5.9808 88.3578 6.03722 88.245 5.9808 88.0757C5.92438 87.6807 5.92438 87.2293 5.92438 86.8344C5.92438 86.6651 5.9808 86.5523 6.15007 86.4959C7.56063 86.1009 8.9712 85.7059 10.3818 85.4238C10.7203 85.3674 10.7203 85.3674 10.7203 85.7059C10.8331 85.7059 10.8331 85.8752 10.8331 86.0445ZM11.1153 86.8908C11.2845 87.5115 11.2845 88.0757 10.8896 88.6399C11.0024 88.0193 11.0588 87.455 11.1153 86.8908ZM11.2281 95.3542C11.1717 95.3542 11.1153 95.2978 11.1153 95.2414C11.0588 95.0157 11.1153 94.79 11.2845 94.5643C11.2845 94.79 11.2845 95.0157 11.2845 95.2414C11.2845 95.2978 11.2845 95.3542 11.2281 95.3542ZM11.2845 91.7432H11.2281C11.1717 91.3482 11.1153 90.8968 11.1153 90.5019C11.1153 90.389 11.1717 90.3326 11.2845 90.2762C11.3974 90.2762 11.4538 90.2197 11.6231 90.2197C11.4538 90.7276 11.3974 91.2354 11.2845 91.7432ZM11.9052 80.5715C11.9052 80.7972 11.9052 81.0229 11.9052 81.2485C11.7923 81.0229 11.7923 80.7972 11.9052 80.5715ZM11.7923 92.5331C11.8488 92.8152 11.8488 93.0973 11.9052 93.4358C11.7359 93.0973 11.7359 92.8152 11.7923 92.5331ZM11.9052 91.6867C11.7359 91.6867 11.7923 91.5739 11.7923 91.5175C11.7923 91.3482 11.8488 91.1789 11.8488 91.0097C11.8488 91.0097 11.8488 91.0097 11.9052 91.0097C11.9616 91.1789 11.9616 91.3482 12.018 91.5175C12.018 91.6303 12.018 91.6867 11.9052 91.6867ZM11.9616 88.0757C11.8488 87.85 11.8488 87.6243 11.7923 87.455C11.7359 87.1729 11.6795 86.9472 12.0744 86.9472C12.0744 87.3422 12.018 87.7372 11.9616 88.0757ZM12.5258 87.5115C12.4694 87.2293 12.5258 87.0037 12.6387 86.778C12.5822 87.0601 12.5822 87.2858 12.5258 87.5115Z" fill="#CB3728"/>
<path d="M144.555 83.3932C143.934 84.6909 143.37 85.8194 142.693 86.9479C142.129 87.907 141.508 88.8098 140.606 89.4869C140.211 89.8254 139.759 90.1075 139.251 90.1639C138.461 90.3332 137.897 89.9383 137.784 89.0919C137.672 88.4713 137.728 87.907 137.897 87.2864C138.349 85.2552 138.969 83.2804 139.928 81.4749C140.098 81.1927 140.211 80.9106 140.493 80.7414C140.831 80.4028 141.452 80.5157 141.621 80.9671C141.734 81.1927 141.621 81.3056 141.508 81.4749C140.38 83.1111 139.533 84.8602 139.139 86.7786C138.969 87.3992 138.913 88.0763 138.913 88.697C138.913 88.9226 138.913 89.1483 139.139 89.2612C139.364 89.374 139.533 89.1483 139.703 89.0355C140.211 88.5841 140.606 88.0763 140.944 87.5685C141.847 86.2708 142.862 85.0295 143.483 83.5625C143.822 82.7726 144.047 82.0391 144.047 81.1363C144.047 80.6285 144.217 80.4028 144.555 80.3464C144.95 80.29 145.232 80.4593 145.401 80.9106C145.571 81.4184 145.514 81.9827 145.571 82.4905C145.684 83.3932 145.74 84.3524 146.079 85.2552C146.304 85.8758 146.135 86.5529 146.135 87.1735C146.135 89.8818 145.514 92.3644 144.104 94.6778C143.427 95.7498 142.58 96.709 141.395 97.2168C139.533 97.9503 137.841 97.7246 136.374 96.3704C135.81 95.8626 135.358 95.2984 135.02 94.6213C134.85 94.2828 134.738 93.8878 134.794 93.4929C134.794 93.2672 134.907 93.0979 135.189 93.0415C135.471 92.9851 135.584 93.1543 135.64 93.38C135.753 93.775 135.81 94.17 136.035 94.5649C137.164 96.709 139.816 97.2168 141.79 95.7498C142.806 94.9599 143.427 93.9443 143.934 92.8158C145.063 90.3896 145.176 87.7942 144.894 85.1988C144.724 84.6909 144.612 84.1267 144.555 83.3932Z" fill="#211E1F"/>
<path d="M118.769 83.8443C118.149 84.9727 117.584 86.1012 117.02 87.2296C116.625 87.9631 116.174 88.6966 115.61 89.3173C115.44 89.543 115.215 89.7687 114.989 89.9379C114.199 90.5586 113.522 90.3329 113.183 89.3737C112.901 88.5838 112.845 87.7939 112.958 87.0039C113.184 85.6498 113.296 84.2392 113.635 82.8851C113.691 82.5466 113.861 82.2644 114.03 81.9823C114.199 81.7002 114.425 81.5874 114.763 81.7002C115.102 81.8131 115.158 82.0952 115.158 82.3773C115.158 82.5465 115.102 82.7158 115.045 82.8851C114.538 84.6342 114.03 86.4397 113.917 88.3017C113.917 88.4709 113.917 88.6966 113.917 88.8659C113.973 89.2044 114.086 89.2608 114.368 89.0916C114.707 88.9223 114.989 88.6402 115.215 88.3017C116.4 86.6654 117.415 84.9163 118.092 82.9979C118.262 82.5466 118.431 82.1516 118.6 81.7566C118.713 81.4745 118.939 81.2488 119.334 81.3617C119.729 81.4745 119.841 81.7002 119.841 82.0952C119.841 83.8443 120.293 85.4241 121.083 86.9475C121.139 87.1168 121.252 87.2296 121.365 87.3425C122.098 88.1324 122.832 88.1324 123.396 87.1732C124.412 85.5369 124.976 83.7879 124.807 81.8695C124.807 81.4745 124.694 81.136 124.524 80.7974C124.355 80.5153 124.129 80.3461 123.735 80.4589C123.509 80.5153 123.283 80.5718 123.057 80.5153C122.945 80.5153 122.832 80.4589 122.832 80.3461C122.775 80.1768 122.888 80.1204 123.001 80.064C123.791 79.4997 124.807 79.4433 125.371 80.4589C125.766 81.136 125.879 81.9259 125.991 82.7158C126.104 84.0135 125.596 85.142 125.089 86.2704C124.75 87.0039 124.355 87.681 123.791 88.2452C122.888 89.148 121.929 89.148 121.026 88.2452C120.349 87.5682 119.898 86.7218 119.503 85.8755C119.164 85.1984 118.995 84.5213 118.769 83.8443Z" fill="#211E1F"/>
<path d="M132.819 86.7221C131.86 87.7941 130.788 88.7533 129.659 89.5996C129.039 90.051 128.418 90.5024 127.741 90.7845C127.12 91.0102 126.5 91.2359 125.936 90.7281C125.371 90.1638 125.541 89.4868 125.766 88.8661C126.161 87.5684 126.951 86.4964 127.797 85.4244C129.039 83.7881 130.506 82.3775 132.255 81.3055C132.763 80.967 133.327 80.6849 133.948 80.6284C134.794 80.5156 135.302 80.967 135.302 81.8133C135.302 82.2083 135.302 82.6032 135.02 82.9418C134.85 83.1674 134.625 83.2239 134.343 83.2803C134.568 83.4496 134.794 83.3931 134.85 83.6752C134.907 83.9009 134.794 84.0702 134.794 84.2959C134.512 85.4808 134.173 86.6092 134.004 87.8505C133.948 88.1891 134.004 88.5276 134.06 88.8661C134.117 89.1482 134.286 89.3175 134.568 89.3175C134.85 89.3175 135.02 89.2611 135.132 88.979C135.189 88.8661 135.245 88.7533 135.358 88.6969C135.527 88.584 135.753 88.5276 135.979 88.6404C136.204 88.8097 136.092 88.979 136.035 89.1482C135.81 89.7125 135.245 90.1074 134.625 90.1074C133.891 90.1074 133.327 89.7689 133.045 89.1482C132.763 88.4712 132.763 87.7941 132.819 87.117C132.876 86.9478 132.932 86.8349 132.819 86.7221ZM126.669 89.3175C126.669 89.4304 126.613 89.4868 126.613 89.5996C126.556 90.051 126.725 90.2203 127.177 90.1638C127.346 90.1074 127.572 90.051 127.741 89.9946C128.192 89.7689 128.644 89.4868 129.039 89.1482C130.393 88.0198 131.578 86.7221 132.763 85.4244C133.214 84.973 133.496 84.4087 133.609 83.7881C133.665 83.5624 133.722 83.3931 133.948 83.3367C134.06 83.2803 134.117 83.2239 134.004 83.1674C133.778 82.9418 133.891 82.7161 134.004 82.4904C134.06 82.3211 134.173 82.1518 134.173 81.9261C134.23 81.4183 134.173 81.3619 133.722 81.5876C133.158 81.8133 132.65 82.2083 132.198 82.6032C130.506 84.1266 128.982 85.7629 127.628 87.6248C127.177 88.1326 126.838 88.6969 126.669 89.3175Z" fill="#211E1F"/>
<path d="M78.4272 83.8444C77.6937 85.4242 77.1295 87.004 76.2832 88.5275C75.8318 89.3174 75.324 90.0509 74.6469 90.6151C74.3084 90.8972 73.9134 91.1229 73.4056 91.1793C72.7286 91.2357 72.3336 90.9536 72.1079 90.333C71.9386 89.7688 71.9386 89.1481 71.9951 88.5839C72.2207 86.3834 72.7286 84.2958 73.5185 82.2645C73.6313 81.9824 73.7442 81.7567 73.9699 81.531C74.3084 81.1361 74.929 81.2489 75.1547 81.7003C75.2676 81.8696 75.1547 82.0389 75.0419 82.1517C73.9699 84.1265 73.2364 86.2141 73.0107 88.471C72.9542 88.9224 72.9542 89.3738 73.0671 89.8816C73.1235 90.0509 73.1235 90.2766 73.2928 90.333C73.5185 90.3894 73.6313 90.2201 73.8006 90.1073C74.252 89.6559 74.5905 89.1481 74.929 88.5839C75.719 87.1733 76.6781 85.7627 77.1859 84.1829C77.4681 83.3366 77.6373 82.4902 77.5245 81.5875C77.4681 81.2489 77.5245 80.9668 77.9194 80.854C78.3144 80.7411 78.6529 80.854 78.8222 81.2489C78.9915 81.531 79.0479 81.8696 79.1043 82.2081C79.33 83.393 79.4428 84.5779 80.0071 85.7063C80.2892 86.2706 80.2328 86.8912 80.2328 87.5118C80.3456 89.0917 80.402 90.6715 80.0071 92.2513C79.6121 93.944 79.0479 95.5803 77.9194 96.9344C76.0011 99.3042 72.9542 99.5299 70.6973 97.4422C70.1331 96.9344 69.6253 96.3702 69.3996 95.6367C69.3432 95.411 69.2868 95.1853 69.3432 94.9596C69.3996 94.7339 69.5125 94.6775 69.6817 94.6211C69.851 94.5647 70.0203 94.6775 70.0767 94.7904C70.1331 94.9032 70.1895 95.0161 70.246 95.1289C71.2051 97.95 74.5341 98.74 76.6781 96.6523C77.6937 95.6931 78.258 94.4518 78.6529 93.1541C79.3864 90.8408 79.33 88.471 78.8786 86.1013C78.7094 85.2549 78.5401 84.5214 78.4272 83.8444Z" fill="#211E1F"/>
<path d="M96.7642 85.3682C96.2564 86.4402 95.805 87.3994 95.2972 88.3586C94.9022 89.0921 94.4508 89.7127 93.8302 90.2205C93.3788 90.6155 92.871 90.8412 92.2504 90.8976C91.7426 90.954 91.404 90.7847 91.1783 90.3334C90.8962 89.7691 90.7834 89.0921 90.8398 88.4714C91.0655 86.4402 91.5169 84.4654 92.1375 82.4906C92.2503 82.2085 92.3632 81.9828 92.476 81.7571C92.5889 81.5879 92.7582 81.5314 92.9838 81.5314C93.5481 81.6443 93.7738 81.9264 93.5481 82.4906C93.0967 83.7319 92.6453 84.9732 92.3632 86.2145C92.0811 87.1737 91.8554 88.1893 91.9118 89.2049C91.9118 89.487 91.9118 89.8256 92.1939 89.9384C92.476 90.1077 92.7582 89.8256 92.9274 89.5999C93.8302 88.8099 94.4508 87.7943 95.0715 86.7787C95.7486 85.5939 96.3692 84.409 96.7077 83.1113C96.8206 82.7727 96.877 82.4342 96.877 82.0957C96.877 81.7571 96.9899 81.4186 97.2155 81.1929C97.4412 80.9108 97.7798 80.9108 98.0619 81.0236C98.344 81.1365 98.4004 81.4186 98.344 81.7007C98.2311 82.4906 98.0619 83.2241 98.0055 84.014C97.949 85.1425 98.0055 86.2145 98.2876 87.343C98.344 87.6815 98.4568 88.02 98.6825 88.3021C99.0211 88.8099 99.4725 88.8664 99.9803 88.4714C100.093 88.3586 100.206 88.2457 100.319 88.1893C100.432 88.1329 100.488 87.9072 100.657 88.0765C100.827 88.1893 100.939 88.3586 100.883 88.5278C100.827 88.6971 100.77 88.8099 100.657 88.9228C99.6417 89.8256 98.5697 89.7691 97.8362 88.7535C97.3284 88.02 97.1027 87.1737 96.9334 86.2709C96.8206 86.0452 96.8206 85.7067 96.7642 85.3682Z" fill="#211E1F"/>
<path d="M89.2605 85.1422C88.8091 86.8913 88.0192 88.5276 86.8343 89.9381C86.4393 90.4459 85.9315 90.8409 85.3109 91.123C83.5618 91.9129 81.9255 90.8973 81.8691 89.0354C81.8127 86.9477 82.3769 85.0294 83.3925 83.2238C83.6746 82.716 84.0132 82.2646 84.7467 82.3775C84.8595 82.3775 84.9159 82.3211 84.9723 82.2082C85.4801 81.4747 86.8343 80.9669 87.7371 81.1362C88.3013 81.249 88.6962 81.644 88.9219 82.1518C89.2605 83.111 89.3733 84.0702 89.2605 85.1422ZM88.0756 84.6908C88.132 83.8445 88.132 83.1674 87.8499 82.4903C87.6242 82.039 87.3421 81.8697 86.8343 81.9261C86.3265 81.9825 85.9315 82.2646 85.593 82.5468C85.1416 82.8853 84.9723 83.5059 84.6338 83.9573C83.7875 85.0294 83.1668 86.2142 82.9411 87.5684C82.8283 88.2454 82.8283 88.9789 83.054 89.656C83.2797 90.3331 83.6746 90.5588 84.3517 90.3895C84.8595 90.2767 85.3109 89.9381 85.6494 89.5432C86.8907 88.1326 87.6806 86.3835 88.0756 84.6908Z" fill="#211E1F"/>
<path d="M103.704 83.506C103.93 82.9982 104.099 82.6032 104.325 82.1519C104.72 81.3619 105.115 80.6849 105.792 80.1206C106.356 79.6693 106.977 79.4436 107.654 79.6128C108.218 79.7257 108.613 80.2335 108.613 80.7977C108.613 81.0234 108.5 81.1927 108.275 81.2491C107.993 81.3055 107.88 81.1927 107.823 80.967C107.598 80.4028 107.372 80.3463 106.864 80.6849C106.695 80.7977 106.526 80.967 106.356 81.1363C104.551 83.2239 103.535 85.5936 103.874 88.4148C103.93 88.8097 103.93 89.2047 103.987 89.6561C104.043 90.1075 103.704 90.5024 103.253 90.5588C102.858 90.6153 102.576 90.3331 102.576 89.7689C102.576 89.0354 102.632 88.2455 102.632 87.512C102.745 85.5372 102.576 83.5624 102.294 81.5876C102.237 81.3619 102.237 81.1927 102.35 81.0234C102.576 80.7413 102.802 80.5156 103.197 80.6284C103.535 80.7413 103.761 81.1362 103.761 81.5312C103.704 82.0954 103.648 82.7161 103.704 83.506Z" fill="#211E1F"/>
<path d="M32.8377 86.2707C33.4019 85.4808 34.079 84.6908 34.8689 84.0702C35.6024 83.4495 36.3923 83.0546 37.4079 82.9417C38.4235 82.8289 39.0441 83.2803 39.2134 84.2959C39.4391 85.2551 39.2698 86.2142 38.8749 87.117C38.1978 88.584 37.295 89.9381 35.9409 90.8973C35.4331 91.2923 34.8124 91.518 34.1354 91.518C33.3455 91.4615 32.9505 91.0102 33.0633 90.2203C33.0633 89.9946 33.1762 89.8253 33.2326 89.5996C33.3455 89.3175 33.5711 89.4303 33.7404 89.4303C33.9661 89.4303 33.8533 89.5996 33.8533 89.7124C33.8533 89.8817 33.7968 90.051 33.7968 90.2203C33.7968 90.5588 33.8533 90.6716 34.1918 90.6152C34.756 90.5588 35.2074 90.3331 35.6024 89.9381C36.9565 88.6404 37.8028 87.0606 38.1414 85.2551C38.1978 84.9165 38.1978 84.6344 38.085 84.2959C37.9721 83.8445 37.7464 83.6752 37.295 83.7881C36.9001 83.8445 36.5051 84.0138 36.223 84.2395C34.756 85.3679 33.5711 86.7785 32.8377 88.5276C32.4991 89.2611 32.4991 90.1074 32.4427 90.8973C32.2734 92.5336 32.2734 94.1698 32.4991 95.8625C32.5555 96.2575 32.6684 96.6524 32.8377 96.991C33.1198 97.4988 33.4019 97.6116 33.9097 97.3859C34.0225 97.3295 34.2482 97.1602 34.3046 97.3295C34.4175 97.5552 34.4175 97.8373 34.1354 98.0066C33.684 98.2887 33.2326 98.3451 32.7812 98.063C32.3863 97.8373 32.1606 97.4988 31.9913 97.1602C31.5399 96.2575 31.3707 95.2983 31.3142 94.3391C31.2014 91.6872 31.3707 89.0918 31.5964 86.4399C31.6528 85.65 31.6528 84.8601 31.822 84.0702C31.8785 83.7316 31.9913 83.3931 32.3298 83.2238C32.5555 83.0546 32.8377 83.0546 33.0633 83.1674C33.3455 83.2803 33.289 83.5624 33.289 83.7881C33.1198 84.5216 32.9505 85.4243 32.8377 86.2707Z" fill="#211E1F"/>
<path d="M45.7027 87.8501C44.8 89.035 43.8408 90.0506 42.8252 90.9533C42.3174 91.4047 41.7532 91.7997 41.1325 92.1382C40.9632 92.1946 40.794 92.2511 40.6811 92.3075C39.7219 92.5896 39.1577 92.0818 39.1577 91.1226C39.2141 90.1634 39.6091 89.2607 40.0605 88.4708C41.2454 86.3831 42.6559 84.5212 44.5743 83.0542C45.0257 82.7156 45.477 82.3771 46.0413 82.2643C47.0005 81.9822 47.6211 82.4335 47.6211 83.4491C47.6211 84.2391 47.4518 84.5212 46.7748 84.6904C47.0569 84.7469 47.2262 84.8033 47.339 85.029C47.3954 85.2547 47.339 85.4804 47.339 85.6496C47.1133 86.6652 46.944 87.6808 46.8876 88.7529C46.8876 89.1478 46.8876 89.5428 47.0569 89.8813C47.1697 90.107 47.2826 90.2763 47.5647 90.2199C47.7904 90.2199 48.0161 90.107 48.0725 89.8249C48.1289 89.712 48.1853 89.5992 48.2418 89.5428C48.411 89.4299 48.6367 89.3171 48.806 89.4299C49.0317 89.5428 48.9188 89.7685 48.8624 89.9377C48.6931 90.502 48.2418 90.8969 47.6775 90.9533C46.944 91.0098 46.3798 90.7277 46.0977 90.107C45.8156 89.5428 45.7592 88.9786 45.7592 88.3579C45.7027 88.1322 45.7027 88.0194 45.7027 87.8501ZM46.7183 84.5212C46.267 84.4083 46.2105 84.1826 46.3798 83.9005C46.4927 83.6184 46.5491 83.3927 46.5491 83.1106C46.5491 82.8849 46.4362 82.8849 46.267 82.9413C45.872 83.1106 45.5335 83.3363 45.2514 83.6184C43.5587 85.1982 42.1481 87.0602 40.9068 88.9786C40.5683 89.5428 40.2297 90.107 40.1169 90.7277C40.0605 90.9534 40.0041 91.2355 40.2297 91.4047C40.4554 91.574 40.7375 91.4612 40.9632 91.3483C41.4146 91.179 41.7532 90.8969 42.0917 90.5584C43.3894 89.3171 44.5179 87.9065 45.5899 86.496C45.9284 86.101 46.0977 85.6496 46.1541 85.0854C46.1541 84.8033 46.3234 84.634 46.7183 84.5212Z" fill="#211E1F"/>
<path d="M25.1645 87.512C25.6723 87.5684 26.2365 87.512 26.8571 87.512C27.365 87.512 27.8728 87.5684 28.3806 87.7377C29.5654 88.0762 30.0168 89.0918 29.4526 90.1638C29.1705 90.7281 28.7191 91.1794 28.1549 91.518C27.3085 92.0822 26.4622 92.4772 25.4466 92.5336C24.8824 92.5336 24.3181 92.3643 23.9232 91.9129C23.4718 91.4051 23.5846 90.5024 24.2053 90.1638C24.3181 90.1074 24.431 90.051 24.5438 90.1074C24.6567 90.1638 24.6002 90.3331 24.5438 90.3895C24.5438 90.5024 24.4874 90.6716 24.431 90.7845C24.3181 91.2359 24.5438 91.4616 24.9952 91.4616C25.2773 91.4616 25.5594 91.4051 25.8415 91.3487C26.6315 91.123 27.3649 90.8409 28.042 90.3895C28.2677 90.2767 28.437 90.1074 28.6062 89.8817C29.0012 89.4303 28.8884 88.9225 28.3806 88.584C27.9856 88.3583 27.5906 88.3019 27.1393 88.3019C26.3493 88.3019 25.5594 88.3019 24.8259 88.3019C24.3745 88.3019 23.9796 88.189 23.5846 88.0198C23.1897 87.8505 23.0768 87.5684 23.1333 87.1734C23.1897 86.6656 23.4718 86.2707 23.7539 85.8757C24.5438 84.8601 25.4466 83.9573 26.5186 83.2803C26.8007 83.0546 27.1393 82.9417 27.4778 82.8289C28.1549 82.6032 28.7191 82.716 29.3397 83.111C29.4526 83.1674 29.6219 83.2803 29.6783 83.4495C29.7347 83.6752 29.7347 83.8445 29.6219 84.0138C29.4526 84.183 29.2833 84.183 29.1141 84.0702C28.2677 83.506 27.4778 83.8445 26.7443 84.3523C26.0672 84.8037 25.4466 85.3679 24.9388 85.9886C24.7695 86.2143 24.6002 86.4399 24.5438 86.7221C24.3745 87.1734 24.4874 87.3991 24.9388 87.4555C24.9388 87.4555 24.9952 87.512 25.1645 87.512Z" fill="#211E1F"/>
<path d="M51.6263 85.1983C51.9648 84.4084 52.3033 83.6749 52.7547 82.9978C53.0933 82.5464 53.4318 82.095 53.9396 81.8129C54.3346 81.5872 54.7859 81.4744 55.2937 81.5872C55.858 81.7001 56.1965 82.095 56.2529 82.6593C56.2529 82.885 56.1965 83.0542 55.9144 83.1106C55.6323 83.1671 55.5194 83.0542 55.463 82.8285C55.2938 82.3207 55.1245 82.2643 54.6731 82.5464C54.5603 82.6028 54.391 82.7157 54.2781 82.8285C53.0368 84.1827 52.0777 85.7061 51.7955 87.568C51.6263 88.5836 51.7955 89.6557 51.852 90.6713C51.852 90.9534 51.7955 91.1791 51.5699 91.3484C51.3442 91.5176 51.1185 91.574 50.8364 91.4612C50.6107 91.3484 50.4978 91.1227 50.4978 90.897C50.4978 90.4456 50.4978 90.0506 50.5542 89.5993C50.7235 87.5116 50.6671 85.424 50.3286 83.3363C50.2721 82.9414 50.385 82.7157 50.6671 82.49C50.8928 82.3207 51.1185 82.3207 51.3442 82.49C51.6263 82.6593 51.7391 82.9978 51.6827 83.3363C51.6263 83.7877 51.6263 84.1827 51.5699 84.6341C51.5699 84.8033 51.6263 84.9162 51.6263 85.1983Z" fill="#211E1F"/>
<path d="M60.2589 86.7785C61.1617 86.8913 62.008 87.0606 62.798 87.2299C63.5879 87.3991 64.3214 87.6813 64.9984 88.1326C65.7884 88.6404 66.2397 89.3175 66.2962 90.2767C66.2962 90.6717 66.1833 91.0666 65.9576 91.4052C65.8448 91.5744 65.6755 91.6308 65.5062 91.5744C65.2806 91.4616 65.337 91.2923 65.3934 91.123C65.6755 90.1639 65.3934 89.4868 64.5471 88.9226C63.7007 88.3583 62.7415 88.1326 61.7259 87.9634C60.936 87.8505 60.0897 87.8505 59.2998 87.907C59.0176 87.907 58.7919 87.907 58.6791 87.6248C58.5663 87.3427 58.5663 87.117 58.792 86.8913C59.469 86.2143 60.2025 85.5372 60.8232 84.7473C61.5567 83.7881 62.0645 82.7725 62.5158 81.7005C62.5723 81.5876 62.6287 81.4748 62.6851 81.3619C62.8544 81.1362 63.0236 81.0234 63.3058 81.0798C63.5879 81.1362 63.7007 81.3619 63.7571 81.644C63.7571 81.9826 63.6443 82.3211 63.475 82.6596C62.9108 83.7881 62.0645 84.6909 61.2745 85.65C61.0489 85.9886 60.6539 86.3271 60.2589 86.7785Z" fill="#211E1F"/>
<path d="M57.7768 82.2083C57.9461 80.9106 58.1153 79.6129 58.3974 78.3716C58.5103 77.9202 58.6231 77.5252 58.7924 77.1303C58.9053 76.9046 59.0181 76.6789 59.3566 76.7917C59.7516 76.961 59.9209 77.2431 59.808 77.5816C59.5259 78.3151 59.3002 79.1051 59.1309 79.8386C58.3975 82.9418 58.0589 86.045 58.736 89.2047C58.7924 89.5997 58.9617 89.9382 59.0745 90.3332C59.1874 90.6717 59.4131 90.9538 59.808 91.0667C59.9773 91.1231 60.2594 91.1795 60.1465 91.4616C60.0901 91.7437 59.8644 91.8002 59.5823 91.7437C58.9617 91.6309 58.5103 91.2359 58.1718 90.7281C57.6075 89.8818 57.4947 88.8662 57.3254 87.907C57.0997 86.2707 57.3254 84.6909 57.5511 83.0546C57.664 82.7725 57.7204 82.4904 57.7768 82.2083Z" fill="#211E1F"/>
<defs>
<linearGradient id="paint0_linear" x1="102.2" y1="90.3085" x2="51.9552" y2="8.51413" gradientUnits="userSpaceOnUse">
<stop stop-color="#56803A"/>
<stop offset="0.2905" stop-color="#6459A3"/>
<stop offset="0.4756" stop-color="#EC538B"/>
<stop offset="0.6293" stop-color="#EDAB1F"/>
<stop offset="0.7741" stop-color="#2081C4"/>
<stop offset="1" stop-color="#F37721"/>
</linearGradient>
<linearGradient id="paint1_linear" x1="105.663" y1="150.474" x2="105.663" y2="-43.5808" gradientUnits="userSpaceOnUse">
<stop stop-color="#56803A"/>
<stop offset="0.2905" stop-color="#6459A3"/>
<stop offset="0.4756" stop-color="#EC538B"/>
<stop offset="0.6293" stop-color="#EDAB1F"/>
<stop offset="0.7741" stop-color="#2081C4"/>
<stop offset="1" stop-color="#F37721"/>
</linearGradient>
<linearGradient id="paint2_linear" x1="143.478" y1="150.474" x2="143.478" y2="-43.5817" gradientUnits="userSpaceOnUse">
<stop stop-color="#56803A"/>
<stop offset="0.2905" stop-color="#6459A3"/>
<stop offset="0.4756" stop-color="#EC538B"/>
<stop offset="0.6293" stop-color="#EDAB1F"/>
<stop offset="0.7741" stop-color="#2081C4"/>
<stop offset="1" stop-color="#F37721"/>
</linearGradient>
</defs>
</svg>
