<svg width="216" height="85" viewBox="0 0 216 85" fill="none" xmlns="http://www.w3.org/2000/svg">
<path d="M41.6904 78.6421C41.6904 79.6873 41.4513 80.5295 40.9731 81.1685C40.495 81.8075 39.8475 82.127 39.0308 82.127C38.1971 82.127 37.5412 81.8625 37.063 81.3335V84.6406H35.8887V75.1318H36.9614L37.0186 75.8936C37.4967 75.3011 38.1611 75.0049 39.0117 75.0049C39.8369 75.0049 40.4886 75.3159 40.9668 75.938C41.4492 76.5601 41.6904 77.4255 41.6904 78.5342V78.6421ZM40.5161 78.5088C40.5161 77.7344 40.3511 77.1229 40.021 76.6743C39.6909 76.2257 39.2381 76.0015 38.6626 76.0015C37.9517 76.0015 37.4185 76.3167 37.063 76.9473V80.229C37.4142 80.8553 37.9517 81.1685 38.6753 81.1685C39.2381 81.1685 39.6846 80.9463 40.0146 80.502C40.349 80.0534 40.5161 79.389 40.5161 78.5088ZM43.0074 78.5024C43.0074 77.8296 43.1386 77.2244 43.401 76.687C43.6676 76.1496 44.0358 75.7349 44.5055 75.4429C44.9794 75.1509 45.519 75.0049 46.1241 75.0049C47.0594 75.0049 47.8147 75.3286 48.3903 75.9761C48.97 76.6235 49.2599 77.4847 49.2599 78.5596V78.6421C49.2599 79.3107 49.1308 79.9116 48.8727 80.4448C48.6188 80.9738 48.2527 81.3864 47.7745 81.6826C47.3006 81.9788 46.7547 82.127 46.1368 82.127C45.2058 82.127 44.4505 81.8032 43.8707 81.1558C43.2952 80.5083 43.0074 79.6514 43.0074 78.585V78.5024ZM44.1881 78.6421C44.1881 79.4038 44.3637 80.0153 44.715 80.4766C45.0704 80.9378 45.5444 81.1685 46.1368 81.1685C46.7335 81.1685 47.2075 80.9357 47.5587 80.4702C47.9099 80.0005 48.0856 79.3446 48.0856 78.5024C48.0856 77.7492 47.9057 77.1398 47.546 76.6743C47.1905 76.2046 46.7166 75.9697 46.1241 75.9697C45.5444 75.9697 45.0768 76.2004 44.7213 76.6616C44.3658 77.1229 44.1881 77.783 44.1881 78.6421ZM56.9436 80.3813L58.2639 75.1318H59.4382L57.4387 82H56.4866L54.8171 76.7949L53.1921 82H52.24L50.2468 75.1318H51.4148L52.7668 80.2734L54.3664 75.1318H55.3122L56.9436 80.3813ZM63.618 82.127C62.687 82.127 61.9296 81.8223 61.3456 81.2129C60.7616 80.5993 60.4696 79.7804 60.4696 78.7563V78.5405C60.4696 77.8592 60.5987 77.252 60.8568 76.7188C61.1192 76.1813 61.4831 75.7624 61.9486 75.4619C62.4183 75.1572 62.9261 75.0049 63.472 75.0049C64.3649 75.0049 65.0589 75.299 65.5541 75.8872C66.0492 76.4754 66.2967 77.3175 66.2967 78.4136V78.9023H61.6439C61.6608 79.5794 61.8576 80.1274 62.2342 80.5464C62.6151 80.9611 63.0975 81.1685 63.6815 81.1685C64.0962 81.1685 64.4475 81.0838 64.7352 80.9146C65.023 80.7453 65.2748 80.521 65.4906 80.2417L66.2079 80.8003C65.6323 81.6847 64.7691 82.127 63.618 82.127ZM63.472 75.9697C62.9981 75.9697 62.6003 76.1432 62.2787 76.4902C61.9571 76.833 61.7582 77.3154 61.682 77.9375H65.1224V77.8486C65.0886 77.252 64.9278 76.7907 64.64 76.4648C64.3522 76.1348 63.9629 75.9697 63.472 75.9697ZM71.1113 76.1855C70.9336 76.1559 70.741 76.1411 70.5337 76.1411C69.7635 76.1411 69.2409 76.4691 68.9658 77.125V82H67.7915V75.1318H68.9341L68.9531 75.9253C69.3382 75.3117 69.8841 75.0049 70.5908 75.0049C70.8193 75.0049 70.9928 75.0345 71.1113 75.0938V76.1855ZM75.0499 82.127C74.1189 82.127 73.3614 81.8223 72.7774 81.2129C72.1935 80.5993 71.9015 79.7804 71.9015 78.7563V78.5405C71.9015 77.8592 72.0305 77.252 72.2887 76.7188C72.551 76.1813 72.915 75.7624 73.3805 75.4619C73.8502 75.1572 74.358 75.0049 74.9039 75.0049C75.7968 75.0049 76.4908 75.299 76.9859 75.8872C77.4811 76.4754 77.7286 77.3175 77.7286 78.4136V78.9023H73.0758C73.0927 79.5794 73.2895 80.1274 73.6661 80.5464C74.047 80.9611 74.5294 81.1685 75.1134 81.1685C75.5281 81.1685 75.8793 81.0838 76.1671 80.9146C76.4549 80.7453 76.7066 80.521 76.9225 80.2417L77.6397 80.8003C77.0642 81.6847 76.2009 82.127 75.0499 82.127ZM74.9039 75.9697C74.4299 75.9697 74.0322 76.1432 73.7105 76.4902C73.3889 76.833 73.19 77.3154 73.1139 77.9375H76.5543V77.8486C76.5204 77.252 76.3596 76.7907 76.0719 76.4648C75.7841 76.1348 75.3948 75.9697 74.9039 75.9697ZM78.9377 78.5088C78.9377 77.4551 79.1874 76.6087 79.6867 75.9697C80.1861 75.3265 80.8399 75.0049 81.6482 75.0049C82.4522 75.0049 83.0891 75.2799 83.5588 75.8301V72.25H84.7331V82H83.654L83.5969 81.2637C83.1272 81.8392 82.4734 82.127 81.6355 82.127C80.8399 82.127 80.1903 81.8011 79.6867 81.1494C79.1874 80.4977 78.9377 79.6471 78.9377 78.5977V78.5088ZM80.112 78.6421C80.112 79.4207 80.2728 80.0301 80.5945 80.4702C80.9161 80.9103 81.3604 81.1304 81.9275 81.1304C82.6723 81.1304 83.216 80.7961 83.5588 80.1274V76.9727C83.2076 76.3252 82.668 76.0015 81.9402 76.0015C81.3646 76.0015 80.9161 76.2236 80.5945 76.668C80.2728 77.1123 80.112 77.7703 80.112 78.6421ZM95.8603 78.6421C95.8603 79.6916 95.6191 80.5358 95.1367 81.1748C94.6543 81.8096 94.0068 82.127 93.1943 82.127C92.3268 82.127 91.656 81.8201 91.1821 81.2065L91.125 82H90.0459V72.25H91.2202V75.8872C91.6941 75.299 92.3479 75.0049 93.1816 75.0049C94.0153 75.0049 94.6691 75.3201 95.143 75.9507C95.6212 76.5812 95.8603 77.4445 95.8603 78.5405V78.6421ZM94.686 78.5088C94.686 77.709 94.5315 77.0911 94.2226 76.6553C93.9137 76.2194 93.4694 76.0015 92.8896 76.0015C92.1152 76.0015 91.5587 76.3612 91.2202 77.0806V80.0513C91.5799 80.7707 92.1406 81.1304 92.9023 81.1304C93.4651 81.1304 93.9031 80.9124 94.2163 80.4766C94.5294 80.0407 94.686 79.3848 94.686 78.5088ZM99.6466 80.2798L101.246 75.1318H102.503L99.7418 83.0601C99.3144 84.2026 98.6352 84.7739 97.7042 84.7739L97.482 84.7549L97.044 84.6724V83.7202L97.3614 83.7456C97.7592 83.7456 98.0681 83.6652 98.2882 83.5044C98.5124 83.3436 98.6965 83.0495 98.8404 82.6221L99.1007 81.9238L96.6505 75.1318H97.9327L99.6466 80.2798Z" fill="#454545"/>
<path d="M149.067 79.2189L151.599 71.8035H154.312L150.604 81.751H147.53L143.822 71.8035H146.535L149.067 79.2189Z" fill="#03AEA0"/>
<path d="M164.712 77.1389C164.712 76.9581 164.712 76.7772 164.712 76.6868C164.712 76.5059 164.712 76.2346 164.712 76.0538C164.44 73.5216 162.27 71.6226 159.647 71.6226C157.025 71.6226 154.855 73.5216 154.583 76.0538C154.583 76.2346 154.583 76.5059 154.583 76.6868C154.583 76.8676 154.583 77.0485 154.583 77.1389C154.583 77.5007 154.674 77.772 154.764 78.1337C155.397 80.2136 157.387 81.751 159.647 81.751C161.908 81.751 163.898 80.2136 164.531 78.1337H161.818C161.547 79.038 160.642 79.7615 159.647 79.7615C158.653 79.7615 157.748 79.1285 157.477 78.1337C157.387 77.9528 157.387 77.6815 157.387 77.4102C157.387 77.3198 157.387 77.2294 157.387 77.1389H164.712ZM159.647 73.5216C161.004 73.5216 161.999 74.6068 161.999 75.8729V75.9633H157.296V75.8729C157.206 74.6068 158.291 73.5216 159.647 73.5216Z" fill="#03AEA0"/>
<path d="M143.37 77.1389C143.37 76.9581 143.37 76.7772 143.37 76.6868C143.37 76.5059 143.37 76.2346 143.37 76.0538C143.098 73.5216 140.928 71.6226 138.305 71.6226C135.683 71.6226 133.512 73.5216 133.241 76.0538C133.241 76.2346 133.241 76.5059 133.241 76.6868C133.241 76.8676 133.241 77.0485 133.241 77.1389C133.241 77.5007 133.332 77.772 133.422 78.1337C134.055 80.2136 136.045 81.751 138.305 81.751C140.566 81.751 142.556 80.2136 143.189 78.1337H140.476C140.204 79.038 139.3 79.7615 138.305 79.7615C137.311 79.7615 136.406 79.1285 136.135 78.1337C136.045 77.9528 136.045 77.6815 136.045 77.4102C136.045 77.3198 136.045 77.2294 136.045 77.1389H143.37ZM138.305 73.5216C139.662 73.5216 140.657 74.6068 140.657 75.8729V75.9633H135.954V75.8729C135.954 74.6068 137.039 73.5216 138.305 73.5216Z" fill="#03AEA0"/>
<path d="M173.122 75.3303V81.6606H172.218V78.7668H169.143V81.6606H168.239V75.3303H169.143V78.1337H172.218V75.3303H173.122Z" fill="#5D6765"/>
<path d="M178.096 81.6606L176.649 79.0381H176.558H175.021V81.6606H174.117V75.3303H176.558C177.915 75.3303 178.819 76.0538 178.819 77.139C178.819 78.0433 178.277 78.6763 177.463 78.9476L179 81.751H178.096V81.6606ZM175.021 78.405H176.649C177.463 78.405 177.915 77.9529 177.915 77.2294C177.915 76.5059 177.372 76.0538 176.649 76.0538H175.021V78.405Z" fill="#5D6765"/>
<path d="M123.203 77.5911C122.661 79.3093 121.033 80.5753 119.134 80.5753C117.235 80.5753 115.607 79.3093 115.064 77.5911H110C111.176 81.5701 114.883 84.3735 119.134 84.3735C123.384 84.3735 127.092 81.5701 128.267 77.5911H123.203Z" fill="url(#paint0_linear)"/>
<path d="M119.134 69C121.575 69 123.565 70.9895 123.565 73.4312C123.565 73.5216 123.565 73.5216 123.565 73.6121H114.703C114.703 73.5216 114.703 73.5216 114.703 73.4312C114.703 70.9895 116.692 69 119.134 69Z" fill="url(#paint1_linear)"/>
<path d="M0 50.2129V0.496338H17.8236C24.5749 0.496338 29.796 2.47421 33.4867 6.34005C37.1774 10.2059 39.0678 15.8698 39.0678 23.3318V27.3774C38.9778 34.8394 37.1774 40.5033 33.4867 44.3692C29.796 48.235 24.5749 50.2129 17.8236 50.2129H0ZM17.4635 11.7343H13.0526V38.975H17.4635C20.3441 38.975 22.4145 37.986 23.7647 36.098C25.115 34.2101 25.7451 31.1534 25.8352 26.9279V23.7813C25.8352 19.5558 25.205 16.4991 23.8548 14.6112C22.5045 12.7232 20.4341 11.7343 17.4635 11.7343Z" fill="#D32027"/>
<path d="M45.9992 50.2129V0.496338H59.1418V19.4659H72.5545V0.496338H85.6971V50.2129H72.5545V30.7038H59.1418V50.2129H45.9992Z" fill="#D32027"/>
<path d="M94.3389 50.2129V0.496338H107.481V38.6153H124.855V50.2129H94.3389Z" fill="#D32027"/>
<path d="M150.33 50.2129V39.5144H127.375V31.0635L146.459 0.496338H161.492V30.524H168.064V39.5144H161.492V50.2129H150.33ZM149.16 10.8352L136.827 30.6139H150.33V10.8352H149.16Z" fill="black"/>
<path d="M195.159 50.8853C188.588 50.8853 183.457 48.9973 179.856 45.3113C176.255 41.6252 174.455 35.9613 174.455 28.4094V0H185.887V27.87C185.887 32.3652 186.697 35.6017 188.228 37.6695C189.758 39.7373 192.098 40.8161 195.249 40.8161C198.4 40.8161 200.74 39.7373 202.27 37.6695C203.801 35.6017 204.611 32.2753 204.611 27.87V0H215.683V28.4094C215.683 35.9613 213.883 41.6252 210.372 45.3113C206.861 48.9973 201.82 50.8853 195.159 50.8853Z" fill="black"/>
<defs>
<linearGradient id="paint0_linear" x1="110.975" y1="80.9022" x2="125.369" y2="80.9988" gradientUnits="userSpaceOnUse">
<stop stop-color="#69BE5F"/>
<stop offset="1" stop-color="#03AEA0"/>
</linearGradient>
<linearGradient id="paint1_linear" x1="111.04" y1="71.2735" x2="125.434" y2="71.3701" gradientUnits="userSpaceOnUse">
<stop stop-color="#69BE5F"/>
<stop offset="1" stop-color="#03AEA0"/>
</linearGradient>
</defs>
</svg>
