<svg fill="none" height="93" viewBox="0 0 240 93" width="240" xmlns="http://www.w3.org/2000/svg" xmlns:xlink="http://www.w3.org/1999/xlink"><linearGradient id="a"><stop offset="0" stop-color="#69be5f"/><stop offset="1" stop-color="#03aea0"/></linearGradient><linearGradient id="b" gradientUnits="userSpaceOnUse" x1="121.975" x2="136.369" xlink:href="#a" y1="88.9022" y2="88.9989"/><linearGradient id="c" gradientUnits="userSpaceOnUse" x1="122.04" x2="136.434" xlink:href="#a" y1="79.2735" y2="79.3701"/><clipPath id="d"><path d="m0 0h240v59.2208h-240z"/></clipPath><path d="m56.6904 86.6421c0 1.0452-.2391 1.8874-.7173 2.5264-.4781.639-1.1256.9585-1.9423.9585-.8337 0-1.4896-.2645-1.9678-.7935v3.3071h-1.1743v-9.5088h1.0727l.0572.7618c.4781-.5925 1.1425-.8887 1.9931-.8887.8252 0 1.4769.311 1.9551.9331.4824.6221.7236 1.4875.7236 2.5962zm-1.1743-.1333c0-.7744-.165-1.3859-.4951-1.8345s-.7829-.6728-1.3584-.6728c-.7109 0-1.2441.3152-1.5996.9458v3.2817c.3512.6263.8887.9395 1.6123.9395.5628 0 1.0093-.2222 1.3393-.6665.3344-.4486.5015-1.113.5015-1.9932zm2.4913-.0064c0-.6728.1312-1.278.3936-1.8154.2666-.5374.6348-.9521 1.1045-1.2441.4739-.292 1.0135-.438 1.6186-.438.9353 0 1.6906.3237 2.2662.9712.5797.6474.8696 1.5086.8696 2.5835v.0825c0 .6686-.1291 1.2695-.3872 1.8027-.2539.529-.62.9416-1.0982 1.2378-.4739.2962-1.0198.4444-1.6377.4444-.931 0-1.6863-.3238-2.2661-.9712-.5755-.6475-.8633-1.5044-.8633-2.5708zm1.1807.1397c0 .7617.1756 1.3732.5269 1.8345.3554.4612.8294.6919 1.4218.6919.5967 0 1.0707-.2328 1.4219-.6983.3512-.4697.5269-1.1256.5269-1.9678 0-.7532-.1799-1.3626-.5396-1.8281-.3555-.4697-.8294-.7046-1.4219-.7046-.5797 0-1.0473.2307-1.4028.6919-.3555.4613-.5332 1.1214-.5332 1.9805zm12.7555 1.7392 1.3203-5.2495h1.1743l-1.9995 6.8682h-.9521l-1.6695-5.2051-1.625 5.2051h-.9521l-1.9932-6.8682h1.168l1.352 5.1416 1.5996-5.1416h.9458zm6.6744 1.7457c-.931 0-1.6884-.3047-2.2724-.9141-.584-.6136-.876-1.4325-.876-2.4566v-.2158c0-.6813.1291-1.2885.3872-1.8217.2624-.5375.6263-.9564 1.0918-1.2569.4697-.3047.9775-.457 1.5234-.457.8929 0 1.5869.2941 2.0821.8823.4951.5882.7426 1.4303.7426 2.5264v.4887h-4.6528c.0169.6771.2137 1.2251.5903 1.6441.3809.4147.8633.6221 1.4473.6221.4147 0 .766-.0847 1.0537-.2539.2878-.1693.5396-.3936.7554-.6729l.7173.5586c-.5756.8844-1.4388 1.3267-2.5899 1.3267zm-.146-6.1573c-.4739 0-.8717.1735-1.1933.5205-.3216.3428-.5205.8252-.5967 1.4473h3.4404v-.0889c-.0338-.5966-.1946-1.0579-.4824-1.3838-.2878-.33-.6771-.4951-1.168-.4951zm7.6393.2158c-.1777-.0296-.3703-.0444-.5776-.0444-.7702 0-1.2928.328-1.5679.9839v4.875h-1.1743v-6.8682h1.1426l.019.7935c.3851-.6136.931-.9204 1.6377-.9204.2285 0 .402.0296.5205.0889zm3.9386 5.9415c-.931 0-1.6885-.3047-2.2725-.9141-.5839-.6136-.8759-1.4325-.8759-2.4566v-.2158c0-.6813.129-1.2885.3872-1.8217.2623-.5375.6263-.9564 1.0918-1.2569.4697-.3047.9775-.457 1.5234-.457.8929 0 1.5869.2941 2.082.8823.4952.5882.7427 1.4303.7427 2.5264v.4887h-4.6528c.0169.6771.2137 1.2251.5903 1.6441.3809.4147.8633.6221 1.4473.6221.4147 0 .7659-.0847 1.0537-.2539.2878-.1693.5395-.3936.7554-.6729l.7172.5586c-.5755.8844-1.4388 1.3267-2.5898 1.3267zm-.146-6.1573c-.474 0-.8717.1735-1.1934.5205-.3216.3428-.5205.8252-.5966 1.4473h3.4404v-.0889c-.0339-.5966-.1947-1.0579-.4824-1.3838-.2878-.33-.6771-.4951-1.168-.4951zm4.0338 2.5391c0-1.0537.2497-1.9001.749-2.5391.4994-.6432 1.1532-.9648 1.9615-.9648.804 0 1.4409.275 1.9106.8252v-3.5801h1.1743v9.75h-1.0791l-.0571-.7363c-.4697.5755-1.1235.8633-1.9614.8633-.7956 0-1.4452-.3259-1.9488-.9776-.4993-.6517-.749-1.5023-.749-2.5517zm1.1743.1333c0 .7786.1608 1.388.4825 1.8281.3216.4401.7659.6602 1.333.6602.7448 0 1.2885-.3343 1.6313-1.003v-3.1547c-.3512-.6475-.8908-.9712-1.6186-.9712-.5756 0-1.0241.2221-1.3457.6665-.3217.4443-.4825 1.1023-.4825 1.9741zm15.748 0c0 1.0495-.241 1.8937-.723 2.5327-.483.6348-1.13.9522-1.943.9522-.867 0-1.538-.3069-2.012-.9205l-.057.7935h-1.079v-9.75h1.174v3.6372c.474-.5882 1.128-.8823 1.962-.8823.833 0 1.487.3152 1.961.9458.478.6305.717 1.4938.717 2.5898zm-1.174-.1333c0-.7998-.154-1.4177-.463-1.8535-.309-.4359-.754-.6538-1.333-.6538-.775 0-1.331.3597-1.67 1.0791v2.9707c.36.7194.921 1.0791 1.682 1.0791.563 0 1.001-.218 1.314-.6538.313-.4359.47-1.0918.47-1.9678zm4.961 1.771 1.599-5.148h1.257l-2.761 7.9283c-.428 1.1425-1.107 1.7138-2.038 1.7138l-.222-.019-.438-.0825v-.9522l.317.0254c.398 0 .707-.0804.927-.2412.224-.1608.409-.4549.552-.8823l.261-.6983-2.451-6.792h1.283z" fill="#000"/><g fill="#03aea0"><path d="m160.067 87.2189 2.532-7.4155h2.713l-3.708 9.9476h-3.074l-3.708-9.9476h2.713z"/><path d="m175.712 85.1389c0-.1808 0-.3617 0-.4521 0-.1809 0-.4522 0-.6331-.272-2.5321-2.442-4.4312-5.065-4.4312-2.622 0-4.792 1.8991-5.064 4.4312v.6331.4521c0 .3618.091.6331.181.9948.633 2.0799 2.623 3.6173 4.883 3.6173 2.261 0 4.251-1.5374 4.884-3.6173h-2.713c-.271.9043-1.176 1.6278-2.171 1.6278-.994 0-1.899-.6331-2.17-1.6278-.09-.1809-.09-.4522-.09-.7235 0-.0904 0-.1808 0-.2713zm-5.065-3.6173c1.357 0 2.352 1.0852 2.352 2.3513v.0904h-4.703v-.0904c-.09-1.2661.995-2.3513 2.351-2.3513z"/><path d="m154.37 85.1389c0-.1808 0-.3617 0-.4521 0-.1809 0-.4522 0-.6331-.272-2.5321-2.442-4.4312-5.065-4.4312-2.622 0-4.793 1.8991-5.064 4.4312v.6331.4521c0 .3618.091.6331.181.9948.633 2.0799 2.623 3.6173 4.883 3.6173 2.261 0 4.251-1.5374 4.884-3.6173h-2.713c-.272.9043-1.176 1.6278-2.171 1.6278-.994 0-1.899-.6331-2.17-1.6278-.09-.1809-.09-.4522-.09-.7235 0-.0904 0-.1808 0-.2713zm-5.065-3.6173c1.357 0 2.352 1.0852 2.352 2.3513v.0904h-4.703v-.0904c0-1.2661 1.085-2.3513 2.351-2.3513z"/></g><path d="m184.122 83.3303v6.3303h-.904v-2.8939h-3.075v2.8939h-.904v-6.3303h.904v2.8034h3.075v-2.8034z" fill="#000"/><path d="m189.096 89.6606-1.447-2.6226h-.091-1.537v2.6226h-.904v-6.3303h2.441c1.357 0 2.261.7234 2.261 1.8086 0 .9044-.542 1.5374-1.356 1.8087l1.537 2.8034h-.904zm-3.075-3.2556h1.628c.814 0 1.266-.4522 1.266-1.1756 0-.7235-.543-1.1757-1.266-1.1757h-1.628z" fill="#000"/><path d="m134.203 85.5911c-.542 1.7182-2.17 2.9843-4.069 2.9843s-3.527-1.2661-4.07-2.9843h-5.064c1.176 3.979 4.883 6.7824 9.134 6.7824 4.25 0 7.958-2.8034 9.133-6.7824z" fill="url(#b)"/><path d="m130.134 77c2.441 0 4.431 1.9895 4.431 4.4312v.1809h-8.862c0-.0905 0-.0905 0-.1809 0-2.4417 1.989-4.4312 4.431-4.4312z" fill="url(#c)"/><g clip-path="url(#d)" fill="#ff8300"><path d="m68.1102 58.0719-26.1962-57.601894c-.1059-.261114-.4234-.470006-.7409-.470006h-14.1831c-.3175 0-.635.208892-.7409.470006l-26.1961924 57.601894c-.1058434.2611-.1058434.5222.0529214.7833.158765.2089.423374.3656.687982.3656h29.741989v-9.9746l-8.8379-4.7523 12.3307-28.6181 12.3308 28.6181-8.785 4.7523v9.9746h29.742c.2646 0 .5292-.1567.688-.3656.2116-.2611.2116-.5222.1058-.7833z"/><path d="m106.849 22.1425h-7.6208v-4.9089h20.7978v4.9089h-7.62v19.7925h-5.557z"/><path d="m143.047 41.9872v-9.7657h-11.219v9.7657h-5.61v-24.7015h5.61v9.8702h11.219v-9.8702h5.504v24.7015z"/><path d="m176.071 41.935h-19.105c0-8.2512 0-16.5024 0-24.7014h18.575v5.0656h-13.071v4.7523h12.33v4.8567h-12.33v4.9612h13.601z"/><path d="m200.732 33.3182-.37-7.7812v-8.3034h5.609v24.7014h-4.815l-12.437-15.8235.212 8.1467v7.6768h-5.663v-24.7014h4.816z"/><path d="m86.8975 17.2336h-6.086l-11.2195 24.7014h6.0331l1.7994-4.2301 1.2172-2.7678 5.2392 2.7156 5.2393-2.7156 1.2172 2.7678 1.7993 4.2301h6.0331zm-3.0695 14.4657-3.1224-1.6189 3.1224-7.259 3.1224 7.259z"/><path d="m228.781 17.2336h-6.086l-11.22 24.7014h6.033l1.8-4.2301 1.217-2.7678 5.239 2.7156 5.239-2.7156 1.217 2.7678 1.8 4.2301h6.033zm-3.07 14.4657-3.122-1.6189 3.122-7.259 3.122 7.259z"/></g></svg>