<?xml version="1.0" encoding="UTF-8" standalone="no"?>
<svg
   xmlns="http://www.w3.org/2000/svg"
   width="124.12707"
   height="68.264214"
   viewBox="0 0 124.12707 68.264214"
   fill="none">
  <defs
     id="defs55">
    <linearGradient
       id="paint0_linear"
       x1="121.975"
       y1="88.902199"
       x2="136.369"
       y2="88.998901"
       gradientUnits="userSpaceOnUse"
       gradientTransform="matrix(0.76253004,0,0,0.76253004,-29.28578,14.929967)">
      <stop
         stop-color="#69BE5F"
         id="stop42" />
      <stop
         offset="1"
         stop-color="#03AEA0"
         id="stop44" />
    </linearGradient>
    <linearGradient
       id="paint1_linear"
       x1="122.04"
       y1="79.273499"
       x2="136.43401"
       y2="79.370102"
       gradientUnits="userSpaceOnUse"
       gradientTransform="matrix(0.76253004,0,0,0.76253004,-29.28578,14.929967)">
      <stop
         stop-color="#69BE5F"
         id="stop47" />
      <stop
         offset="1"
         stop-color="#03AEA0"
         id="stop49" />
    </linearGradient>
    <clipPath
       id="clip0">
      <rect
         width="240"
         height="59.220798"
         fill="#ffffff"
         id="rect52"
         x="0"
         y="0" />
    </clipPath>
  </defs>
  <g
     id="#00b9b9ff"
     transform="scale(0.24243568)">
    <path
       fill="#00b9b9"
       opacity="1"
       d="m 51.59,0 h 11.82 c 9.24,0.78 18.62,2.36 27,6.55 8.64,4.19 15.89,11.28 20.08,19.95 1.26,2.59 2,6.29 -0.58,8.36 -3.99,3.12 -9.01,4.43 -13.54,6.55 -4.44,1.77 -8.64,4.37 -13.41,5.19 C 79.48,46.96 78,43 76.22,40.73 73.65,36.13 69,32.97 63.81,32.16 c -6.56,-0.98 -13.68,-1.04 -19.8,1.83 -4.91,2.16 -6.26,9.59 -1.96,13.02 4.63,3.63 10.71,4.4 16.35,5.33 12.13,1.52 24.5,3.29 35.68,8.54 6.75,3.13 12.56,8.36 16.04,14.98 4.34,8.24 5.4,17.89 4.45,27.06 -1.16,10.41 -7.14,19.99 -15.67,25.99 -13.44,9.81 -30.72,12.36 -46.98,11.81 C 38.1,140.3 23.47,137.52 12.55,128.46 6.74,123.76 2.97,117.14 0,110.41 v -5.39 c 5.24,-5.03 12.56,-6.41 19.07,-9.05 3.67,-1.21 7.71,-3.18 11.58,-1.71 4.05,2.63 5.61,7.76 9.68,10.41 6.02,3.95 13.58,4.31 20.55,3.88 4.62,-0.44 9.68,-1.16 13.22,-4.45 2.96,-2.68 3.74,-7.95 0.56,-10.77 C 70.54,89.62 64.86,88.54 59.59,87.44 47.76,85.42 35.63,84.14 24.4,79.62 16.81,76.59 9.9,71.32 5.95,64.06 1.64,56.16 0.5,46.85 1.25,37.98 1.96,29.59 5.69,21.56 11.54,15.53 21.89,4.79 37.21,1.09 51.59,0 Z"
       id="path122" />
    <path
       fill="#00b9b9"
       opacity="1"
       d="m 135.97,4.99 c 2.03,-2.17 5.27,-2.04 8.01,-2.16 17,0.07 34,0.01 51,0.04 9.53,0.02 19.26,1.82 27.61,6.59 10.63,5.85 17.88,16.79 20.08,28.63 1.79,9.94 1.57,20.4 -1.48,30.08 -3.78,12.18 -13.77,22.21 -25.88,26.17 -13.91,4.87 -28.85,2.41 -43.25,3.02 -0.88,7.4 0.71,15.21 -2.5,22.23 -4.35,11.34 -16.42,19 -28.51,18.28 -2.93,-0.11 -6.22,-1.89 -6.62,-5.05 -0.62,-4.24 -0.22,-8.55 -0.29,-12.82 -0.01,-36.02 0.03,-72.04 -0.02,-108.06 0.1,-2.38 0.11,-5.1 1.85,-6.95 m 35.95,31.21 c -0.36,9.26 -0.3,18.54 -0.03,27.81 6.38,0.25 12.77,0.2 19.15,0.1 4.14,-0.08 8.81,-1.13 11.34,-4.72 2.88,-4.27 2.88,-9.85 1.77,-14.7 -1.22,-5.01 -6.2,-8.22 -11.19,-8.38 -7,-0.37 -14.03,-0.2 -21.04,-0.11 z"
       id="path124" />
    <path
       fill="#00b9b9"
       opacity="1"
       d="m 253.03,7.04 c -0.29,-2.69 2.63,-4.06 4.91,-4.06 6.67,-0.37 13.37,0.01 20.05,-0.15 4.58,0.09 9.66,-0.17 13.55,2.67 2.34,1.56 3.32,4.32 4.05,6.91 5.12,18.82 10.39,37.6 15.59,56.4 2.23,7.69 4.4,15.45 5.24,23.44 0.43,3.07 0.3,6.4 2.17,9.05 0.96,-4.64 1.11,-9.4 1.91,-14.06 0.97,-5.93 2.72,-11.68 4.31,-17.46 5.23,-19.07 10.59,-38.1 15.77,-57.18 0.85,-3.05 2.17,-6.34 5.17,-7.85 4.98,-2.63 10.84,-1.74 16.25,-1.9 5.85,0.25 11.82,-0.61 17.59,0.57 3.52,0.97 2.5,5.23 1.62,7.77 -13.85,39.82 -27.74,79.62 -41.58,119.44 -1.07,3.23 -3.39,6.38 -6.96,6.92 -5.84,0.93 -11.79,0.28 -17.67,0.46 -4.52,-0.09 -9.13,0.41 -13.56,-0.68 -3.24,-0.8 -5,-3.92 -6.01,-6.85 -12.96,-37.31 -25.98,-74.59 -39,-111.87 -1.24,-3.81 -3.12,-7.51 -3.4,-11.57 z"
       id="path126" />
    <path
       fill="#00b9b9"
       opacity="1"
       d="m 401.78,5.8 c 1.88,-3.14 5.97,-3.12 9.19,-3.22 17.67,0.11 35.34,0.04 53.02,0.05 10.02,0.01 20.49,1.66 28.88,7.51 6.83,4.55 11.37,12.06 12.82,20.08 1.51,8.51 1.07,17.72 -2.94,25.52 -2.28,4.54 -6.18,7.92 -9.77,11.39 4.1,2.78 8.58,5.24 11.7,9.19 4.47,5.43 6.38,12.42 7.32,19.27 v 9.86 c -1.35,7.07 -4.01,14.17 -9.26,19.29 -9.33,9.28 -22.81,13.09 -35.71,13.19 -18.01,0.2 -36.03,-0.05 -54.05,0.13 -3.21,-0.12 -6.7,0.18 -9.58,-1.49 -2.54,-1.57 -2.63,-4.87 -2.78,-7.52 -0.01,-38.35 0.11,-76.71 -0.05,-115.06 0.1,-2.74 -0.12,-5.69 1.21,-8.19 m 36.54,27.52 c -0.13,6.9 -0.11,13.79 -0.02,20.68 6.23,0.49 12.49,0.34 18.73,0.22 3.83,-0.07 8.35,-1.11 10.2,-4.85 1.59,-3.78 1.51,-8.45 -0.61,-12 -2.05,-3.18 -6.09,-3.96 -9.59,-4.07 -6.24,-0.11 -12.48,-0.1 -18.71,0.02 m -0.03,51.76 c -0.07,7.28 -0.07,14.56 0,21.83 6.9,0.47 13.82,0.19 20.73,0.25 3.99,-0.04 8.66,-0.43 11.29,-3.87 2.74,-3.85 2.79,-9.32 0.86,-13.54 -2.33,-4.32 -7.75,-4.99 -12.17,-4.92 -6.9,0.09 -13.82,-0.21 -20.71,0.25 z"
       id="path128" />
  </g>
  <g
     id="#1961b9ff"
     transform="scale(0.24243568)">
    <path
       fill="#1961b9"
       opacity="1"
       d="m 361.43,179.56 c 9.13,-1 18.62,0.02 26.97,4.01 13.7,6.22 23.82,19.25 27.18,33.84 3.47,15.15 0.87,32.02 -8.56,44.59 -6.89,9.59 -17.5,16.37 -29.06,18.68 -11.58,2.01 -24.08,0.76 -34.3,-5.35 -12.67,-7.04 -21.3,-20.25 -23.81,-34.4 -2.39,-12.83 -0.47,-26.6 6.23,-37.89 7.29,-12.75 20.72,-21.83 35.35,-23.48 m 0.99,17.13 c -10.53,1.86 -19.2,10.17 -22.58,20.16 -4.63,13.84 -2.18,31.17 9.42,40.92 7.25,6.55 17.94,8.15 27.17,5.6 7.72,-2.3 14.19,-8.1 17.72,-15.29 7.06,-14.03 5.2,-32.77 -6.34,-43.9 -6.53,-6.58 -16.37,-9.16 -25.39,-7.49 z"
       id="path131" />
    <path
       fill="#1961b9"
       opacity="1"
       d="m 465.08,180.12 c 12.89,-2.39 26.77,-0.15 37.86,6.99 3.13,2.09 6.5,4.95 6.76,8.99 0.45,5.33 -5.71,10.63 -10.77,7.9 -5.33,-2.83 -10.52,-6.14 -16.52,-7.38 -7.49,-1.76 -16.26,-1.7 -22.65,3.12 -5,3.66 -5.16,12.01 -0.4,15.93 3.83,3.15 8.8,4.35 13.53,5.45 10.27,2.29 21.37,3.51 30.1,9.89 5.4,3.78 8,10.22 9.01,16.52 v 9 c -1.72,6.5 -5.2,12.7 -10.69,16.74 -9.64,7.5 -22.49,9.21 -34.33,7.91 -9.57,-0.8 -18.99,-4.55 -26.1,-11.08 -2.43,-2.21 -4.14,-5.51 -3.52,-8.86 0.7,-4.59 6.02,-7.8 10.4,-6.22 3.24,1.28 5.88,3.64 8.83,5.44 7.08,4.6 16,5.63 24.21,4.28 5.02,-1.01 10.32,-3.36 12.96,-7.99 2.46,-4.93 -0.15,-11.13 -4.76,-13.76 -10.34,-6.38 -23.3,-4.63 -34.08,-9.87 -6.66,-2.89 -12.49,-8.26 -14.67,-15.33 -2.6,-8.53 -1.82,-18.58 3.81,-25.77 5.09,-6.56 13.02,-10.33 21.02,-11.9 z"
       id="path133" />
  </g>
  <g
     id="#0764d6ff"
     transform="scale(0.24243568)">
    <path
       fill="#0764d6"
       opacity="1"
       d="m 62.19,185.18 c 2.48,-2.35 5.19,-5.08 8.81,-5.27 4.79,-0.33 8.59,4.54 8.33,9.07 -0.43,3.08 -2.96,5.23 -5.03,7.32 -5.58,5.08 -11.08,10.25 -16.54,15.46 -4.08,3.95 -8.57,7.51 -12.07,12.02 10.07,13.7 20.68,27 31,40.51 1.8,2.47 3.35,5.5 2.65,8.64 -1.03,5.8 -8.52,8.96 -13.55,6.23 -3.83,-2.82 -6.21,-7.11 -9.18,-10.75 C 48.29,257.9 40.46,247 31.87,236.71 c -4.8,3.8 -9.79,7.67 -13.32,12.72 -1.47,8.3 0.77,16.89 -1.06,25.16 -1.1,4.46 -6.29,6.24 -10.41,5.44 C 3.96,279.65 1.84,277.1 0,274.82 v -88.61 c 2.2,-2.83 5.1,-5.78 9,-5.6 4.75,-0.41 9.09,3.57 9,8.36 0.53,12.76 -0.23,25.56 0.28,38.33 2.4,-1.92 4.74,-3.93 6.93,-6.08 12.18,-12.17 24.77,-23.91 36.98,-36.04 z"
       id="path136" />
    <path
       fill="#0764d6"
       opacity="1"
       d="m 106.33,181.33 c 5.48,-2.77 12.88,1.35 12.83,7.64 0.32,13.66 0,27.35 0.12,41.03 0.13,5.71 -0.53,11.5 0.64,17.14 2.14,9.5 11.39,16.62 21.06,16.69 8.96,0.41 17.95,-4.81 21.92,-12.87 1.86,-3.69 2.15,-7.9 2.14,-11.95 -0.07,-15.68 0.01,-31.37 -0.07,-47.05 -0.05,-3.67 0.26,-8.11 3.74,-10.25 4.88,-3.25 12.54,0.2 12.6,6.28 0.34,17.66 0,35.34 0.15,53 0.3,11.62 -4.69,23.33 -13.57,30.87 -11.41,9.73 -28.23,11.27 -42.05,6.36 -14.17,-5 -24,-19.29 -24.44,-34.2 -0.31,-17.68 -0.01,-35.38 -0.16,-53.07 -0.25,-3.84 1.29,-8.1 5.09,-9.62 z"
       id="path138" />
    <path
       fill="#0764d6"
       opacity="1"
       d="m 217.34,181.31 c 5.1,-1.3 10.45,-0.48 15.66,-0.66 9.67,0.21 19.37,-0.5 29.01,0.43 12.97,1.4 24.41,10.11 30.28,21.6 7.5,14.91 8.3,32.86 2.99,48.61 -3.89,11.49 -12.42,21.72 -23.92,26.11 -8.99,3.73 -18.89,2.55 -28.36,2.72 -7.68,-0.12 -15.37,0.24 -23.05,-0.1 -3.58,-0.01 -7.09,-2.55 -7.69,-6.17 -0.68,-3.91 -0.37,-7.9 -0.4,-11.85 0.04,-23.68 0,-47.36 0,-71.04 -0.26,-3.93 1.41,-8.4 5.48,-9.65 m 12.73,15.76 c -0.13,22.25 -0.22,44.51 0.04,66.76 8.98,0.05 17.97,0.24 26.94,-0.14 8.57,-0.42 16.05,-6.59 19.2,-14.4 4.52,-10.92 4.68,-23.47 1.14,-34.69 -2.09,-6.7 -6.81,-12.8 -13.32,-15.66 -5.05,-2.22 -10.68,-1.98 -16.07,-1.99 -5.98,0.08 -11.96,-0.13 -17.93,0.12 z"
       id="path140" />
  </g>
</svg>
