<svg width="144" height="132" viewBox="0 0 144 132" fill="none" xmlns="http://www.w3.org/2000/svg">
<path d="M6.69043 124.916C6.69043 125.961 6.45133 126.803 5.97314 127.442C5.49495 128.081 4.84749 128.401 4.03076 128.401C3.1971 128.401 2.54118 128.136 2.06299 127.607V130.914H0.888672V121.406H1.96143L2.01855 122.167C2.49674 121.575 3.16113 121.279 4.01172 121.279C4.83691 121.279 5.48861 121.59 5.9668 122.212C6.44922 122.834 6.69043 123.699 6.69043 124.808V124.916ZM5.51611 124.782C5.51611 124.008 5.35107 123.397 5.021 122.948C4.69092 122.499 4.23812 122.275 3.6626 122.275C2.95166 122.275 2.41846 122.59 2.06299 123.221V126.503C2.41423 127.129 2.95166 127.442 3.67529 127.442C4.23812 127.442 4.68457 127.22 5.01465 126.776C5.34896 126.327 5.51611 125.663 5.51611 124.782ZM8.00744 124.776C8.00744 124.103 8.13863 123.498 8.401 122.961C8.6676 122.423 9.03576 122.009 9.50549 121.717C9.97945 121.425 10.519 121.279 11.1241 121.279C12.0594 121.279 12.8147 121.602 13.3903 122.25C13.97 122.897 14.2599 123.758 14.2599 124.833V124.916C14.2599 125.584 14.1308 126.185 13.8727 126.719C13.6188 127.247 13.2527 127.66 12.7745 127.956C12.3006 128.253 11.7547 128.401 11.1368 128.401C10.2058 128.401 9.45048 128.077 8.87072 127.429C8.2952 126.782 8.00744 125.925 8.00744 124.859V124.776ZM9.18811 124.916C9.18811 125.677 9.36372 126.289 9.71496 126.75C10.0704 127.212 10.5444 127.442 11.1368 127.442C11.7335 127.442 12.2075 127.209 12.5587 126.744C12.9099 126.274 13.0856 125.618 13.0856 124.776C13.0856 124.023 12.9057 123.413 12.546 122.948C12.1905 122.478 11.7166 122.243 11.1241 122.243C10.5444 122.243 10.0768 122.474 9.72131 122.935C9.36584 123.397 9.18811 124.057 9.18811 124.916ZM21.9436 126.655L23.2639 121.406H24.4382L22.4387 128.274H21.4866L19.8171 123.069L18.1921 128.274H17.24L15.2468 121.406H16.4148L17.7668 126.547L19.3664 121.406H20.3122L21.9436 126.655ZM28.618 128.401C27.687 128.401 26.9296 128.096 26.3456 127.487C25.7616 126.873 25.4696 126.054 25.4696 125.03V124.814C25.4696 124.133 25.5987 123.526 25.8568 122.992C26.1192 122.455 26.4831 122.036 26.9486 121.736C27.4183 121.431 27.9261 121.279 28.472 121.279C29.3649 121.279 30.0589 121.573 30.5541 122.161C31.0492 122.749 31.2967 123.591 31.2967 124.687V125.176H26.6439C26.6608 125.853 26.8576 126.401 27.2342 126.82C27.6151 127.235 28.0975 127.442 28.6815 127.442C29.0962 127.442 29.4475 127.358 29.7352 127.188C30.023 127.019 30.2748 126.795 30.4906 126.515L31.2079 127.074C30.6323 127.958 29.7691 128.401 28.618 128.401ZM28.472 122.243C27.9981 122.243 27.6003 122.417 27.2787 122.764C26.9571 123.107 26.7582 123.589 26.682 124.211H30.1224V124.122C30.0886 123.526 29.9278 123.064 29.64 122.739C29.3522 122.408 28.9629 122.243 28.472 122.243ZM36.1113 122.459C35.9336 122.43 35.741 122.415 35.5337 122.415C34.7635 122.415 34.2409 122.743 33.9658 123.399V128.274H32.7915V121.406H33.9341L33.9531 122.199C34.3382 121.585 34.8841 121.279 35.5908 121.279C35.8193 121.279 35.9928 121.308 36.1113 121.367V122.459ZM40.0499 128.401C39.1189 128.401 38.3614 128.096 37.7774 127.487C37.1935 126.873 36.9015 126.054 36.9015 125.03V124.814C36.9015 124.133 37.0305 123.526 37.2887 122.992C37.551 122.455 37.915 122.036 38.3805 121.736C38.8502 121.431 39.358 121.279 39.9039 121.279C40.7968 121.279 41.4908 121.573 41.9859 122.161C42.4811 122.749 42.7286 123.591 42.7286 124.687V125.176H38.0758C38.0927 125.853 38.2895 126.401 38.6661 126.82C39.047 127.235 39.5294 127.442 40.1134 127.442C40.5281 127.442 40.8793 127.358 41.1671 127.188C41.4549 127.019 41.7066 126.795 41.9225 126.515L42.6397 127.074C42.0642 127.958 41.2009 128.401 40.0499 128.401ZM39.9039 122.243C39.4299 122.243 39.0322 122.417 38.7105 122.764C38.3889 123.107 38.19 123.589 38.1139 124.211H41.5543V124.122C41.5204 123.526 41.3596 123.064 41.0719 122.739C40.7841 122.408 40.3948 122.243 39.9039 122.243ZM43.9377 124.782C43.9377 123.729 44.1874 122.882 44.6867 122.243C45.1861 121.6 45.8399 121.279 46.6482 121.279C47.4522 121.279 48.0891 121.554 48.5588 122.104V118.524H49.7331V128.274H48.654L48.5969 127.537C48.1272 128.113 47.4734 128.401 46.6355 128.401C45.8399 128.401 45.1903 128.075 44.6867 127.423C44.1874 126.771 43.9377 125.921 43.9377 124.871V124.782ZM45.112 124.916C45.112 125.694 45.2728 126.304 45.5945 126.744C45.9161 127.184 46.3604 127.404 46.9275 127.404C47.6723 127.404 48.216 127.07 48.5588 126.401V123.246C48.2076 122.599 47.668 122.275 46.9402 122.275C46.3646 122.275 45.9161 122.497 45.5945 122.942C45.2728 123.386 45.112 124.044 45.112 124.916ZM60.8603 124.916C60.8603 125.965 60.6191 126.809 60.1367 127.448C59.6543 128.083 59.0068 128.401 58.1943 128.401C57.3268 128.401 56.656 128.094 56.1821 127.48L56.125 128.274H55.0459V118.524H56.2202V122.161C56.6941 121.573 57.3479 121.279 58.1816 121.279C59.0153 121.279 59.6691 121.594 60.143 122.224C60.6212 122.855 60.8603 123.718 60.8603 124.814V124.916ZM59.686 124.782C59.686 123.983 59.5315 123.365 59.2226 122.929C58.9137 122.493 58.4694 122.275 57.8896 122.275C57.1152 122.275 56.5587 122.635 56.2202 123.354V126.325C56.5799 127.044 57.1406 127.404 57.9023 127.404C58.4651 127.404 58.9031 127.186 59.2163 126.75C59.5294 126.314 59.686 125.658 59.686 124.782ZM64.6466 126.553L66.2462 121.406H67.503L64.7418 129.334C64.3144 130.476 63.6352 131.048 62.7042 131.048L62.482 131.029L62.044 130.946V129.994L62.3614 130.019C62.7592 130.019 63.0681 129.939 63.2882 129.778C63.5124 129.617 63.6965 129.323 63.8404 128.896L64.1007 128.198L61.6505 121.406H62.9327L64.6466 126.553Z" fill="#7B7B7B"/>
<path d="M114.067 125.493L116.599 118.077H119.312L115.604 128.025H112.53L108.822 118.077H111.535L114.067 125.493Z" fill="#03AEA0"/>
<path d="M129.712 123.413C129.712 123.232 129.712 123.051 129.712 122.96C129.712 122.78 129.712 122.508 129.712 122.327C129.44 119.795 127.27 117.896 124.647 117.896C122.025 117.896 119.855 119.795 119.583 122.327C119.583 122.508 119.583 122.78 119.583 122.96C119.583 123.141 119.583 123.322 119.583 123.413C119.583 123.774 119.674 124.046 119.764 124.407C120.397 126.487 122.387 128.025 124.647 128.025C126.908 128.025 128.898 126.487 129.531 124.407H126.818C126.547 125.312 125.642 126.035 124.647 126.035C123.653 126.035 122.748 125.402 122.477 124.407C122.387 124.226 122.387 123.955 122.387 123.684C122.387 123.593 122.387 123.503 122.387 123.413H129.712ZM124.647 119.795C126.004 119.795 126.999 120.88 126.999 122.147V122.237H122.296V122.147C122.206 120.88 123.291 119.795 124.647 119.795Z" fill="#03AEA0"/>
<path d="M108.37 123.413C108.37 123.232 108.37 123.051 108.37 122.96C108.37 122.78 108.37 122.508 108.37 122.327C108.098 119.795 105.928 117.896 103.305 117.896C100.683 117.896 98.5125 119.795 98.2412 122.327C98.2412 122.508 98.2412 122.78 98.2412 122.96C98.2412 123.141 98.2412 123.322 98.2412 123.413C98.2412 123.774 98.3316 124.046 98.4221 124.407C99.0551 126.487 101.045 128.025 103.305 128.025C105.566 128.025 107.556 126.487 108.189 124.407H105.476C105.205 125.312 104.3 126.035 103.305 126.035C102.311 126.035 101.406 125.402 101.135 124.407C101.045 124.226 101.045 123.955 101.045 123.684C101.045 123.593 101.045 123.503 101.045 123.413H108.37ZM103.305 119.795C104.662 119.795 105.657 120.88 105.657 122.147V122.237H100.954V122.147C100.954 120.88 102.039 119.795 103.305 119.795Z" fill="#03AEA0"/>
<path d="M138.122 121.604V127.934H137.218V125.04H134.143V127.934H133.239V121.604H134.143V124.407H137.218V121.604H138.122Z" fill="#5D6765"/>
<path d="M143.096 127.934L141.649 125.312H141.558H140.021V127.934H139.117V121.604H141.558C142.915 121.604 143.819 122.327 143.819 123.413C143.819 124.317 143.276 124.95 142.463 125.221L144 128.025H143.096V127.934ZM140.021 124.679H141.649C142.463 124.679 142.915 124.226 142.915 123.503C142.915 122.78 142.372 122.327 141.649 122.327H140.021V124.679Z" fill="#5D6765"/>
<path d="M88.2031 123.865C87.6606 125.583 86.0328 126.849 84.1337 126.849C82.2346 126.849 80.6068 125.583 80.0642 123.865H75C76.1756 127.844 79.8834 130.647 84.1337 130.647C88.384 130.647 92.0917 127.844 93.2674 123.865H88.2031Z" fill="url(#paint0_linear)"/>
<path d="M84.1337 115.274C86.5754 115.274 88.5649 117.263 88.5649 119.705C88.5649 119.795 88.5649 119.795 88.5649 119.886H79.7025C79.7025 119.795 79.7025 119.795 79.7025 119.705C79.7025 117.263 81.692 115.274 84.1337 115.274Z" fill="url(#paint1_linear)"/>
<g clip-path="url(#clip0)">
<path d="M67.7292 1.23685H77.2498V44.0511H67.7292V1.23685Z" fill="#D31145"/>
<path d="M38.0137 0C36.1865 0 30.8973 0.190286 28.4931 6.94542L13.9719 44.1462H24.0695L28.1085 32.7291C33.8785 34.2514 36.7635 34.0611 38.1098 34.0611C39.36 34.0611 42.3412 34.2514 48.1112 32.7291L52.2464 44.0511H62.2478L47.6304 6.94542C45.0339 0.190286 39.8409 0 38.0137 0ZM38.1098 25.8788C35.321 25.974 31.9552 25.4031 30.8973 24.9274L36.2827 9.79971C36.475 9.13371 37.1482 8.56285 38.0137 8.56285C38.8792 8.56285 39.5524 9.13371 39.7447 9.79971L45.2262 24.8323C44.1684 25.4031 40.8987 25.8788 38.1098 25.8788Z" fill="#D31145"/>
<path d="M105.715 0C103.888 0 98.5989 0.190286 96.1947 6.94542L81.7697 44.1462H91.8672L95.9062 32.7291C101.676 34.2514 104.561 34.0611 105.908 34.0611C107.158 34.0611 110.139 34.2514 115.909 32.7291L120.044 44.0511H130.045L115.428 6.94542C112.832 0.190286 107.542 0 105.715 0ZM105.811 25.8788C103.023 25.974 99.6567 25.4031 98.5989 24.9274L103.984 9.79971C104.177 9.13371 104.85 8.56285 105.715 8.56285C106.581 8.56285 107.254 9.13371 107.446 9.79971L112.928 24.8323C111.966 25.4031 108.6 25.8788 105.811 25.8788Z" fill="#D31145"/>
</g>
<path d="M18.1388 62.5299C16.6863 61.8887 15.8793 60.7667 15.3952 59.1637C15.2338 58.8431 15.3952 58.6828 15.3952 58.5225C15.3952 58.3622 15.718 58.3622 16.0407 58.3622C18.1388 58.5225 21.2051 58.2019 25.2398 57.5608C29.2745 56.9196 31.8567 56.599 32.8251 56.599C35.5687 56.599 37.5053 57.7211 38.4736 60.1255C38.635 60.4461 38.635 60.6064 38.4736 60.927C38.4736 61.0873 38.1509 61.0873 37.6667 61.0873C35.5687 61.0873 33.1478 61.2475 30.2429 61.7284C27.9834 62.2093 25.724 62.5299 23.4646 63.0108C20.721 67.4991 17.6546 72.6285 14.4269 78.5594C15.718 78.2388 17.3318 78.0785 18.9457 78.0785C22.0121 77.9182 23.9487 79.0403 24.7557 81.2844C24.9171 81.605 24.9171 81.9256 24.7557 82.0859C24.5943 82.2462 24.4329 82.4065 23.9487 82.4065C20.8824 82.4065 16.6863 83.0477 11.3605 84.33C8.13274 90.4213 5.87331 95.3904 4.25943 99.0772C3.93665 99.7184 3.61388 99.7184 3.12971 99.3978C2.48416 98.2757 2 97.1537 2 95.711C2 94.5889 2.32278 93.1463 2.80694 91.7036C5.06637 85.1315 10.0694 75.3535 18.1388 62.5299ZM34.6003 84.8109C32.9865 88.658 32.1795 91.8639 32.1795 94.108C32.1795 96.1919 32.8251 97.3139 34.1162 97.3139C35.73 97.4742 37.5053 96.5125 39.7647 94.4286C41.7014 92.5051 43.4767 90.1007 44.9291 87.3757C45.0905 86.8948 45.4133 86.7345 45.7361 86.7345C46.0589 86.7345 46.2202 86.8948 46.3816 87.3757C46.7044 88.4977 46.543 89.9404 45.7361 91.5433C45.0905 93.1463 43.638 94.7492 41.7014 96.3522C39.1192 98.2757 36.6984 99.3978 34.2776 99.2375C30.2429 99.0772 28.1448 96.8331 28.1448 92.5051C28.1448 91.383 28.3062 89.9404 28.629 88.4977C29.7587 82.8874 32.1795 77.1168 35.5687 71.0255C38.635 65.7358 42.1856 61.0873 45.8975 57.0799C46.543 56.4387 47.0272 56.1181 47.5114 56.1181C47.9955 56.1181 48.4797 56.2784 48.8025 56.599C50.0936 57.7211 50.7391 59.324 50.7391 61.2475C50.7391 62.049 50.5777 63.0108 50.2549 64.1329C49.2866 67.9799 47.0272 71.9873 43.7994 75.9947C41.0558 79.6815 37.9895 82.5668 34.6003 84.8109ZM35.73 81.7653C39.442 78.7197 42.6697 75.0329 45.0905 70.705C47.1886 67.1785 48.1569 64.774 48.1569 63.1711C48.1569 63.0108 48.1569 62.8505 47.9955 62.6902C47.5113 62.3696 46.2202 63.8123 44.1222 67.0182C42.0242 70.2241 39.7647 73.9109 37.3439 78.3991C36.6984 79.8418 36.2142 80.9638 35.73 81.7653ZM49.9322 86.7345C49.2866 88.658 48.9638 90.261 48.9638 91.8639C48.9638 95.3904 50.2549 97.3139 52.9985 97.4742C57.6788 97.6345 62.1976 94.4286 66.5551 87.8565C67.0393 87.2154 67.362 87.2154 67.6848 87.8565C68.169 88.8183 67.6848 90.261 66.5551 92.0242C65.1026 94.108 63.166 95.8713 60.7451 97.3139C58.3243 98.5963 55.7421 99.3978 53.1599 99.3978C50.2549 99.3978 47.9955 98.5963 46.3816 96.8331C44.7678 95.0698 43.9608 92.8257 43.9608 90.1007C43.9608 87.5359 44.6064 84.9712 46.0589 82.2462C47.8341 78.88 49.9322 76.155 52.353 74.0712C54.6124 72.3079 56.7104 71.3461 58.6471 71.3461C59.454 71.3461 60.261 71.5064 60.9065 71.827C62.5204 72.7888 63.9729 73.9109 64.9412 75.3535C65.4254 75.8344 65.5868 76.6359 65.5868 77.5977C65.5868 80.0021 64.6185 82.2462 62.8432 84.4903C60.5838 87.2154 58.1629 88.658 55.5807 88.658C53.4827 88.9786 51.7074 88.1771 49.9322 86.7345ZM50.5777 85.2918C51.3847 85.7727 52.1916 86.0933 52.8371 86.0933C54.6124 86.0933 56.5491 84.6506 58.6471 81.9256C60.5838 79.3609 61.7135 77.1168 61.7135 75.6741C61.7135 75.0329 61.3907 74.7123 60.7451 74.7123C59.6154 74.7123 58.0016 75.6741 56.2263 77.4374C54.1282 79.3609 52.353 81.7653 51.0619 84.33C50.9005 84.33 50.7391 84.8109 50.5777 85.2918ZM76.8839 86.0933C75.7542 78.3991 74.9473 74.552 74.3017 74.552C73.8176 74.552 73.0106 75.0329 72.0423 76.3153C70.7512 77.7579 69.6215 79.5212 68.8145 81.605C68.6532 81.9256 68.4918 82.0859 68.3304 82.0859C68.0076 82.0859 67.8462 82.0859 67.8462 81.7653C67.5234 80.8036 67.6848 79.6815 68.3304 78.0785C68.9759 76.4756 70.1056 75.0329 71.5581 73.7506C73.172 72.4682 74.6245 71.827 76.2384 71.827C78.4978 71.827 79.9503 73.43 80.7572 76.6359C81.08 78.3991 81.4028 80.3227 81.7256 82.4065C86.2444 78.7197 89.6336 75.5138 92.0544 72.4682C92.3771 71.9873 92.6999 71.827 93.0227 71.827C93.3455 71.827 93.5069 72.1476 93.5069 72.6285C93.5069 74.3917 92.2158 76.6359 89.7949 79.5212C88.8266 80.6433 86.4058 82.7271 82.3711 85.933C82.6939 87.8565 83.0167 90.261 83.5008 93.3066C83.985 95.711 84.7919 96.9934 85.7603 96.9934C87.8583 97.1537 90.2791 94.108 93.1841 88.0168C93.3455 87.6962 93.5069 87.5359 93.6683 87.5359C93.8296 87.5359 93.991 87.5359 94.1524 87.8565C94.6366 88.9786 94.4752 90.4213 93.5069 92.1845C92.3772 94.2683 91.086 96.0316 89.4722 97.3139C87.8583 98.5963 86.2444 99.2375 84.4691 99.2375C81.08 99.2375 78.8206 96.6728 78.175 91.5433C78.175 91.0624 78.0136 90.4213 77.8522 89.6198C74.1403 92.8257 70.9126 95.8713 68.3304 98.9169C68.0076 99.2375 67.6848 99.3978 67.362 99.3978C66.8779 99.3978 66.7165 99.0772 66.8779 98.5963C67.0393 96.6728 68.4918 94.2683 70.9126 91.5433C71.5581 90.5816 73.6562 88.658 76.8839 86.0933Z" fill="black"/>
<path d="M126.354 61.9065C124.386 57.7719 121.518 56.1181 117.751 56.1181C117.694 56.1181 117.582 56.1181 117.357 56.1181C117.132 56.1181 116.963 56.1181 116.963 56.1181C113.14 56.1181 110.328 57.7719 108.36 61.9617C105.661 67.695 93.3459 100 93.3459 100H103.468C103.468 100 105.323 94.818 107.516 88.7539C110.665 89.4154 113.983 89.8013 117.526 89.7462C121.012 89.7462 124.33 89.3603 127.479 88.6436C129.728 94.7077 131.752 99.9449 131.752 99.9449H141.706C141.706 100 129.11 67.6399 126.354 61.9065ZM117.413 81.477C114.714 81.477 112.521 81.1462 110.497 80.5398C112.971 73.8142 115.164 67.8052 115.445 67.0334C116.12 65.2694 116.626 64.6629 117.413 64.6629C118.201 64.6629 118.707 65.2694 119.381 67.0334C119.663 67.7501 121.912 73.8142 124.442 80.4847C122.305 81.1462 120.112 81.477 117.413 81.477Z" fill="#D31145"/>
<defs>
<linearGradient id="paint0_linear" x1="75.9754" y1="127.176" x2="90.369" y2="127.273" gradientUnits="userSpaceOnUse">
<stop stop-color="#69BE5F"/>
<stop offset="1" stop-color="#03AEA0"/>
</linearGradient>
<linearGradient id="paint1_linear" x1="76.0401" y1="117.547" x2="90.4337" y2="117.644" gradientUnits="userSpaceOnUse">
<stop stop-color="#69BE5F"/>
<stop offset="1" stop-color="#03AEA0"/>
</linearGradient>
<clipPath id="clip0">
<rect x="13.9719" width="115.977" height="44.1462" fill="white"/>
</clipPath>
</defs>
</svg>
