<svg width="206" height="93" viewBox="0 0 206 93" fill="none" xmlns="http://www.w3.org/2000/svg">
<path d="M4.08809 65.0939C4.08809 64.8945 4.1878 64.8945 4.48693 64.7948C5.58374 64.6951 6.87996 64.2962 8.17618 63.7977C9.3727 63.3988 10.5692 63 11.666 63C13.2614 63 15.0561 63.8974 15.0561 66.9884C15.0561 68.2846 14.5576 69.4811 13.7599 70.3785C12.8625 71.4753 11.3669 72.971 9.07357 73.9681C9.97096 74.4666 10.8683 75.2643 10.8683 76.6602C10.8683 80.0503 5.78315 82.2439 3.29042 82.2439C1.69506 82.2439 0 80.7483 0 79.3524C0 78.9535 0.199419 78.3553 0.398838 77.5576C1.59535 74.1675 3.88867 69.88 6.08228 66.4898C4.78606 66.3901 4.08809 65.4927 4.08809 65.0939ZM5.78315 74.8654C5.58374 74.8654 5.38432 74.8654 5.1849 74.8654C4.68635 74.8654 4.28751 74.7657 3.88867 74.666C2.99129 76.2614 1.79477 78.5547 1.79477 79.9506C1.79477 80.4492 1.99419 80.6486 2.59245 80.6486C5.08519 80.6486 9.3727 77.9564 9.3727 76.062C9.3727 75.2643 8.77444 74.7657 7.07938 74.666L5.78315 74.8654ZM13.6602 66.2904C13.6602 65.2933 13.062 64.9942 12.2643 64.9942C11.3669 64.9942 10.0707 65.393 8.97386 65.7919C8.67473 65.9913 8.27589 66.091 7.97677 66.1907V66.4898C7.97677 67.7861 6.58083 69.9797 4.78606 73.1704C10.1704 71.8742 13.6602 68.484 13.6602 66.2904Z" fill="#03AEA0"/>
<path d="M15.6543 78.9536C15.6543 80.6486 16.452 81.4463 17.6485 81.4463C19.9418 81.4463 22.2351 79.0533 23.4317 77.1588C23.5314 77.0591 23.6311 76.9594 23.6311 76.9594C23.8305 76.9594 23.9302 77.1588 23.9302 77.4579C23.9302 79.851 19.9418 82.244 17.3494 82.244C14.8566 82.244 13.4607 80.5489 13.4607 78.1559C13.4607 77.0591 13.7598 75.8626 14.3581 74.6661C15.8537 71.6748 18.3465 69.9797 19.9418 69.9797C21.238 69.9797 22.9331 71.4753 22.9331 72.7716C22.9331 74.6661 20.8392 77.6573 18.5459 77.6573C17.7482 77.6573 16.9505 77.3582 16.1529 76.6602C15.754 77.5576 15.6543 78.3553 15.6543 78.9536ZM16.3523 76.062C16.6514 76.2614 17.0502 76.3611 17.3494 76.3611C19.2438 76.3611 21.238 72.7716 21.238 71.7745C21.238 71.4753 21.0386 71.2759 20.8392 71.2759C19.9418 71.2759 17.9476 72.971 16.6514 75.4637L16.5517 75.7629L16.3523 76.062Z" fill="#03AEA0"/>
<path d="M31.9071 70.0794C32.7048 70.0794 33.5024 70.9768 33.5024 72.0736C33.5024 73.0707 32.6051 74.5663 31.7077 76.062C30.8103 77.5576 29.9129 79.153 29.9129 80.2498C29.9129 80.9478 30.212 81.4463 30.8103 81.4463C32.0068 81.4463 33.5024 79.4521 34.699 77.3582C34.7987 77.2585 34.8984 77.1588 34.8984 77.1588C35.0978 77.1588 35.2972 77.4579 35.2972 77.9565C35.2972 79.9507 32.6051 82.5431 30.5112 82.5431C28.7164 82.5431 27.819 81.6457 27.819 80.0504C27.819 77.7571 29.7135 74.6661 30.8103 73.0707C31.2091 72.4724 31.3088 72.0736 31.3088 71.8742C31.3088 71.7745 31.3088 71.6748 31.2091 71.6748C30.7106 71.6748 29.1152 72.4724 27.3205 74.4666C25.6254 76.3611 24.2295 79.2527 22.9332 82.0446C22.8335 82.244 22.7338 82.3437 22.6341 82.3437C22.2353 82.3437 21.8364 81.3466 21.8364 80.6486C21.8364 79.153 24.2295 74.2672 26.9216 70.2788C27.121 69.9797 27.2207 69.9797 27.3205 69.9797C27.7193 69.9797 28.0184 70.9768 28.0184 71.5751C28.0184 71.9739 27.9187 72.5722 27.819 73.0707C29.0155 71.6748 30.91 70.0794 31.9071 70.0794Z" fill="#03AEA0"/>
<path d="M36.6931 78.9536C36.6931 80.6486 37.4908 81.4463 38.6873 81.4463C40.9806 81.4463 43.274 79.0533 44.4705 77.1588C44.5702 77.0591 44.6699 76.9594 44.6699 76.9594C44.8693 76.9594 44.969 77.1588 44.969 77.4579C44.969 79.851 40.9806 82.244 38.3882 82.244C35.8954 82.244 34.4995 80.5489 34.4995 78.1559C34.4995 77.0591 34.7986 75.8626 35.3969 74.6661C36.8925 71.6748 39.3853 69.9797 40.9806 69.9797C42.2769 69.9797 43.9719 71.4753 43.9719 72.7716C43.9719 74.6661 41.878 77.6573 39.5847 77.6573C38.787 77.6573 37.9893 77.3582 37.1917 76.6602C36.8925 77.5576 36.6931 78.3553 36.6931 78.9536ZM37.3911 76.062C37.6902 76.2614 38.0891 76.3611 38.3882 76.3611C40.2827 76.3611 42.2769 72.7716 42.2769 71.7745C42.2769 71.4753 42.0774 71.2759 41.878 71.2759C40.9806 71.2759 38.9864 72.971 37.6902 75.4637L37.5905 75.7629L37.3911 76.062Z" fill="#03AEA0"/>
<path d="M48.6582 79.7512C48.6582 80.0503 48.6582 80.4492 48.5585 80.7483C49.7551 79.9506 50.8519 78.455 51.6495 76.9593C51.7492 76.7599 51.849 76.6602 51.9487 76.6602C52.1481 76.6602 52.3475 76.8596 52.3475 77.3582C52.3475 77.8567 51.849 80.6486 48.3591 81.8451C47.7609 85.9332 45.2681 91.1181 43.5731 91.1181C42.9748 91.1181 41.0803 90.2207 41.0803 87.3291C41.0803 81.0474 48.6582 68.3843 52.1481 63.1994C52.4472 63.0997 52.5469 63 52.7463 63C53.1452 63 53.2449 63.7977 53.2449 64.2962C53.2449 65.7919 51.3504 68.7832 49.2565 72.3727C48.5585 73.5692 47.8606 74.8654 47.1626 76.2614C48.3591 76.6602 48.6582 77.757 48.6582 79.7512ZM42.6757 88.6254C42.6757 89.2236 42.8751 89.6225 43.1742 89.6225C43.9719 89.6225 45.9661 85.8335 46.8635 82.1442C45.9661 82.0445 45.3678 81.6457 45.0687 80.9477C43.6728 84.0387 42.6757 87.03 42.6757 88.6254ZM47.2623 78.9535C47.2623 77.9564 47.0629 77.1588 46.8635 77.1588C46.4646 77.1588 46.2652 79.153 46.2652 79.6515C46.2652 80.5489 46.4646 81.1471 47.0629 81.2468C47.1626 80.5489 47.2623 79.7512 47.2623 78.9535Z" fill="#03AEA0"/>
<path d="M50.9517 79.8509C50.9517 77.757 53.5441 72.9709 55.1395 70.6776C55.3389 70.4782 55.4386 70.3785 55.638 70.3785C56.0368 70.3785 56.336 71.0764 56.336 71.9738C56.336 73.0706 55.4386 74.5663 54.6409 76.0619C53.7435 77.6573 52.9459 79.2526 52.9459 80.5488C52.9459 81.1471 53.1453 81.4462 53.6438 81.4462C54.94 81.4462 56.6351 79.452 57.6322 77.3581C57.7319 77.2584 57.8316 77.1587 57.8316 77.1587C58.031 77.1587 58.2305 77.6573 58.2305 77.9564C58.2305 80.3494 55.1395 82.3436 53.4444 82.3436C51.6496 82.2439 50.9517 81.3465 50.9517 79.8509ZM58.2305 68.0851C57.8316 68.6834 57.1337 69.0822 56.6351 68.7831C56.0368 68.3843 55.8374 67.3872 56.4357 66.5895C56.8345 65.9912 57.5325 65.5924 58.031 65.8915C58.4299 66.091 58.6293 66.6892 58.5296 67.2875C58.4299 67.4869 58.3302 67.786 58.2305 68.0851Z" fill="#03AEA0"/>
<path d="M58.9284 69.0824C58.9284 68.8829 60.1249 68.7832 61.122 68.7832C61.4211 68.7832 61.7203 68.7832 61.9197 68.6835C63.1162 66.5896 64.213 64.6951 64.6119 64.6951C65.0107 64.6951 65.1104 65.4928 65.1104 66.0911C65.1104 66.6893 64.911 67.487 64.5121 68.3844C65.9081 68.3844 66.5063 69.1821 66.5063 69.5809C66.5063 69.7803 66.3069 69.88 66.0078 69.88C65.8084 69.88 65.6089 69.88 65.4095 69.88C64.8113 69.88 64.3127 69.9797 63.7145 69.9797C63.3156 70.578 62.9168 71.3757 62.4182 72.2731C60.8229 74.7658 59.2275 78.0562 59.2275 79.7513C59.2275 80.8481 59.6264 81.4463 60.424 81.4463C61.7203 81.4463 63.515 79.4521 64.6119 77.1588C64.8113 76.9594 64.911 76.8597 65.0107 76.8597C65.2101 76.8597 65.3098 77.1588 65.3098 77.5577C65.3098 77.9565 65.1104 78.3553 64.911 78.8539C64.5121 79.7513 62.6177 82.244 60.3243 82.244C58.8287 82.244 57.5325 81.0475 57.5325 79.0533C57.5325 77.1588 59.1278 74.2672 61.3214 70.1792C59.5267 70.1792 58.9284 69.2818 58.9284 69.0824Z" fill="#03AEA0"/>
<path d="M64.9108 76.8596C66.1073 75.1645 67.5033 73.27 68.301 71.6747C68.6001 69.9796 69.7966 68.8828 70.5943 68.8828C70.9931 68.8828 71.1925 69.182 71.1925 69.3814C71.0928 69.5808 70.9931 69.8799 70.7937 70.3785L70.4946 70.9767C70.4946 71.4753 70.3949 71.8741 70.3949 72.3727C70.3949 73.3698 70.4946 74.3669 70.5943 75.1645C70.694 76.0619 70.7937 76.8596 70.7937 77.6573C70.7937 78.9535 70.5943 80.4491 69.4975 81.2468C71.4917 80.4491 72.7879 78.7541 73.4858 77.059C73.5856 76.8596 73.6853 76.8596 73.785 76.8596C73.9844 76.8596 74.1838 77.059 74.1838 77.4579C74.1838 77.8567 74.0841 78.4549 73.6853 79.0532C72.389 81.3465 70.2951 82.3436 68.0018 82.3436C66.207 82.3436 63.5149 81.3465 63.5149 78.1558C63.5149 77.2584 64.0134 75.7628 64.7114 75.7628C64.9108 75.7628 64.9108 75.9622 65.0105 76.2613L64.9108 76.8596ZM65.1102 78.5547C65.5091 80.15 66.2071 81.2468 67.1044 81.2468C68.1015 81.2468 68.4007 79.6515 68.4007 77.5576C68.4007 76.8596 68.4007 76.1616 68.301 75.4637C68.301 74.7657 68.2012 74.1674 68.2012 73.6689C67.4036 75.2642 66.3068 76.8596 65.1102 78.5547Z" fill="#03AEA0"/>
<path d="M88.4423 77.757C88.1432 77.8567 87.8441 77.8567 87.4452 77.8567C86.4482 77.8567 85.1519 77.3582 85.1519 76.3611C85.1519 76.1616 85.2516 76.1616 85.5508 76.1616C86.5479 76.1616 87.6447 75.9622 88.8412 75.6631C89.938 75.4637 91.0348 75.1645 92.0319 75.1645C93.1287 75.1645 94.5246 75.8625 94.5246 76.8596C94.5246 77.059 94.4249 77.1587 94.2255 77.1587C93.9264 77.1587 93.6272 77.059 93.3281 77.059C92.6301 77.059 92.0319 77.1587 91.2342 77.2584C91.2342 77.4579 91.3339 77.6573 91.3339 77.8567C91.3339 79.9506 88.6418 83.1413 85.1519 83.1413C82.6592 83.1413 80.4656 81.2468 80.4656 78.8538C80.4656 76.2614 82.7589 73.3698 86.0493 72.4724C85.0522 72.1733 84.2545 71.3756 84.2545 69.9796C84.2545 67.0881 87.4452 64.5953 89.4394 63.9971C90.1374 63.7977 90.7357 63.5982 91.4336 63.5982C93.029 63.5982 94.724 65.0939 94.724 66.3901C94.724 67.1878 93.1287 71.0765 92.7299 71.0765C92.1316 71.0765 91.5333 70.2788 91.5333 69.2817C91.5333 68.484 91.8325 67.5866 92.2313 66.9884C92.331 66.2904 92.7299 65.6921 92.7299 65.393C92.7299 65.1936 92.5304 64.8945 92.1316 64.8945C90.5362 64.8945 86.149 67.5866 86.149 70.2788C86.149 71.6747 87.1461 71.7744 88.3426 71.7744C89.938 71.7744 90.636 72.7715 90.636 73.2701C90.636 73.3698 90.5362 73.4695 90.2371 73.4695C85.8499 73.8683 82.0609 76.5605 82.0609 79.5518C82.0609 80.7483 82.8586 81.7454 84.2545 81.7454C85.7502 81.7454 88.1432 80.4492 89.5392 77.6573C89.0406 77.6573 88.7415 77.6573 88.4423 77.757Z" fill="#03AEA0"/>
<path d="M99.4104 81.9448C99.3107 82.1442 99.211 82.1442 99.211 82.1442C98.8122 82.1442 98.4133 81.3466 98.4133 80.5489C98.4133 78.5547 101.504 71.7745 104.894 66.4898C103.997 66.3901 102.9 65.8916 102.9 65.0939C102.9 64.8945 103 64.8945 103.299 64.7948C104.595 64.5954 105.892 64.1965 107.088 63.8974C108.285 63.4986 109.381 63.1994 110.378 63.1994C111.874 63.1994 113.868 64.0968 113.868 67.3872C113.868 71.0765 109.481 74.3669 104.496 75.5634C106.091 77.4579 107.686 79.5518 107.686 81.1472C107.686 81.6457 107.487 82.3437 107.188 82.3437C107.088 82.3437 106.988 82.244 106.988 82.1442C104.994 79.4521 103.499 77.5576 102.103 75.9623C101.305 77.5576 100.408 79.3524 99.4104 81.9448ZM104.396 71.7745C103.997 72.5721 103.598 73.2701 103.199 73.9681C109.082 72.6718 112.472 68.9826 112.472 66.6893C112.472 65.6922 111.874 65.1936 111.076 65.1936C110.179 65.1936 108.883 65.6922 107.786 65.9913C107.387 66.1907 107.088 66.1907 106.689 66.2904C106.689 67.4869 105.692 69.6806 104.396 71.7745Z" fill="#03AEA0"/>
<path d="M114.267 78.9535C114.267 80.6486 115.065 81.4463 116.261 81.4463C118.555 81.4463 120.848 79.0532 122.044 77.1587C122.144 77.059 122.244 76.9593 122.244 76.9593C122.443 76.9593 122.543 77.1587 122.543 77.4579C122.543 79.8509 118.555 82.2439 115.962 82.2439C113.469 82.2439 112.073 80.5489 112.073 78.1558C112.073 77.059 112.373 75.8625 112.971 74.666C114.467 71.575 116.959 69.8799 118.555 69.8799C119.851 69.8799 121.546 71.3756 121.546 72.6718C121.546 74.5663 119.452 77.5576 117.159 77.5576C116.361 77.5576 115.563 77.2585 114.766 76.5605C114.367 77.5576 114.267 78.3553 114.267 78.9535ZM114.965 76.0619C115.264 76.2614 115.663 76.3611 115.962 76.3611C117.857 76.3611 119.851 72.7715 119.851 71.7744C119.851 71.4753 119.651 71.2759 119.452 71.2759C118.555 71.2759 116.56 72.9709 115.264 75.4637L115.164 75.7628L114.965 76.0619Z" fill="#03AEA0"/>
<path d="M130.719 72.6718C130.719 73.4695 129.323 76.6602 129.124 76.6602C128.525 76.6602 127.927 75.8625 127.927 74.9651C127.927 74.4666 128.226 73.7686 128.525 73.0707C128.725 72.4724 129.024 71.8741 129.024 71.4753C129.024 71.2759 128.924 71.1762 128.625 71.1762C128.027 71.1762 123.739 74.8654 123.739 78.9535C123.739 80.4492 124.437 81.3466 125.434 81.3466C127.927 81.3466 130.121 79.0532 131.317 77.059C131.417 76.9593 131.517 76.8596 131.616 76.8596C131.716 76.8596 131.916 76.9593 131.916 77.3582C131.916 79.4521 128.426 82.2439 125.534 82.2439C122.942 82.2439 121.446 80.5489 121.446 78.2556C121.446 77.1588 121.745 75.9622 122.343 74.7657C124.238 71.1762 126.93 70.0794 127.827 70.0794C128.127 70.0794 128.525 70.1791 128.825 70.2788C129.921 70.8771 130.719 71.7744 130.719 72.6718Z" fill="#03AEA0"/>
<path d="M140.292 75.7628C139.594 78.7541 137.101 82.2439 134.508 82.2439C133.212 82.2439 131.019 80.9477 131.019 78.2556C131.019 74.8654 134.209 70.1791 137.3 70.1791C137.998 70.1791 138.497 70.4782 138.995 71.1762C139.195 71.3756 139.294 71.575 139.494 71.7744C139.992 72.273 140.391 72.7715 140.391 73.9681L140.292 75.1646C140.391 75.1646 140.491 75.1646 140.591 75.1646C140.69 75.1646 140.79 75.1646 140.89 75.1646C140.99 75.1646 141.089 75.1646 141.089 75.2643C141.089 75.364 141.089 75.364 140.99 75.4637C140.89 75.5634 140.591 75.7628 140.292 75.7628ZM136.303 72.3727C134.209 74.1675 132.714 77.3582 132.714 79.6515C132.714 80.6486 133.013 81.1471 133.711 81.1471C135.007 81.1471 137.101 79.153 138.297 75.4637C137.599 75.0649 136.303 73.9681 136.303 72.3727ZM138.796 72.7715C138.796 71.9739 138.596 71.6747 138.397 71.6747C138.198 71.6747 137.899 72.0736 137.899 72.7715C137.899 73.4695 138.198 74.0678 138.596 74.4666C138.696 73.8683 138.796 73.2701 138.796 72.7715Z" fill="#03AEA0"/>
<path d="M147.371 83.0416C145.576 87.2294 143.083 92.9129 140.59 92.9129C139.693 92.9129 138.596 91.4172 138.596 89.8219C138.596 86.4317 141.887 83.939 145.277 82.7425C145.476 82.4434 145.576 82.0445 145.775 81.7454C145.875 81.4463 146.074 81.0474 146.174 80.7483C145.277 81.6457 144.28 82.2439 143.183 82.2439C141.587 82.2439 140.79 81.0474 140.79 79.3524C140.79 78.0561 141.288 76.4608 142.385 74.8654C144.678 71.3756 147.171 70.0794 148.667 70.0794C149.863 70.0794 150.462 70.9768 150.462 72.0736C150.561 71.8741 150.661 71.6747 150.86 71.3756C151.16 70.7773 151.658 70.0794 151.858 70.0794C152.256 70.0794 152.655 70.8771 152.655 71.6747C152.655 72.7715 151.16 75.5634 149.664 78.6544C149.165 79.6515 148.667 80.7483 148.168 81.8451C150.661 80.5489 152.356 78.9535 153.553 77.3582C153.652 77.2585 153.752 77.1588 153.852 77.1588C153.951 77.1588 154.051 77.2585 154.051 77.5576C154.051 77.9564 153.852 78.455 153.453 79.1529C152.057 80.9477 149.863 82.1442 147.371 83.0416ZM139.992 90.6195C139.992 90.9187 140.092 91.1181 140.192 91.1181C140.89 91.1181 142.983 88.2265 144.778 83.939C141.388 86.0329 139.992 89.3233 139.992 90.6195ZM149.465 72.3727C149.465 71.8741 149.265 71.575 148.966 71.575C147.47 71.575 142.784 76.6602 142.784 80.15C142.784 80.9477 142.983 81.2468 143.482 81.2468C144.678 81.2468 146.174 79.3524 147.67 76.7599C148.866 74.666 149.465 73.1704 149.465 72.3727Z" fill="#03AEA0"/>
<path d="M161.729 70.0794C162.527 70.0794 163.324 70.9768 163.324 72.0736C163.324 73.0707 162.427 74.5663 161.529 76.062C160.632 77.5576 159.735 79.1529 159.735 80.2498C159.735 80.9477 160.034 81.4463 160.632 81.4463C161.829 81.4463 163.324 79.4521 164.521 77.3582C164.62 77.2585 164.62 77.1588 164.72 77.1588C164.92 77.1588 165.119 77.4579 165.119 77.9564C165.119 79.9506 162.427 82.5431 160.333 82.5431C158.538 82.5431 157.641 81.6457 157.641 80.0503C157.641 77.757 159.635 74.666 160.632 73.0707C161.031 72.4724 161.131 72.0736 161.131 71.8741C161.131 71.7744 161.131 71.6747 161.031 71.6747C160.632 71.6747 158.937 72.4724 157.142 74.4666C155.447 76.3611 154.051 79.2527 152.755 82.0445C152.655 82.2439 152.556 82.3437 152.456 82.3437C152.057 82.3437 151.658 81.3466 151.658 80.6486C151.658 79.1529 154.051 74.2672 156.743 70.2788C156.843 70.1791 156.943 70.0794 157.043 70.0794C157.441 70.0794 157.74 71.0765 157.74 71.6747C157.74 72.0736 157.641 72.6718 157.541 73.1704C158.837 71.6747 160.732 70.0794 161.729 70.0794Z" fill="#03AEA0"/>
<path d="M163.923 79.8509C163.923 77.757 166.515 72.9709 168.11 70.6776C168.31 70.4782 168.41 70.3785 168.509 70.3785C168.908 70.3785 169.207 71.0764 169.207 71.9738C169.207 73.0706 168.31 74.5663 167.512 76.0619C166.615 77.6573 165.817 79.2526 165.817 80.5488C165.817 81.1471 166.017 81.4462 166.515 81.4462C167.811 81.4462 169.506 79.452 170.503 77.3581C170.603 77.2584 170.703 77.1587 170.703 77.1587C170.902 77.1587 171.102 77.6573 171.102 77.9564C171.102 80.3494 168.011 82.3436 166.316 82.3436C164.621 82.2439 163.923 81.3465 163.923 79.8509ZM171.201 68.0851C170.803 68.6834 170.105 69.0822 169.606 68.7831C169.008 68.3843 168.808 67.3872 169.407 66.5895C169.805 65.9912 170.503 65.5924 171.002 65.8915C171.401 66.091 171.6 66.6892 171.501 67.2875C171.401 67.4869 171.301 67.786 171.201 68.0851Z" fill="#03AEA0"/>
<path d="M171.899 69.0824C171.899 68.8829 173.096 68.7832 174.093 68.7832C174.392 68.7832 174.691 68.7832 174.891 68.6835C176.087 66.5896 177.184 64.6951 177.583 64.6951C177.982 64.6951 178.081 65.4928 178.081 66.0911C178.081 66.6893 177.882 67.487 177.483 68.3844C178.879 68.3844 179.378 69.1821 179.378 69.5809C179.378 69.7803 179.178 69.88 178.979 69.88C178.779 69.88 178.58 69.88 178.381 69.88C177.782 69.88 177.284 69.9797 176.686 69.9797C176.287 70.578 175.888 71.3757 175.389 72.2731C173.794 74.7658 172.199 78.0562 172.199 79.7513C172.199 80.8481 172.597 81.4463 173.395 81.4463C174.691 81.4463 176.486 79.4521 177.583 77.1588C177.782 76.9594 177.882 76.8597 177.982 76.8597C178.181 76.8597 178.281 77.1588 178.281 77.5577C178.281 77.9565 178.081 78.3553 177.882 78.8539C177.483 79.7513 175.589 82.244 173.196 82.244C171.7 82.244 170.404 81.0475 170.404 79.0533C170.404 77.1588 171.999 74.2672 174.193 70.1792C172.398 70.1792 171.899 69.2818 171.899 69.0824Z" fill="#03AEA0"/>
<path d="M176.287 79.8509C176.287 77.757 178.879 72.9709 180.474 70.6776C180.674 70.4782 180.774 70.3785 180.873 70.3785C181.272 70.3785 181.571 71.0764 181.571 71.9738C181.571 73.0706 180.674 74.5663 179.876 76.0619C178.979 77.6573 178.181 79.2526 178.181 80.5488C178.181 81.1471 178.381 81.4462 178.879 81.4462C180.175 81.4462 181.87 79.452 182.867 77.3581C182.967 77.2584 183.067 77.1587 183.067 77.1587C183.266 77.1587 183.466 77.6573 183.466 77.9564C183.466 80.3494 180.375 82.3436 178.68 82.3436C177.084 82.2439 176.287 81.3465 176.287 79.8509ZM183.565 68.0851C183.167 68.6834 182.469 69.0822 181.97 68.7831C181.372 68.3843 181.172 67.3872 181.771 66.5895C182.169 65.9912 182.867 65.5924 183.366 65.8915C183.765 66.091 183.964 66.6892 183.865 67.2875C183.765 67.4869 183.765 67.786 183.565 68.0851Z" fill="#03AEA0"/>
<path d="M201.314 82.3437C199.519 82.3437 198.721 81.4463 198.721 79.851C198.721 77.5576 200.715 74.5663 201.712 72.8713C202.111 72.273 202.211 71.8742 202.211 71.6748C202.211 71.5751 202.111 71.5751 202.012 71.5751C201.413 71.5751 200.017 72.3727 198.123 74.3669C196.328 76.2614 194.932 79.0533 193.736 81.9449C193.636 82.0446 193.536 82.244 193.436 82.244C193.038 82.244 192.639 81.3466 192.639 80.5489C192.639 79.5518 193.137 77.6573 194.832 74.8655C194.035 75.364 193.237 75.6632 192.34 75.6632H192.041C191.343 78.6544 188.85 82.244 186.257 82.244C184.861 82.244 182.768 80.848 182.768 78.2556C182.768 74.9652 185.958 70.1791 189.149 70.1791C189.847 70.1791 190.246 70.4783 190.844 71.1762C191.043 71.3756 191.143 71.6748 191.343 71.7745C191.841 72.273 192.24 72.7716 192.24 73.9681V74.6661C192.24 74.7658 192.24 74.8655 192.24 74.9652C194.134 74.9652 196.129 72.7716 197.724 70.2788C197.824 70.0794 197.923 69.9797 198.023 69.9797C198.422 69.9797 198.721 70.9768 198.721 71.5751C198.721 71.9739 198.621 72.4724 198.522 72.971C199.918 71.4753 201.812 70.0794 202.809 70.0794C203.507 70.2788 204.205 71.0765 204.205 72.0736C204.205 72.8713 203.308 74.3669 202.41 75.9623C201.513 77.4579 200.616 79.0533 200.616 80.1501C200.616 80.9478 200.915 81.3466 201.613 81.3466C202.809 81.3466 204.205 79.3524 205.402 77.2585C205.501 77.1588 205.601 77.0591 205.701 77.0591C205.9 77.0591 206 77.3582 206 77.7571C206 78.1559 205.9 78.5547 205.601 79.153C204.903 80.848 203.009 82.3437 201.314 82.3437ZM188.252 72.3727C186.257 73.9681 184.562 77.3582 184.562 79.5518C184.562 80.5489 184.861 81.0475 185.559 81.0475C186.756 81.0475 189.049 78.9536 190.146 75.2643C189.149 74.6661 188.252 73.4695 188.252 72.3727ZM190.645 72.8713C190.645 72.0736 190.445 71.6748 190.246 71.6748C190.046 71.6748 189.747 72.0736 189.747 72.6719C189.747 73.2701 189.947 73.8684 190.545 74.3669C190.545 73.8684 190.645 73.3698 190.645 72.8713Z" fill="#03AEA0"/>
<path d="M118.893 31.163L126.534 8.58261H134.685L123.478 38.9283H114.105L102.898 8.58261H111.15L118.893 31.163Z" fill="#00AEA0"/>
<path d="M166.675 24.8283C166.675 24.3174 166.776 23.8065 166.776 23.2957C166.776 22.6826 166.777 21.9674 166.675 21.3544C165.758 13.6913 159.237 7.76523 151.291 7.76523C143.344 7.76523 136.824 13.6913 135.907 21.3544C135.805 21.9674 135.805 22.6826 135.805 23.2957C135.805 23.8065 135.805 24.3174 135.907 24.8283C136.009 25.85 136.213 26.8718 136.518 27.7913C138.454 34.2283 144.363 38.8261 151.393 38.8261C158.321 38.8261 164.331 34.2283 166.267 27.7913H158.015C157.098 30.6522 154.449 32.5935 151.393 32.5935C148.336 32.5935 145.687 30.55 144.771 27.7913C144.567 27.0761 144.363 26.3609 144.363 25.6457C144.363 25.3391 144.363 25.1348 144.465 24.8283H166.675ZM151.189 13.8957C155.162 13.8957 158.422 17.1652 158.422 21.15C158.422 21.2522 158.422 21.3544 158.422 21.4565H144.057C144.057 21.3544 144.057 21.2522 144.057 21.15C143.956 17.1652 147.216 13.8957 151.189 13.8957Z" fill="#00AEA0"/>
<path d="M101.676 24.8283C101.676 24.3174 101.777 23.8065 101.777 23.2957C101.777 22.6826 101.777 21.9674 101.676 21.3544C100.759 13.6913 94.2384 7.76523 86.2918 7.76523C78.3452 7.76523 71.8249 13.6913 70.908 21.3544C70.8062 21.9674 70.8062 22.6826 70.8062 23.2957C70.8062 23.8065 70.8062 24.3174 70.908 24.8283C71.0099 25.85 71.2137 26.8718 71.5193 27.7913C73.455 34.2283 79.364 38.8261 86.3937 38.8261C93.3215 38.8261 99.3324 34.2283 101.268 27.7913H93.0158C92.0989 30.6522 89.4501 32.5935 86.3937 32.5935C83.3373 32.5935 80.6884 30.55 79.7715 27.7913C79.5678 27.0761 79.364 26.3609 79.364 25.6457C79.364 25.3391 79.364 25.1348 79.4659 24.8283H101.676ZM86.2918 13.8957C90.2651 13.8957 93.5252 17.1652 93.5252 21.15C93.5252 21.2522 93.5252 21.3544 93.5252 21.4565H79.0584C79.0584 21.3544 79.0584 21.2522 79.0584 21.15C79.0584 17.1652 82.3185 13.8957 86.2918 13.8957Z" fill="#00AEA0"/>
<path d="M187.865 19.4131V38.8261H185.217V30.0391H175.844V38.8261H173.195V19.4131H175.844V27.8935H185.217V19.4131H187.865Z" fill="#5C6664"/>
<path d="M203.045 38.8261L198.766 30.6522H198.563H193.774V38.8261H191.125V19.4131H198.563C202.638 19.4131 205.389 21.5587 205.389 24.8283C205.389 27.4848 203.86 29.4261 201.313 30.3457L206 38.9283H203.045V38.8261ZM193.774 28.6087H198.766C201.11 28.6087 202.74 27.1783 202.74 24.9304C202.74 22.887 201.11 21.4565 198.766 21.4565H193.876V28.6087H193.774Z" fill="#5C6664"/>
<path d="M40.3442 26.2587C38.6123 31.5717 33.7221 35.3522 27.9149 35.3522C22.1078 35.3522 17.1157 31.5717 15.4857 26.2587H0C3.56578 38.3152 14.7725 47 27.8131 47C40.8536 47 52.0603 38.3152 55.728 26.2587H40.3442Z" fill="url(#paint0_linear)"/>
<path d="M27.8131 0C35.3522 0 41.3631 6.13043 41.3631 13.5891C41.3631 13.7935 41.3631 13.8957 41.2612 14.1H14.3651C14.2632 13.9978 14.2632 13.7935 14.2632 13.5891C14.2632 6.13043 20.3759 0 27.8131 0Z" fill="url(#paint1_linear)"/>
<defs>
<linearGradient id="paint0_linear" x1="2.97213" y1="36.3706" x2="46.8292" y2="36.6641" gradientUnits="userSpaceOnUse">
<stop stop-color="#68BD5E"/>
<stop offset="1" stop-color="#03AEA0"/>
</linearGradient>
<linearGradient id="paint1_linear" x1="3.16914" y1="6.94742" x2="47.0261" y2="7.2409" gradientUnits="userSpaceOnUse">
<stop stop-color="#68BD5E"/>
<stop offset="1" stop-color="#03AEA0"/>
</linearGradient>
</defs>
</svg>
