<svg width="40" height="40" viewBox="0 0 40 40" fill="none" xmlns="http://www.w3.org/2000/svg">
<rect width="40" height="40" rx="8" fill="url(#paint0_linear)"/>
<g clip-path="url(#clip0)">
<path opacity="0.5" d="M30.2912 13.5435V17.4556H28.688C28.688 16.0638 27.5639 14.9361 26.1773 14.9353H25.4816C25.4816 13.5137 24.3326 12.3618 22.9164 12.3618H10.0083C8.23663 12.3618 6.80115 13.8027 6.80115 15.5793V35.1229L6.77307 35.209C5.12094 34.6737 4 33.1298 4 31.3871V10.4154C4 8.52942 5.52455 7 7.40455 7H15.3418C16.1153 7 16.8631 7.28093 17.4473 7.79047L19.2198 9.33841C19.8039 9.84795 20.5517 10.1289 21.3253 10.1289H26.8882C28.7674 10.1289 30.2912 11.6583 30.2912 13.5435Z" fill="white"/>
<path opacity="0.6" d="M33.5766 28.5258C33.1909 28.9192 32.6765 29.1373 32.129 29.1395L7.68854 29.2312C7.50653 29.2321 7.3303 29.2085 7.16284 29.1637C6.29607 28.9316 5.65852 28.1311 5.66169 27.1786L5.71916 10.1622C5.721 9.61164 5.93286 9.09371 6.31615 8.70356C6.70207 8.30939 7.21645 8.09131 7.76371 8.08985L32.2044 7.9974C33.327 7.99334 34.235 8.91426 34.2318 10.0509L34.1736 27.0672C34.1719 27.617 33.9601 28.1349 33.5766 28.5258Z" fill="#2BB37E"/>
<path d="M33 11.3155V32.6845C33 33.9607 32.1028 35 31.0005 35H27.745C27.4688 35 27.2447 34.741 27.2447 34.422H23.7812C23.7812 34.741 23.5571 35 23.2809 35H7.00021C5.8972 35 5 33.9607 5 32.6845V11.3147C5 10.0384 5.8972 9 7.00021 9H31.0005C32.1028 9 33 10.0393 33 11.3155Z" fill="white"/>
<path d="M16.6818 19.668H8.04736V24.7475H16.6818V19.668Z" fill="#7AFFBF"/>
<path d="M30.9054 19.668H18.207V20.6836H30.9054V19.668Z" fill="#7AFFBF"/>
<path d="M30.9054 23.7305H18.207V24.7461H30.9054V23.7305Z" fill="#7AFFBF"/>
<path d="M30.9054 21.7002H18.207V22.7158H30.9054V21.7002Z" fill="#4EDB97"/>
<path d="M30.904 25.7617H8.04736V26.7773H30.904V25.7617Z" fill="#4EDB97"/>
<path d="M30.904 27.7949H8.04736V28.8105H30.904V27.7949Z" fill="#7AFFBF"/>
<path d="M10.457 15.4747H10.5321V12.8743C10.5321 12.8074 10.5366 12.7441 10.5448 12.6846C10.553 12.6251 10.5716 12.5737 10.5998 12.5299C10.6281 12.486 10.6698 12.451 10.7256 12.4249C10.7806 12.3989 10.8565 12.3855 10.9532 12.3855C11.0596 12.3855 11.1437 12.3989 11.2055 12.4249C11.2672 12.451 11.3134 12.486 11.3446 12.5299C11.3759 12.5737 11.3959 12.6251 11.4041 12.6846C11.4123 12.7441 11.4168 12.8074 11.4168 12.8743V16.0514C11.4168 16.1436 11.4138 16.2322 11.4086 16.3177C11.4034 16.4033 11.387 16.4799 11.3587 16.5484C11.3305 16.6161 11.2843 16.6704 11.2211 16.7113C11.1571 16.7522 11.0678 16.7723 10.9532 16.7723H10.5396C10.4414 16.7723 10.3595 16.753 10.2933 16.7143C10.2278 16.6756 10.1728 16.6287 10.1289 16.5729C10.085 16.5179 10.05 16.4598 10.024 16.3988C9.99791 16.3385 9.97708 16.2872 9.96294 16.2448L9.01653 13.6816H8.94139V16.2827C8.94139 16.3497 8.93692 16.413 8.92874 16.4725C8.92055 16.532 8.90195 16.5833 8.87368 16.628C8.84541 16.6719 8.80374 16.7068 8.74794 16.7329C8.69214 16.7589 8.61699 16.7723 8.52026 16.7723C8.41164 16.7723 8.32607 16.7589 8.26357 16.7329C8.20108 16.7068 8.1542 16.6719 8.12295 16.628C8.0917 16.5841 8.07161 16.532 8.06343 16.4725C8.05525 16.413 8.05078 16.3497 8.05078 16.2827V13.1057C8.05078 13.0157 8.05301 12.9279 8.05897 12.8409C8.06417 12.7545 8.08129 12.6764 8.1103 12.6087C8.13932 12.541 8.18619 12.4867 8.24944 12.4458C8.31342 12.4049 8.40345 12.3848 8.52026 12.3848H8.93395C9.03811 12.3848 9.12367 12.4049 9.18915 12.4458C9.25462 12.4867 9.30894 12.5306 9.3506 12.579C9.39673 12.6355 9.43319 12.7002 9.46072 12.7732L10.457 15.4747Z" fill="#39C18C"/>
<path d="M14.782 14.9867C14.782 15.0202 14.7798 15.0596 14.776 15.1042C14.7723 15.1489 14.7559 15.192 14.7277 15.2329C14.6994 15.2739 14.6548 15.3088 14.5945 15.3379C14.5342 15.3669 14.4479 15.3818 14.3378 15.3818H13.0908V15.6823C13.0908 15.7322 13.0975 15.785 13.1094 15.8393C13.122 15.8936 13.1436 15.9435 13.1734 15.9896C13.2039 16.0358 13.2441 16.0737 13.2947 16.1027C13.3445 16.1317 13.4063 16.1466 13.4799 16.1466C13.5633 16.1466 13.628 16.1369 13.6726 16.1169C13.7173 16.0968 13.753 16.0722 13.779 16.0432C13.8051 16.0142 13.8289 15.9829 13.8497 15.9494C13.8705 15.916 13.8981 15.8847 13.933 15.8557C13.968 15.8267 14.0156 15.8021 14.0766 15.782C14.1384 15.762 14.2232 15.7523 14.3318 15.7523C14.3839 15.7523 14.4345 15.7567 14.4836 15.7649C14.5327 15.7731 14.5759 15.7895 14.6138 15.8118C14.651 15.8349 14.6815 15.8669 14.7046 15.9078C14.7277 15.9487 14.7388 16.0008 14.7388 16.0663C14.7388 16.2017 14.6957 16.3155 14.6101 16.4063C14.5245 16.4971 14.4167 16.57 14.2872 16.6243C14.1577 16.6786 14.0171 16.7173 13.8653 16.7404C13.7143 16.7634 13.5722 16.7746 13.4405 16.7746C13.2671 16.7723 13.102 16.7508 12.9457 16.7091C12.7895 16.6674 12.6503 16.6005 12.5305 16.5082C12.41 16.416 12.3148 16.2962 12.2441 16.1481C12.1734 16 12.1377 15.8185 12.1377 15.6035V14.8691C12.1377 14.6705 12.1615 14.5023 12.2084 14.3647C12.2553 14.227 12.3163 14.1117 12.3914 14.0202C12.4666 13.9279 12.5514 13.8565 12.6451 13.8059C12.7389 13.7553 12.8341 13.7166 12.9301 13.6913C13.0261 13.666 13.1176 13.6504 13.2039 13.6444C13.2909 13.6385 13.3653 13.6348 13.4278 13.6348C13.6392 13.6348 13.8192 13.6534 13.968 13.6913C14.1176 13.7293 14.2426 13.7784 14.343 13.8386C14.4434 13.8989 14.5231 13.9696 14.5811 14.0484C14.6399 14.1281 14.6838 14.2099 14.7128 14.294C14.7418 14.3788 14.7611 14.4644 14.7693 14.5507C14.7775 14.6377 14.782 14.7181 14.782 14.794V14.9882V14.9867ZM13.0901 14.9115H13.8735C13.8735 14.8133 13.8705 14.7263 13.8653 14.6496C13.8601 14.5737 13.8445 14.509 13.8185 14.4569C13.7924 14.4048 13.7515 14.3654 13.6964 14.3379C13.6414 14.3103 13.5625 14.297 13.4598 14.297C13.3743 14.297 13.3066 14.3103 13.2575 14.3379C13.2084 14.3654 13.1712 14.3989 13.1466 14.4398C13.122 14.4807 13.1057 14.5239 13.0997 14.57C13.0938 14.6161 13.0901 14.6563 13.0901 14.692V14.9115Z" fill="#39C18C"/>
<path d="M17.2384 14.0032C17.3388 14.0032 17.4281 14.0352 17.5062 14.0992C17.5843 14.1625 17.6535 14.2771 17.7146 14.4422L18.0464 15.3261H18.0962L18.4474 14.0977C18.4645 14.0397 18.4854 13.9832 18.5114 13.9281C18.5375 13.8738 18.5694 13.8254 18.6074 13.7823C18.6446 13.7391 18.69 13.7049 18.7421 13.6789C18.7941 13.6528 18.8566 13.6394 18.9303 13.6394C19.0054 13.6394 19.0694 13.6528 19.1215 13.6803C19.1736 13.7079 19.2168 13.7436 19.2502 13.7867C19.2837 13.8306 19.3075 13.8805 19.3224 13.937C19.3373 13.9936 19.3447 14.0509 19.3447 14.1096C19.3447 14.1662 19.3365 14.2205 19.3209 14.2741C19.3053 14.3269 19.2882 14.3812 19.2696 14.4355L18.5739 16.2844C18.5255 16.4072 18.4824 16.5024 18.4437 16.5679C18.405 16.6334 18.3671 16.6818 18.3291 16.7115C18.2919 16.742 18.254 16.7599 18.216 16.7651C18.1788 16.7703 18.1387 16.7725 18.097 16.7725C18.0509 16.7725 18.0077 16.7696 17.9668 16.7651C17.9259 16.7599 17.8849 16.742 17.8448 16.7115C17.8038 16.681 17.7629 16.6334 17.7213 16.5679C17.6796 16.5017 17.6357 16.4072 17.5896 16.2844L17.2637 15.1565H17.2138L16.8753 16.2844C16.8292 16.4072 16.7867 16.5024 16.7481 16.5679C16.7094 16.6334 16.6714 16.6818 16.635 16.7115C16.5985 16.742 16.5613 16.7599 16.5241 16.7651C16.4862 16.7703 16.4467 16.7725 16.4051 16.7725C16.3589 16.7725 16.3158 16.7696 16.2749 16.7651C16.2339 16.7599 16.1938 16.742 16.1528 16.7115C16.1119 16.681 16.071 16.6334 16.0293 16.5679C15.9877 16.5017 15.9438 16.4072 15.8976 16.2844L15.1953 14.4355C15.1767 14.3857 15.1588 14.3314 15.1439 14.2741C15.1283 14.2168 15.1201 14.1595 15.1201 14.1029C15.1201 14.0427 15.1283 13.9839 15.1439 13.9274C15.1596 13.8716 15.1848 13.8217 15.2191 13.7786C15.2533 13.7361 15.2987 13.7019 15.3552 13.6766C15.4118 13.6513 15.4817 13.6387 15.565 13.6387C15.6238 13.6387 15.6759 13.6521 15.7235 13.6781C15.7704 13.7041 15.8128 13.7384 15.8508 13.7815C15.8887 13.8247 15.9207 13.873 15.9482 13.9274C15.975 13.9817 15.9981 14.0382 16.0174 14.097L16.4125 15.3254H16.4623L16.7503 14.4415C16.8024 14.2771 16.8716 14.1617 16.9586 14.0985C17.0442 14.0345 17.1379 14.0032 17.2384 14.0032Z" fill="#39C18C"/>
<path d="M20.6279 14.4573C20.6279 14.499 20.6413 14.5376 20.6689 14.5734C20.6956 14.6091 20.7328 14.6426 20.7797 14.6753C20.8266 14.708 20.8809 14.74 20.9427 14.7713C21.0044 14.8025 21.0684 14.8338 21.1354 14.865C21.2373 14.9156 21.3422 14.9692 21.4486 15.0265C21.555 15.0838 21.6525 15.1515 21.7403 15.2281C21.8281 15.3055 21.8995 15.3948 21.9553 15.496C22.0103 15.5971 22.0386 15.7169 22.0386 15.8546C22.0386 15.9796 22.02 16.0904 21.9836 16.1864C21.9471 16.2824 21.8987 16.3657 21.8377 16.4357C21.7775 16.5056 21.706 16.5636 21.6264 16.6098C21.5461 16.6559 21.462 16.6924 21.3727 16.7199C21.2834 16.7474 21.1934 16.7668 21.1019 16.7779C21.0096 16.7898 20.9233 16.795 20.8422 16.795C20.6815 16.795 20.5409 16.7816 20.4226 16.7541C20.3035 16.7266 20.2009 16.6909 20.1153 16.6462C20.0297 16.6016 19.959 16.5503 19.904 16.493C19.8489 16.4357 19.805 16.3754 19.7738 16.3129C19.7425 16.2504 19.7202 16.1879 19.7076 16.1262C19.6949 16.0644 19.689 16.0079 19.689 15.9558C19.689 15.83 19.7239 15.7385 19.7939 15.6797C19.8638 15.621 19.971 15.5919 20.1153 15.5919C20.2195 15.5919 20.305 15.6202 20.372 15.6768C20.4389 15.7333 20.4747 15.8241 20.4784 15.9491C20.4806 15.9915 20.4925 16.0242 20.5148 16.0495C20.5364 16.0748 20.5647 16.0949 20.5997 16.1105C20.6339 16.1262 20.6726 16.1366 20.7142 16.1418C20.7559 16.147 20.7968 16.15 20.8363 16.15C20.9174 16.15 20.9843 16.1284 21.0349 16.0852C21.0863 16.0428 21.1116 15.9863 21.1116 15.9178C21.1116 15.859 21.0944 15.8047 21.0595 15.7534C21.0252 15.7021 20.9799 15.6544 20.9233 15.6105C20.8668 15.5666 20.802 15.5242 20.7306 15.4833C20.6584 15.4424 20.5848 15.4015 20.5096 15.3598C20.4159 15.3092 20.3214 15.2564 20.2262 15.1998C20.1309 15.1433 20.0454 15.0808 19.9672 15.0116C19.8891 14.9424 19.8274 14.865 19.779 14.778C19.7306 14.6909 19.7068 14.5927 19.7068 14.4818C19.7068 14.3182 19.7336 14.1827 19.7864 14.0734C19.8393 13.9633 19.9174 13.8747 20.0201 13.807C20.122 13.7393 20.247 13.6909 20.395 13.6612C20.5424 13.6322 20.7098 13.615 20.898 13.6113H20.9479C21.1168 13.6113 21.2604 13.6262 21.3787 13.6552C21.497 13.6842 21.5952 13.7229 21.6733 13.7698C21.7514 13.8167 21.8132 13.8695 21.8578 13.9283C21.9025 13.9871 21.9359 14.0458 21.9583 14.1054C21.9806 14.1649 21.994 14.2222 21.9992 14.2765C22.0044 14.3308 22.0066 14.3769 22.0066 14.4141C22.0066 14.4766 21.994 14.5287 21.9672 14.5689C21.9411 14.6098 21.9069 14.6418 21.8638 14.6664C21.8214 14.6902 21.7723 14.7073 21.7179 14.7162C21.6636 14.7259 21.6071 14.7318 21.549 14.7333C21.4984 14.7333 21.4531 14.7251 21.4129 14.708C21.372 14.6909 21.337 14.6701 21.308 14.6448C21.279 14.6195 21.2559 14.592 21.2403 14.5607C21.2246 14.5295 21.2165 14.499 21.2165 14.4699C21.212 14.3903 21.1807 14.3301 21.1212 14.2884C21.0617 14.2467 20.9888 14.2259 20.904 14.2259C20.8683 14.2259 20.8348 14.2296 20.802 14.2371C20.77 14.2445 20.7403 14.2571 20.7142 14.275C20.6882 14.2929 20.6674 14.3159 20.6517 14.3457C20.6369 14.3747 20.6279 14.4119 20.6279 14.4573Z" fill="#39C18C"/>
<path d="M10.0084 34.8627C10.9601 34.3097 11.6429 33.388 11.8965 32.315L15.3925 19.9331C15.7351 18.4826 17.0269 17.4578 18.513 17.457H32.9697C33.9293 17.457 34.8385 17.8877 35.4475 18.6315C36.0565 19.3744 36.302 20.3533 36.1159 21.2975L33.3741 32.8092C33.0772 34.3169 31.7597 35.4028 30.2279 35.4028H8.00244C8.70694 35.4028 9.3986 35.2169 10.0084 34.8627Z" fill="#F38205"/>
</g>
<defs>
<linearGradient id="paint0_linear" x1="20" y1="0" x2="20" y2="40" gradientUnits="userSpaceOnUse">
<stop stop-color="#50DBA4"/>
<stop offset="1" stop-color="#06B89C"/>
</linearGradient>
<clipPath id="clip0">
<rect width="32" height="32" fill="white" transform="translate(4 4)"/>
</clipPath>
</defs>
</svg>
