<svg width="144" height="19" viewBox="0 0 144 19" fill="none" xmlns="http://www.w3.org/2000/svg">
<path d="M6.69043 11.6421C6.69043 12.6873 6.45133 13.5295 5.97314 14.1685C5.49495 14.8075 4.84749 15.127 4.03076 15.127C3.1971 15.127 2.54118 14.8625 2.06299 14.3335V17.6406H0.888672V8.13184H1.96143L2.01855 8.89355C2.49674 8.30111 3.16113 8.00488 4.01172 8.00488C4.83691 8.00488 5.48861 8.31592 5.9668 8.93799C6.44922 9.56006 6.69043 10.4255 6.69043 11.5342V11.6421ZM5.51611 11.5088C5.51611 10.7344 5.35107 10.1229 5.021 9.67432C4.69092 9.22575 4.23812 9.00146 3.6626 9.00146C2.95166 9.00146 2.41846 9.31673 2.06299 9.94727V13.229C2.41423 13.8553 2.95166 14.1685 3.67529 14.1685C4.23812 14.1685 4.68457 13.9463 5.01465 13.502C5.34896 13.0534 5.51611 12.389 5.51611 11.5088ZM8.00744 11.5024C8.00744 10.8296 8.13863 10.2244 8.401 9.68701C8.6676 9.14958 9.03576 8.73486 9.50549 8.44287C9.97945 8.15088 10.519 8.00488 11.1241 8.00488C12.0594 8.00488 12.8147 8.32861 13.3903 8.97607C13.97 9.62354 14.2599 10.4847 14.2599 11.5596V11.6421C14.2599 12.3107 14.1308 12.9116 13.8727 13.4448C13.6188 13.9738 13.2527 14.3864 12.7745 14.6826C12.3006 14.9788 11.7547 15.127 11.1368 15.127C10.2058 15.127 9.45048 14.8032 8.87072 14.1558C8.2952 13.5083 8.00744 12.6514 8.00744 11.585V11.5024ZM9.18811 11.6421C9.18811 12.4038 9.36372 13.0153 9.71496 13.4766C10.0704 13.9378 10.5444 14.1685 11.1368 14.1685C11.7335 14.1685 12.2075 13.9357 12.5587 13.4702C12.9099 13.0005 13.0856 12.3446 13.0856 11.5024C13.0856 10.7492 12.9057 10.1398 12.546 9.67432C12.1905 9.20459 11.7166 8.96973 11.1241 8.96973C10.5444 8.96973 10.0768 9.20036 9.72131 9.66162C9.36584 10.1229 9.18811 10.783 9.18811 11.6421ZM21.9436 13.3813L23.2639 8.13184H24.4382L22.4387 15H21.4866L19.8171 9.79492L18.1921 15H17.24L15.2468 8.13184H16.4148L17.7668 13.2734L19.3664 8.13184H20.3122L21.9436 13.3813ZM28.618 15.127C27.687 15.127 26.9296 14.8223 26.3456 14.2129C25.7616 13.5993 25.4696 12.7804 25.4696 11.7563V11.5405C25.4696 10.8592 25.5987 10.252 25.8568 9.71875C26.1192 9.18132 26.4831 8.76237 26.9486 8.46191C27.4183 8.15723 27.9261 8.00488 28.472 8.00488C29.3649 8.00488 30.0589 8.29899 30.5541 8.88721C31.0492 9.47542 31.2967 10.3175 31.2967 11.4136V11.9023H26.6439C26.6608 12.5794 26.8576 13.1274 27.2342 13.5464C27.6151 13.9611 28.0975 14.1685 28.6815 14.1685C29.0962 14.1685 29.4475 14.0838 29.7352 13.9146C30.023 13.7453 30.2748 13.521 30.4906 13.2417L31.2079 13.8003C30.6323 14.6847 29.7691 15.127 28.618 15.127ZM28.472 8.96973C27.9981 8.96973 27.6003 9.14323 27.2787 9.49023C26.9571 9.83301 26.7582 10.3154 26.682 10.9375H30.1224V10.8486C30.0886 10.252 29.9278 9.79069 29.64 9.46484C29.3522 9.13477 28.9629 8.96973 28.472 8.96973ZM36.1113 9.18555C35.9336 9.15592 35.741 9.14111 35.5337 9.14111C34.7635 9.14111 34.2409 9.46908 33.9658 10.125V15H32.7915V8.13184H33.9341L33.9531 8.92529C34.3382 8.31169 34.8841 8.00488 35.5908 8.00488C35.8193 8.00488 35.9928 8.03451 36.1113 8.09375V9.18555ZM40.0499 15.127C39.1189 15.127 38.3614 14.8223 37.7774 14.2129C37.1935 13.5993 36.9015 12.7804 36.9015 11.7563V11.5405C36.9015 10.8592 37.0305 10.252 37.2887 9.71875C37.551 9.18132 37.915 8.76237 38.3805 8.46191C38.8502 8.15723 39.358 8.00488 39.9039 8.00488C40.7968 8.00488 41.4908 8.29899 41.9859 8.88721C42.4811 9.47542 42.7286 10.3175 42.7286 11.4136V11.9023H38.0758C38.0927 12.5794 38.2895 13.1274 38.6661 13.5464C39.047 13.9611 39.5294 14.1685 40.1134 14.1685C40.5281 14.1685 40.8793 14.0838 41.1671 13.9146C41.4549 13.7453 41.7066 13.521 41.9225 13.2417L42.6397 13.8003C42.0642 14.6847 41.2009 15.127 40.0499 15.127ZM39.9039 8.96973C39.4299 8.96973 39.0322 9.14323 38.7105 9.49023C38.3889 9.83301 38.19 10.3154 38.1139 10.9375H41.5543V10.8486C41.5204 10.252 41.3596 9.79069 41.0719 9.46484C40.7841 9.13477 40.3948 8.96973 39.9039 8.96973ZM43.9377 11.5088C43.9377 10.4551 44.1874 9.60872 44.6867 8.96973C45.1861 8.3265 45.8399 8.00488 46.6482 8.00488C47.4522 8.00488 48.0891 8.27995 48.5588 8.83008V5.25H49.7331V15H48.654L48.5969 14.2637C48.1272 14.8392 47.4734 15.127 46.6355 15.127C45.8399 15.127 45.1903 14.8011 44.6867 14.1494C44.1874 13.4977 43.9377 12.6471 43.9377 11.5977V11.5088ZM45.112 11.6421C45.112 12.4207 45.2728 13.0301 45.5945 13.4702C45.9161 13.9103 46.3604 14.1304 46.9275 14.1304C47.6723 14.1304 48.216 13.7961 48.5588 13.1274V9.97266C48.2076 9.3252 47.668 9.00146 46.9402 9.00146C46.3646 9.00146 45.9161 9.22363 45.5945 9.66797C45.2728 10.1123 45.112 10.7703 45.112 11.6421ZM60.8603 11.6421C60.8603 12.6916 60.6191 13.5358 60.1367 14.1748C59.6543 14.8096 59.0068 15.127 58.1943 15.127C57.3268 15.127 56.656 14.8201 56.1821 14.2065L56.125 15H55.0459V5.25H56.2202V8.88721C56.6941 8.29899 57.3479 8.00488 58.1816 8.00488C59.0153 8.00488 59.6691 8.32015 60.143 8.95068C60.6212 9.58122 60.8603 10.4445 60.8603 11.5405V11.6421ZM59.686 11.5088C59.686 10.709 59.5315 10.0911 59.2226 9.65527C58.9137 9.2194 58.4694 9.00146 57.8896 9.00146C57.1152 9.00146 56.5587 9.36117 56.2202 10.0806V13.0513C56.5799 13.7707 57.1406 14.1304 57.9023 14.1304C58.4651 14.1304 58.9031 13.9124 59.2163 13.4766C59.5294 13.0407 59.686 12.3848 59.686 11.5088ZM64.6466 13.2798L66.2462 8.13184H67.503L64.7418 16.0601C64.3144 17.2026 63.6352 17.7739 62.7042 17.7739L62.482 17.7549L62.044 17.6724V16.7202L62.3614 16.7456C62.7592 16.7456 63.0681 16.6652 63.2882 16.5044C63.5124 16.3436 63.6965 16.0495 63.8404 15.6221L64.1007 14.9238L61.6505 8.13184H62.9327L64.6466 13.2798Z" fill="#454545"/>
<path d="M114.067 12.2202L116.599 4.80469H119.312L115.604 14.7523H112.53L108.822 4.80469H111.535L114.067 12.2202Z" fill="#03AEA0"/>
<path d="M129.712 10.1394C129.712 9.95856 129.712 9.7777 129.712 9.68727C129.712 9.5064 129.712 9.2351 129.712 9.05424C129.441 6.52213 127.27 4.62305 124.648 4.62305C122.025 4.62305 119.855 6.52213 119.583 9.05424C119.583 9.2351 119.583 9.5064 119.583 9.68727C119.583 9.86813 119.583 10.049 119.583 10.1394C119.583 10.5012 119.674 10.7725 119.764 11.1342C120.397 13.2141 122.387 14.7515 124.648 14.7515C126.909 14.7515 128.898 13.2141 129.531 11.1342H126.818C126.547 12.0385 125.642 12.762 124.648 12.762C123.653 12.762 122.749 12.1289 122.477 11.1342C122.387 10.9533 122.387 10.682 122.387 10.4107C122.387 10.3203 122.387 10.2299 122.387 10.1394H129.712ZM124.648 6.52213C126.004 6.52213 126.999 7.60732 126.999 8.87337V8.96381H122.296V8.87337C122.206 7.60732 123.291 6.52213 124.648 6.52213Z" fill="#03AEA0"/>
<path d="M108.37 10.1394C108.37 9.95856 108.37 9.7777 108.37 9.68727C108.37 9.5064 108.37 9.2351 108.37 9.05424C108.098 6.52213 105.928 4.62305 103.305 4.62305C100.683 4.62305 98.5125 6.52213 98.2412 9.05424C98.2412 9.2351 98.2412 9.5064 98.2412 9.68727C98.2412 9.86813 98.2412 10.049 98.2412 10.1394C98.2412 10.5012 98.3316 10.7725 98.4221 11.1342C99.0551 13.2141 101.045 14.7515 103.305 14.7515C105.566 14.7515 107.556 13.2141 108.189 11.1342H105.476C105.205 12.0385 104.3 12.762 103.305 12.762C102.311 12.762 101.406 12.1289 101.135 11.1342C101.045 10.9533 101.045 10.682 101.045 10.4107C101.045 10.3203 101.045 10.2299 101.045 10.1394H108.37ZM103.305 6.52213C104.662 6.52213 105.657 7.60732 105.657 8.87337V8.96381H100.954V8.87337C100.954 7.60732 102.039 6.52213 103.305 6.52213Z" fill="#03AEA0"/>
<path d="M138.122 8.33008V14.6604H137.217V11.7665H134.143V14.6604H133.238V8.33008H134.143V11.1335H137.217V8.33008H138.122Z" fill="#5D6765"/>
<path d="M143.095 14.6604L141.648 12.0378H141.558H140.021V14.6604H139.116V8.33008H141.558C142.914 8.33008 143.819 9.05354 143.819 10.1387C143.819 11.0431 143.276 11.6761 142.462 11.9474L144 14.7508H143.095V14.6604ZM140.021 11.4048H141.648C142.462 11.4048 142.914 10.9526 142.914 10.2292C142.914 9.5057 142.372 9.05354 141.648 9.05354H140.021V11.4048Z" fill="#5D6765"/>
<path d="M88.2031 10.5918C87.6606 12.31 86.0328 13.5761 84.1337 13.5761C82.2346 13.5761 80.6068 12.31 80.0642 10.5918H75C76.1756 14.5708 79.8834 17.3742 84.1337 17.3742C88.384 17.3742 92.0917 14.5708 93.2674 10.5918H88.2031Z" fill="url(#paint0_linear)"/>
<path d="M84.1338 2C86.5755 2 88.565 3.98951 88.565 6.43119C88.565 6.52163 88.565 6.52162 88.565 6.61206H79.7026C79.7026 6.52162 79.7026 6.52163 79.7026 6.43119C79.7026 3.98951 81.6922 2 84.1338 2Z" fill="url(#paint1_linear)"/>
<defs>
<linearGradient id="paint0_linear" x1="75.9754" y1="13.9029" x2="90.369" y2="13.9996" gradientUnits="userSpaceOnUse">
<stop stop-color="#69BE5F"/>
<stop offset="1" stop-color="#03AEA0"/>
</linearGradient>
<linearGradient id="paint1_linear" x1="76.0402" y1="4.27347" x2="90.4338" y2="4.37015" gradientUnits="userSpaceOnUse">
<stop stop-color="#69BE5F"/>
<stop offset="1" stop-color="#03AEA0"/>
</linearGradient>
</defs>
</svg>
