<svg width="32" height="32" viewBox="0 0 32 32" fill="none" xmlns="http://www.w3.org/2000/svg">
<path d="M23.5 5.3999C23.1 5.6999 22.8 6.0999 22.4 6.3999C21.3 7.3999 20.1 8.4999 19 9.4999C18.5 9.9999 17.9 10.2999 17.2 10.3999C16.2 10.4999 15.2 10.5999 14.2 10.3999C13.6 10.2999 13.2 9.9999 12.7 9.5999C11.1 8.1999 9.6 6.7999 8 5.4999C8 5.4999 8 5.3999 7.9 5.3999C7.7 5.9999 7.7 6.6999 8 7.2999C8.1 7.5999 8.3 7.8999 8.6 8.0999C10.1 9.4999 11.6 10.8999 13.2 12.2999C13.3 12.3999 13.3 12.3999 13.3 12.5999C13.3 16.2999 13.3 20.0999 13.3 23.7999C13.3 23.8999 13.3 23.9999 13.1 23.9999C12.8 23.9999 12.5 23.9999 12.1 23.9999C12 23.9999 11.9 23.9999 11.9 23.7999C11.9 20.2999 11.9 16.6999 11.9 13.1999C11.9 13.0999 11.9 12.9999 11.8 12.8999C10.4 11.5999 9 10.2999 7.6 8.9999C6.8 8.2999 6.5 7.2999 6.5 6.2999C6.5 5.4999 6.8 4.6999 7.3 4.0999C7.4 3.8999 7.5 3.7999 7.6 3.5999C7.7 3.4999 7.7 3.4999 7.8 3.5999C8.5 4.1999 9.2 4.7999 9.9 5.3999C11.2 6.4999 12.5 7.6999 13.7 8.7999C14 9.0999 14.4 9.1999 14.7 9.1999C15.4 9.2999 16.2 9.2999 16.9 9.1999C17.3 9.0999 17.7 8.9999 18 8.6999C19.9 6.9999 21.7 5.2999 23.6 3.5999C23.6 3.5999 23.7 3.4999 23.7 3.5999C24.1 4.0999 24.5 4.4999 24.7 5.1999C25.2 6.6999 24.9 7.9999 23.8 9.0999C22.5 10.3999 21.1 11.6999 19.7 12.9999C19.6 13.0999 19.6 13.0999 19.6 13.2999C19.6 16.8999 19.6 20.3999 19.6 23.9999C19.6 24.0999 19.6 24.1999 19.4 24.1999C19.1 24.1999 18.8 24.1999 18.4 24.1999C18.3 24.1999 18.3 24.1999 18.3 24.0999C18.3 21.9999 18.3 19.7999 18.3 17.6999C18.3 16.0999 18.3 14.4999 18.3 12.8999C18.3 12.7999 18.3 12.6999 18.4 12.5999C19.9 11.1999 21.4 9.7999 22.9 8.2999C23.6 7.3999 23.8 6.2999 23.5 5.3999Z" fill="#C10F2F"/>
<path d="M15.8 24.6C17.6 24.6 19.5 24.6 21.3 24.6C21.5 24.6 21.5 24.6 21.5 24.8C21.5 25.5 21.5 26.2 21.5 27C21.5 27.1 21.5 27.2 21.7 27.2C24.8 27.2 27.8 27.2 30.9 27.2C31.1 27.2 31.1 27.2 31.1 27.4C31.1 28.8 31.1 30.2 31.1 31.5C31.1 31.6 31.1 31.7 30.9 31.7C30.6 31.7 30.3 31.7 29.9 31.7C29.8 31.7 29.7 31.7 29.7 31.5C29.7 30.5 29.7 29.6 29.7 28.6C29.7 28.5 29.7 28.4 29.5 28.4C26.8 28.4 24.2 28.4 21.5 28.4C21.4 28.4 21.3 28.4 21.3 28.6C21.3 29.6 21.3 30.5 21.3 31.5C21.3 31.6 21.3 31.7 21.2 31.7C20.9 31.7 20.5 31.7 20.2 31.7C20.1 31.7 20 31.7 20 31.5C20 29.7 20 28 20 26.2C20 25.9 20 25.9 19.7 25.9C16.9 25.9 14 25.9 11.2 25.9C11 25.9 11 25.9 11 26.1C11 27.9 11 29.7 11 31.5C11 31.6 11 31.7 10.8 31.7C10.5 31.7 10.1 31.7 9.8 31.7C9.7 31.7 9.6 31.7 9.6 31.6C9.6 31.3 9.6 31 9.6 30.6C9.6 30.5 9.6 30.4 9.4 30.4C6.8 30.4 4.3 30.4 1.7 30.4C1.6 30.4 1.5 30.4 1.4 30.4C1.3 30.4 1.2 30.4 1.2 30.6C1.2 30.9 1.2 31.3 1.2 31.6C1.2 31.7 1.2 31.7 1.1 31.7C0.8 31.7 0.4 31.7 0.1 31.7C-7.45058e-09 31.7 0 31.7 0 31.6C0 30.8 0 30.1 0 29.3C0.4 29.1 0.4 29 0.6 29C3.7 29 6.8 29 9.8 29C10 29 10 29 10 28.8C10 27.4 10 26.1 10 24.7C10 24.5 10 24.5 10.2 24.5C12.1 24.6 13.9 24.6 15.8 24.6Z" fill="#87888C"/>
<path d="M15.7 0C13.6 0 11.9 1.7 12 3.8C12 5.9 13.7 7.5 15.8 7.6C17.9 7.6 19.6 5.9 19.6 3.8C19.4 1.7 17.7 0 15.7 0ZM15.7 6.3C14.3 6.3 13.2 5.2 13.2 3.8C13.2 2.4 14.3 1.3 15.7 1.3C17.1 1.3 18.2 2.4 18.2 3.8C18.2 5.2 17.1 6.3 15.7 6.3Z" fill="#C10F2F"/>
<path d="M16.4 20.7C16.4 21.7 16.4 22.7 16.4 23.7C16.4 23.8 16.4 23.9 16.2 23.9C15.9 23.9 15.5 23.9 15.2 23.9C15.1 23.9 15.1 23.9 15.1 23.8C15.1 21.7 15.1 19.7 15.1 17.6C15.1 17.5 15.1 17.5 15.2 17.5C15.5 17.5 15.9 17.5 16.2 17.5C16.3 17.5 16.3 17.5 16.3 17.7C16.4 18.7 16.4 19.7 16.4 20.7Z" fill="#C10F2F"/>
</svg>
