<svg width="32" height="32" viewBox="0 0 32 32" fill="none" xmlns="http://www.w3.org/2000/svg">
<path d="M11.0827 12.9798C11.0827 12.5804 10.9828 12.181 10.6833 11.7816C10.2839 11.2824 9.78471 10.9829 9.28549 10.6834C8.78627 10.4837 8.3869 10.284 7.88768 10.0843C8.78627 9.1857 9.28549 8.18726 9.28549 6.88929C9.28549 5.59131 8.78627 4.59287 7.78783 3.79412C5.99064 2.49615 3.49454 2.69584 1.99688 4.39319C0.599064 6.09053 0.698908 8.78632 2.69579 10.284L2.59594 10.3838C2.29641 10.4837 1.99688 10.6834 1.69735 10.7832C1.19813 11.0827 0.698908 11.4821 0.299532 11.9813C0.099844 12.181 0 12.4805 0 12.7801C0 13.6787 0 14.6771 0 15.5757C0 15.6756 0 15.6756 0.099844 15.7754C1.5975 16.8737 3.29485 17.3729 5.19189 17.3729C5.99064 17.3729 6.78939 17.3729 7.4883 17.2731C8.78627 17.0734 9.9844 16.4743 10.9828 15.7754C11.0827 15.6756 11.0827 15.6756 11.0827 15.5757C11.0827 14.6771 11.0827 13.8784 11.0827 12.9798ZM2.39626 7.18882C2.39626 5.59131 3.59438 4.29334 5.09204 4.29334C6.5897 4.1935 7.88768 5.39163 7.98752 6.88929C7.98752 8.48679 6.5897 9.78476 5.19189 9.68492C3.89392 9.78476 2.4961 8.78632 2.39626 7.18882ZM9.68487 13.1795C9.68487 13.6787 9.68487 14.1779 9.68487 14.6771C9.68487 14.777 9.68487 14.777 9.58502 14.8768C8.68643 15.376 7.68799 15.7754 6.68955 15.8752C5.79095 15.9751 4.9922 15.9751 4.0936 15.8752C3.19501 15.7754 2.29641 15.4759 1.49766 14.9766C1.39782 14.9766 1.39782 14.8768 1.39782 14.777C1.39782 14.4774 1.39782 14.1779 1.39782 13.8784C1.39782 13.5788 1.39782 13.3791 1.39782 13.0796C1.39782 12.8799 1.49766 12.7801 1.5975 12.6802C1.79719 12.3807 2.09672 12.181 2.39626 12.0812C3.3947 11.4821 4.49298 11.1826 5.69111 11.1826C6.98908 11.2824 8.18721 11.6818 9.28549 12.4805L9.38533 12.5804C9.68487 12.6802 9.78471 12.8799 9.68487 13.1795Z" fill="#87888C"/>
<path d="M31.9501 12.8799C31.9501 12.4805 31.8503 12.181 31.6506 11.8814C31.2512 11.3822 30.752 11.0827 30.2527 10.6833C29.8534 10.4836 29.454 10.2839 28.9548 10.0842C31.0515 8.38688 30.8518 5.49141 29.1545 3.99375C27.4571 2.39624 24.961 2.49609 23.3635 4.19343C21.8659 5.79094 21.8659 8.48673 23.7629 10.1841C23.3635 10.2839 22.9641 10.4836 22.5648 10.6833C22.0655 10.9828 21.6662 11.2824 21.2668 11.5819C20.8674 11.9813 20.6677 12.4805 20.6677 12.9797C20.6677 13.7785 20.6677 14.5772 20.6677 15.376C20.6677 15.4758 20.6677 15.5757 20.7676 15.5757C22.2652 16.6739 23.9626 17.1732 25.8596 17.1732C26.6584 17.1732 27.3573 17.1732 28.156 17.0733C29.454 16.8736 30.6521 16.2746 31.6506 15.5757C31.7504 15.4758 31.7504 15.4758 31.7504 15.376C31.9501 14.6771 31.9501 13.7785 31.9501 12.8799ZM23.663 6.98907C23.663 5.49141 24.8612 4.29328 26.4587 4.29328C27.9563 4.29328 29.1545 5.49141 29.1545 6.98907C29.1545 8.48673 27.9563 9.68485 26.4587 9.68485C24.8612 9.68485 23.663 8.48673 23.663 6.98907ZM30.5523 13.1794C30.5523 13.3791 30.5523 13.6786 30.5523 13.8783C30.5523 14.1778 30.5523 14.4774 30.5523 14.7769C30.5523 14.8767 30.5523 14.9766 30.4524 14.9766C29.5538 15.4758 28.5554 15.8752 27.557 15.975C26.6584 16.0749 25.6599 16.0749 24.7613 15.8752C23.8627 15.7753 23.064 15.4758 22.3651 14.9766C22.2652 14.9766 22.2652 14.8767 22.2652 14.7769C22.2652 14.1778 22.2652 13.5788 22.2652 12.9797C22.2652 12.8799 22.3651 12.78 22.4649 12.6802C22.6646 12.3806 22.9641 12.181 23.2637 12.0811C24.362 11.482 25.4602 11.0827 26.6584 11.1825C27.9563 11.2824 29.2543 11.6817 30.2527 12.4805L30.3526 12.5803C30.5523 12.6802 30.5523 12.8799 30.5523 13.1794Z" fill="#87888C"/>
<path d="M21.5663 27.5569C21.5663 27.4571 21.5663 27.3572 21.5663 27.2574C21.4665 26.7582 21.1669 26.3588 20.7676 26.0593C19.4696 24.961 17.8721 24.4617 16.1747 24.3619C15.0765 24.2621 13.9782 24.5616 12.8799 25.0608C12.181 25.3603 11.4821 25.7597 10.9829 26.2589C10.5835 26.6583 10.3838 27.1575 10.3838 27.6568C10.3838 28.0561 10.3838 28.3557 10.3838 28.755C10.3838 29.2543 10.3838 29.6536 10.3838 30.1529C10.3838 30.2527 10.3838 30.2527 10.4836 30.3525C11.4821 31.2511 12.6802 31.7504 13.9782 31.8502C15.1763 32.0499 16.4743 32.0499 17.6724 31.8502C19.0702 31.6505 20.2683 31.2511 21.3666 30.2527C21.4665 30.1529 21.4665 30.1529 21.4665 30.053C21.5663 29.2543 21.5663 28.3557 21.5663 27.5569ZM20.1685 27.8564C20.1685 28.3557 20.1685 28.8549 20.1685 29.4539C20.1685 29.5538 20.1685 29.6536 20.0687 29.6536C19.3697 30.1529 18.571 30.3525 17.7722 30.4524C16.674 30.6521 15.5757 30.6521 14.3775 30.4524C13.479 30.3525 12.6802 30.053 11.8814 29.5538C11.7816 29.4539 11.7816 29.4539 11.7816 29.3541C11.7816 29.0546 11.7816 28.755 11.7816 28.4555C11.7816 28.156 11.7816 27.8564 11.7816 27.5569C11.7816 27.4571 11.7816 27.2574 11.8814 27.1575C11.9813 26.9578 12.181 26.858 12.3807 26.7582C13.479 26.0593 14.5772 25.6599 15.8752 25.6599C17.273 25.6599 18.4712 26.1591 19.6693 26.9578L19.7691 27.0577C20.0687 27.2574 20.1685 27.4571 20.1685 27.8564Z" fill="#C10F2F"/>
<path d="M15.9751 15.9751C13.7785 15.9751 11.8815 17.7723 11.8815 20.0687C11.8815 22.3651 13.6787 24.1623 15.9751 24.1623C18.1716 24.1623 20.0687 22.3651 20.0687 20.0687C20.0687 17.7723 18.1716 15.9751 15.9751 15.9751ZM15.9751 22.7645C14.4774 22.7645 13.2793 21.5664 13.2793 20.0687C13.2793 18.571 14.4774 17.2731 15.9751 17.2731C17.4727 17.2731 18.6709 18.4712 18.6709 19.9689C18.6709 21.4665 17.4727 22.7645 15.9751 22.7645Z" fill="#C10F2F"/>
<path d="M15.7753 0C18.3713 0 20.5679 0.49922 22.6646 1.5975C22.7644 1.69735 22.8643 1.69735 22.7644 1.89704C22.5647 2.19657 22.4649 2.4961 22.2652 2.89548C22.2652 2.99532 22.1654 2.99532 22.0655 2.99532C20.9672 2.39626 19.7691 1.99688 18.4711 1.69735C17.3729 1.49766 16.2746 1.39782 15.1763 1.49766C13.2792 1.49766 11.4821 1.99688 9.88455 2.89548C9.78471 2.89548 9.78471 2.89548 9.68486 2.89548C9.48518 2.59594 9.28549 2.19657 9.18564 1.89704C9.0858 1.79719 9.18564 1.79719 9.28549 1.69735C10.4836 1.09828 11.7816 0.599064 13.0796 0.399376C13.9782 0.099844 14.9766 0 15.7753 0Z" fill="#87888C"/>
<path d="M29.9532 18.7707C30.3526 18.8705 30.752 18.8705 31.1513 18.9704C31.2512 18.9704 31.2512 18.9704 31.2512 19.0702C30.8518 21.5663 29.7535 23.6631 28.156 25.6599C27.0577 27.0577 25.6599 28.156 24.1623 29.0546L24.0624 29.1545H23.9626C23.7629 28.7551 23.5632 28.4556 23.3635 28.0562C23.2637 27.9563 23.3635 27.9563 23.4633 27.9563C23.9626 27.6568 24.4618 27.3573 24.961 26.9579C27.1576 25.2606 28.7551 23.1638 29.5538 20.5679C29.6537 19.869 29.7535 19.3698 29.9532 18.7707C29.8534 18.7707 29.8534 18.6708 29.9532 18.7707Z" fill="#87888C"/>
<path d="M0.698975 19.0703C0.698975 18.9704 0.698975 18.9704 0.798819 18.9704C1.19819 18.8706 1.59757 18.8706 1.99695 18.7708C2.09679 18.7708 2.09679 18.8706 2.09679 18.8706C2.19663 19.3698 2.29648 19.9689 2.49617 20.4681C2.99539 22.0656 3.79414 23.4634 4.79258 24.6615C5.79102 25.9595 7.08899 26.958 8.58665 27.8566C8.68649 27.9564 8.68649 27.9564 8.58665 28.0562C8.38696 28.3558 8.18727 28.7552 8.08743 29.0547C7.98759 29.1545 7.98759 29.1545 7.88774 29.0547C6.78946 28.3558 5.69117 27.6569 4.79258 26.6584C2.99539 24.9611 1.79726 23.064 1.09835 20.7676C0.898663 20.1686 0.798819 19.6693 0.698975 19.0703Z" fill="#87888C"/>
</svg>
