<svg width="48" height="48" viewBox="0 0 48 48" fill="none" xmlns="http://www.w3.org/2000/svg">
<g clip-path="url(#clip0)">
<path d="M33.9411 17.4637C33.9411 11.7643 29.3472 7.14453 23.6798 7.14453C18.0124 7.14453 13.4185 11.7643 13.4185 17.4637C13.4185 23.1631 18.0124 27.7829 23.6798 27.7829C29.3442 27.7759 33.9342 23.1601 33.9411 17.4637ZM23.6798 26.1953C18.8846 26.1953 14.9971 22.2859 14.9971 17.4637C14.9971 12.6415 18.8846 8.7321 23.6798 8.7321C28.475 8.7321 32.3625 12.6415 32.3625 17.4637C32.3565 22.2839 28.473 26.1893 23.6798 26.1953Z" fill="url(#paint0_linear)"/>
<path d="M35.0525 28.5414C35.4462 28.2914 35.8645 28.084 36.3016 27.9233C37.2686 27.6435 38.1171 27.0511 38.715 26.2375C39.1176 25.3207 39.2093 24.2967 38.9765 23.3223C38.864 22.7597 38.8512 22.1822 38.939 21.6147C39.1432 21.1047 39.4333 20.6344 39.7974 20.2246C40.5058 19.4854 40.9498 18.5299 41.0603 17.5098C40.9548 16.4888 40.5147 15.5313 39.8102 14.7882C39.4471 14.3774 39.159 13.9051 38.9587 13.3931C38.8739 12.8255 38.8897 12.2471 39.0041 11.6845C39.2419 10.7121 39.1551 9.68712 38.7574 8.76931C38.1635 7.9527 37.3189 7.35538 36.3529 7.06962C35.8221 6.89201 35.3268 6.62113 34.8887 6.27088C34.5414 5.82834 34.274 5.32826 34.0994 4.79246C33.8212 3.81908 33.2321 2.96577 32.423 2.36448C31.5114 1.95965 30.4931 1.86836 29.5242 2.10253C28.9648 2.21564 28.3896 2.22755 27.8252 2.13924C27.317 1.93286 26.8494 1.63916 26.4419 1.27005C25.7068 0.558624 24.7576 0.112122 23.7424 0H23.7354C22.7221 0.109145 21.773 0.551679 21.0359 1.25914C20.6265 1.62328 20.1578 1.91301 19.6497 2.11444C19.0853 2.19878 18.5101 2.1829 17.9506 2.0678C16.9827 1.82768 15.9635 1.915 15.0498 2.31586C14.2388 2.91318 13.6458 3.76352 13.3626 4.73392C13.184 5.26873 12.9127 5.76782 12.5634 6.20837C12.1234 6.55763 11.6261 6.82653 11.0933 7.00215C10.1273 7.28295 9.28078 7.8763 8.68286 8.68993C8.28129 9.60675 8.18953 10.6297 8.42238 11.6041C8.53486 12.1667 8.5467 12.7462 8.45889 13.3127C8.25564 13.8227 7.96556 14.294 7.60049 14.7038C6.89305 15.443 6.44905 16.3976 6.33756 17.4176C6.44412 18.4386 6.88417 19.3961 7.58865 20.1392C7.95175 20.55 8.23985 21.0223 8.44014 21.5343C8.52401 22.1019 8.50822 22.6803 8.39377 23.2429C8.15598 24.2163 8.24281 25.2403 8.63945 26.1591C9.23342 26.9757 10.079 27.572 11.0449 27.8568C11.4811 28.0205 11.8984 28.2309 12.2911 28.4819L4.22412 42.4525C4.00508 42.8315 4.13335 43.3177 4.51025 43.538C4.6918 43.6441 4.90689 43.6729 5.10916 43.6193L11.2087 41.9921L12.6295 47.36C12.741 47.7837 13.1742 48.0357 13.5955 47.9236C13.7977 47.869 13.9714 47.7361 14.076 47.5535L21.7434 34.2358C22.2969 34.6526 22.9619 34.8927 23.6516 34.9264H23.6585C24.3472 34.8947 25.0102 34.6585 25.5637 34.2457L33.164 47.6031C33.3051 47.8492 33.5666 48.001 33.8488 48C33.8823 48 33.9159 47.998 33.9494 47.9931C34.2661 47.9524 34.5276 47.7232 34.6105 47.4136L36.055 42.0556L42.1545 43.7166C42.5758 43.8307 43.009 43.5806 43.1225 43.1569C43.1767 42.9535 43.1491 42.7372 43.0455 42.5556L35.0525 28.5414ZM13.6616 45.0977L12.5328 40.8202C12.4213 40.3966 11.9892 40.1445 11.5679 40.2567L6.53884 41.5942L13.2363 29.9931C13.2561 30.0417 13.2758 30.0873 13.2955 30.1359C13.5738 31.1083 14.1638 31.9616 14.9729 32.5629C15.8845 32.9668 16.9028 33.059 17.8717 32.8259C18.4311 32.7137 19.0064 32.7008 19.5707 32.7882C19.8953 32.9003 20.1982 33.068 20.4666 33.2843L13.6616 45.0977ZM23.6565 33.3388C22.9994 33.2009 22.3965 32.8735 21.92 32.3972C21.3546 31.8942 20.6975 31.5072 19.9841 31.2581C19.6654 31.1758 19.3379 31.1361 19.0083 31.1401C18.5624 31.15 18.1174 31.1877 17.6763 31.2532C17.0478 31.4149 16.3868 31.3941 15.7701 31.1927C15.2827 30.7481 14.9314 30.1726 14.7578 29.5337C14.5456 28.9522 14.2625 28.4005 13.9152 27.8895C13.9053 27.8766 13.7228 27.6365 13.627 27.5393C13.0489 27.0303 12.3769 26.6403 11.6498 26.3903C11.0163 26.2127 10.446 25.8575 10.006 25.3653C9.80964 24.7432 9.79286 24.0784 9.95665 23.4473C10.1086 22.6813 10.1106 21.8925 9.96356 21.1255C9.71985 20.4081 9.339 19.7443 8.84172 19.1738C8.37009 18.6916 8.04844 18.0824 7.91425 17.4205C8.0514 16.7597 8.377 16.1535 8.8506 15.6742C9.35084 15.1057 9.73564 14.4448 9.98329 13.7275C10.1352 12.9605 10.1362 12.1717 9.98822 11.4047C9.82838 10.7736 9.8491 10.1088 10.0484 9.48966C10.4904 8.9995 11.0627 8.64627 11.6981 8.47263C12.4263 8.22656 13.1002 7.83959 13.6813 7.33455C14.1875 6.7531 14.5752 6.07739 14.8239 5.34513C15.0005 4.70812 15.3527 4.13362 15.8401 3.69009C16.4578 3.49363 17.1189 3.47677 17.7464 3.64048C18.5081 3.79428 19.2925 3.79626 20.0552 3.64743C20.7695 3.40136 21.4286 3.01836 21.996 2.51827C22.4745 2.04498 23.0793 1.72151 23.7374 1.58558C24.3945 1.7235 24.9974 2.05093 25.474 2.5272C26.0393 3.03126 26.6964 3.41822 27.4098 3.66628C28.1715 3.81809 28.9559 3.82008 29.7176 3.67124C30.3461 3.50951 31.0072 3.53035 31.6238 3.73177C32.1113 4.17629 32.4625 4.75178 32.6352 5.39077C32.8799 6.12304 33.2637 6.80073 33.7659 7.38515C34.3441 7.89416 35.016 8.28411 35.7432 8.53415C36.3776 8.71176 36.9479 9.06797 37.388 9.56011C37.5843 10.1812 37.6011 10.846 37.4373 11.4761C37.2853 12.2421 37.2824 13.0309 37.4304 13.7979C37.6741 14.5163 38.0559 15.1801 38.5532 15.7516C39.0248 16.2328 39.3465 16.8421 39.4797 17.5039C39.3425 18.1647 39.0169 18.772 38.5433 19.2502C38.0451 19.8197 37.6613 20.4816 37.4156 21.1989C37.2646 21.9649 37.2636 22.7538 37.4116 23.5198C37.5725 24.1518 37.5517 24.8166 37.3514 25.4377C36.9094 25.9279 36.3372 26.2801 35.7017 26.4548C34.9736 26.7008 34.2997 27.0868 33.7185 27.5919C33.6218 27.6881 33.4373 27.9272 33.4285 27.9411C33.0782 28.4501 32.793 29.0008 32.578 29.5803C32.4013 30.2173 32.0471 30.7918 31.5587 31.2343C30.9401 31.4308 30.279 31.4477 29.6505 31.2839C28.8888 31.1301 28.1054 31.1272 27.3427 31.277C26.6284 31.5221 25.9693 31.9061 25.4019 32.4062C24.9224 32.8794 24.3176 33.2029 23.6595 33.3388H23.6565ZM35.7057 40.3192C35.2864 40.2051 34.8542 40.4531 34.7388 40.8748L33.5873 45.1464L26.8474 33.3041C27.1168 33.0898 27.4197 32.9241 27.7453 32.813C28.3096 32.7296 28.8849 32.7465 29.4433 32.8626C30.4112 33.1017 31.4305 33.0144 32.3441 32.6145C33.1552 32.0162 33.7491 31.1669 34.0323 30.1955C34.053 30.1469 34.0728 30.1012 34.0925 30.0536L40.7308 41.6855L35.7057 40.3192Z" fill="url(#paint1_linear)" stroke="url(#paint2_linear)" stroke-width="0.5"/>
<path d="M38.4862 5.53271L38.8867 5.63392C40.3006 5.98913 41.4037 7.09943 41.755 8.5213L41.8556 8.92414C41.9612 9.34981 42.3904 9.60779 42.8127 9.50162C43.0949 9.43018 43.3159 9.20891 43.3869 8.92414L43.4876 8.5213C43.8408 7.09844 44.9459 5.98913 46.3607 5.6359L46.7613 5.53469C47.1846 5.42852 47.4411 4.99691 47.3356 4.57223C47.2645 4.28846 47.0445 4.0662 46.7613 3.99476L46.3607 3.88958C44.9478 3.53536 43.8447 2.42505 43.4925 1.00418L43.3919 0.601339C43.2863 0.175674 42.8571 -0.0823054 42.4348 0.0238629C42.1526 0.0953033 41.9316 0.31657 41.8606 0.601339L41.7599 1.00418C41.4067 2.42704 40.3016 3.53635 38.8867 3.88958L38.4862 3.99079C38.0629 4.09696 37.8063 4.52857 37.9119 4.95325C37.983 5.23702 38.203 5.45928 38.4862 5.53072V5.53271ZM42.6242 2.97475C43.0722 3.70106 43.681 4.31326 44.4022 4.76274C43.68 5.21321 43.0712 5.82542 42.6242 6.55073C42.1763 5.82442 41.5675 5.21222 40.8463 4.76274C41.5675 4.31227 42.1763 3.70006 42.6242 2.97475Z" fill="url(#paint3_linear)"/>
<path d="M0.598448 5.53271L0.999034 5.63392C2.41293 5.98913 3.51602 7.09944 3.86727 8.5213L3.96791 8.92414C4.07349 9.34981 4.50269 9.60779 4.92498 9.50162C5.20717 9.43018 5.42818 9.20891 5.49922 8.92414L5.59986 8.5213C5.95309 7.09844 7.05816 5.98913 8.47304 5.6359L8.87362 5.53469C9.2969 5.42853 9.55344 4.99691 9.44786 4.57223C9.37682 4.28846 9.1568 4.0662 8.87362 3.99476L8.47304 3.88958C7.06013 3.53536 5.95704 2.42505 5.60479 1.00418L5.50218 0.601339C5.39661 0.175674 4.96741 -0.0823054 4.54511 0.0238629C4.26293 0.0953033 4.04191 0.31657 3.97088 0.601339L3.86826 1.00418C3.51602 2.42505 2.41293 3.53536 1.00002 3.88958L0.599434 3.99079C0.176154 4.09696 -0.0803793 4.52858 0.025194 4.95325C0.096234 5.23703 0.316261 5.45929 0.599434 5.53073L0.598448 5.53271ZM4.73653 2.97475C5.18447 3.70007 5.79325 4.31227 6.5145 4.76274C5.79325 5.21321 5.18447 5.82542 4.73653 6.55173C4.28858 5.82542 3.67981 5.21321 2.95855 4.76274C3.67981 4.31227 4.28858 3.70007 4.73653 2.97475Z" fill="url(#paint4_linear)"/>
<path d="M46.7623 28.6002L46.3617 28.499C44.9478 28.1438 43.8447 27.0335 43.4935 25.6116L43.3928 25.2088C43.2873 24.7831 42.8581 24.5251 42.4358 24.6313C42.1536 24.7027 41.9326 24.924 41.8615 25.2088L41.7609 25.6116C41.4077 27.0345 40.3026 28.1438 38.8877 28.497L38.4871 28.5982C38.0638 28.7044 37.8073 29.136 37.9129 29.5607C37.9839 29.8444 38.204 30.0667 38.4871 30.1381L38.8877 30.2394C40.3026 30.5946 41.4057 31.7069 41.756 33.1297L41.8566 33.5326C41.9622 33.9582 42.3914 34.2162 42.8137 34.11C43.0958 34.0386 43.3169 33.8173 43.3879 33.5326L43.4885 33.1297C43.8418 31.7069 44.9468 30.5975 46.3617 30.2443L46.7623 30.1431C47.1856 30.0369 47.4421 29.6053 47.3365 29.1806C47.2655 28.8969 47.0455 28.6746 46.7623 28.6032V28.6002ZM42.6242 31.1591C42.1763 30.4328 41.5675 29.8206 40.8462 29.3712C41.5685 28.9207 42.1773 28.3085 42.6242 27.5832C43.0722 28.3095 43.6809 28.9217 44.4022 29.3712C43.6809 29.8206 43.0722 30.4328 42.6242 31.1591Z" fill="url(#paint5_linear)"/>
<path d="M4.73604 34.1329C5.09815 34.1329 5.41388 33.8848 5.50169 33.5316L5.60233 33.1287C5.95457 31.7069 7.05865 30.5966 8.47353 30.2433L8.87412 30.1421C9.2974 30.036 9.55393 29.6043 9.44836 29.1797C9.37732 28.8959 9.15729 28.6736 8.87412 28.6022L8.47353 28.501C7.05865 28.1458 5.95556 27.0335 5.60529 25.6106L5.50465 25.2078C5.39908 24.7821 4.96988 24.5241 4.54759 24.6303C4.2654 24.7017 4.04438 24.923 3.97335 25.2078L3.87271 25.6106C3.51948 27.0335 2.41441 28.1428 0.999532 28.496L0.598946 28.5972C0.175666 28.7034 -0.0808676 29.135 0.0247057 29.5597C0.0957457 29.8435 0.315772 30.0657 0.598946 30.1372L0.999532 30.2384C2.41441 30.5936 3.51751 31.7059 3.86777 33.1287L3.96841 33.5316C4.05623 33.8858 4.37294 34.1339 4.73604 34.1329ZM2.95807 29.3702C3.68031 28.9197 4.28908 28.3075 4.73604 27.5822C5.18398 28.3085 5.79276 28.9207 6.51401 29.3702C5.79177 29.8207 5.183 30.4329 4.73604 31.1582C4.28809 30.4329 3.67932 29.8207 2.95807 29.3702Z" fill="url(#paint6_linear)"/>
<path d="M44.2026 15.082H45.7813V16.6696H44.2026V15.082Z" fill="url(#paint7_linear)"/>
<path d="M45.7812 16.6699H47.3599V18.2575H45.7812V16.6699Z" fill="url(#paint8_linear)"/>
<path d="M42.624 16.6699H44.2027V18.2575H42.624V16.6699Z" fill="url(#paint9_linear)"/>
<path d="M44.2026 18.2568H45.7813V19.8444H44.2026V18.2568Z" fill="url(#paint10_linear)"/>
<path d="M1.57861 15.082H3.15728V16.6696H1.57861V15.082Z" fill="url(#paint11_linear)"/>
<path d="M0 16.6699H1.57867V18.2575H0V16.6699Z" fill="url(#paint12_linear)"/>
<path d="M3.15723 16.6699H4.73589V18.2575H3.15723V16.6699Z" fill="url(#paint13_linear)"/>
<path d="M1.57861 18.2568H3.15728V19.8444H1.57861V18.2568Z" fill="url(#paint14_linear)"/>
<path d="M23.68 10.6484L25.754 14.8733L30.3904 15.551L27.0347 18.8403L27.827 23.4839L23.68 21.2911L19.5331 23.4839L20.3254 18.8403L16.9697 15.551L21.6061 14.8733L23.68 10.6484Z" fill="#F2994A"/>
</g>
<defs>
<linearGradient id="paint0_linear" x1="13.4185" y1="27.7829" x2="33.9411" y2="27.7829" gradientUnits="userSpaceOnUse">
<stop stop-color="#68BD5E"/>
<stop offset="1" stop-color="#00AEA0"/>
</linearGradient>
<linearGradient id="paint1_linear" x1="4.11719" y1="48" x2="43.1496" y2="48" gradientUnits="userSpaceOnUse">
<stop stop-color="#68BD5E"/>
<stop offset="1" stop-color="#00AEA0"/>
</linearGradient>
<linearGradient id="paint2_linear" x1="4.11719" y1="48" x2="43.1496" y2="48" gradientUnits="userSpaceOnUse">
<stop stop-color="#68BD5E"/>
<stop offset="1" stop-color="#00AEA0"/>
</linearGradient>
<linearGradient id="paint3_linear" x1="37.8882" y1="9.52548" x2="47.3593" y2="9.52548" gradientUnits="userSpaceOnUse">
<stop stop-color="#68BD5E"/>
<stop offset="1" stop-color="#00AEA0"/>
</linearGradient>
<linearGradient id="paint4_linear" x1="0.00146484" y1="9.52548" x2="9.47159" y2="9.52548" gradientUnits="userSpaceOnUse">
<stop stop-color="#68BD5E"/>
<stop offset="1" stop-color="#00AEA0"/>
</linearGradient>
<linearGradient id="paint5_linear" x1="37.8892" y1="34.1339" x2="47.3603" y2="34.1339" gradientUnits="userSpaceOnUse">
<stop stop-color="#68BD5E"/>
<stop offset="1" stop-color="#00AEA0"/>
</linearGradient>
<linearGradient id="paint6_linear" x1="0.000976562" y1="34.1329" x2="9.47209" y2="34.1329" gradientUnits="userSpaceOnUse">
<stop stop-color="#68BD5E"/>
<stop offset="1" stop-color="#00AEA0"/>
</linearGradient>
<linearGradient id="paint7_linear" x1="44.2026" y1="16.6696" x2="45.7813" y2="16.6696" gradientUnits="userSpaceOnUse">
<stop stop-color="#68BD5E"/>
<stop offset="1" stop-color="#00AEA0"/>
</linearGradient>
<linearGradient id="paint8_linear" x1="45.7812" y1="18.2575" x2="47.3599" y2="18.2575" gradientUnits="userSpaceOnUse">
<stop stop-color="#68BD5E"/>
<stop offset="1" stop-color="#00AEA0"/>
</linearGradient>
<linearGradient id="paint9_linear" x1="42.624" y1="18.2575" x2="44.2027" y2="18.2575" gradientUnits="userSpaceOnUse">
<stop stop-color="#68BD5E"/>
<stop offset="1" stop-color="#00AEA0"/>
</linearGradient>
<linearGradient id="paint10_linear" x1="44.2026" y1="19.8444" x2="45.7813" y2="19.8444" gradientUnits="userSpaceOnUse">
<stop stop-color="#68BD5E"/>
<stop offset="1" stop-color="#00AEA0"/>
</linearGradient>
<linearGradient id="paint11_linear" x1="1.57861" y1="16.6696" x2="3.15728" y2="16.6696" gradientUnits="userSpaceOnUse">
<stop stop-color="#68BD5E"/>
<stop offset="1" stop-color="#00AEA0"/>
</linearGradient>
<linearGradient id="paint12_linear" x1="0" y1="18.2575" x2="1.57867" y2="18.2575" gradientUnits="userSpaceOnUse">
<stop stop-color="#68BD5E"/>
<stop offset="1" stop-color="#00AEA0"/>
</linearGradient>
<linearGradient id="paint13_linear" x1="3.15723" y1="18.2575" x2="4.73589" y2="18.2575" gradientUnits="userSpaceOnUse">
<stop stop-color="#68BD5E"/>
<stop offset="1" stop-color="#00AEA0"/>
</linearGradient>
<linearGradient id="paint14_linear" x1="1.57861" y1="19.8444" x2="3.15728" y2="19.8444" gradientUnits="userSpaceOnUse">
<stop stop-color="#68BD5E"/>
<stop offset="1" stop-color="#00AEA0"/>
</linearGradient>
<clipPath id="clip0">
<rect width="48" height="48" fill="white"/>
</clipPath>
</defs>
</svg>
