<svg width="24" height="24" viewBox="0 0 24 24" fill="none" xmlns="http://www.w3.org/2000/svg">
<path d="M12 23.5C18.3513 23.5 23.5 18.3513 23.5 12C23.5 5.64873 18.3513 0.5 12 0.5C5.64873 0.5 0.5 5.64873 0.5 12C0.5 18.3513 5.64873 23.5 12 23.5Z" stroke="#FFCC00" stroke-miterlimit="10" stroke-linecap="round" stroke-linejoin="round"/>
<path d="M20.5 12C20.5 16.7 16.7 20.5 12 20.5C7.3 20.5 3.5 16.7 3.5 12" stroke="#FFCC00" stroke-miterlimit="10" stroke-linecap="round" stroke-linejoin="round"/>
<path d="M5.5 8.5C5.5 7.4 6.4 6.5 7.5 6.5C8.6 6.5 9.5 7.4 9.5 8.5" stroke="#FFCC00" stroke-miterlimit="10" stroke-linecap="round" stroke-linejoin="round"/>
<path d="M14.5 8.5C14.5 7.4 15.4 6.5 16.5 6.5C17.6 6.5 18.5 7.4 18.5 8.5" stroke="#FFCC00" stroke-miterlimit="10" stroke-linecap="round" stroke-linejoin="round"/>
</svg>
