<?xml version="1.0" encoding="utf-8"?>
<!-- Generated by IcoMoon.io -->
<!DOCTYPE svg PUBLIC "-//W3C//DTD SVG 1.1//EN" "http://www.w3.org/Graphics/SVG/1.1/DTD/svg11.dtd">
<svg version="1.1" xmlns="http://www.w3.org/2000/svg" xmlns:xlink="http://www.w3.org/1999/xlink" width="90" height="90" viewBox="0 0 90 90">
<g id="icomoon-ignore">
	<line stroke-width="1" x1="" y1="" x2="" y2="" stroke="#449FDB" opacity=""></line>
</g>
	<path d="M23.193 19.5h45c1.038 0 1.875-0.462 1.875-1.5s-0.837-1.5-1.875-1.5h-45c-1.035 0-1.875 0.462-1.875 1.5s0.84 1.5 1.875 1.5z" fill="#000000"></path>
	<path d="M26.943 10.5h37.5c1.038 0 1.875-0.462 1.875-1.5s-0.837-1.5-1.875-1.5h-37.5c-1.035 0-1.875 0.462-1.875 1.5s0.84 1.5 1.875 1.5z" fill="#000000"></path>
	<path d="M67.629 52.5l-0.9 3.183c-1.524 4.74-6.612 8.817-11.574 8.817h-18.912c-4.971 0-10.053-4.083-11.568-8.817l-0.897-3.183h-23.832v28.143c0 1.038 1.587 1.857 2.625 1.857h86.25c1.038 0 1.125-0.819 1.125-1.857v-28.143h-22.317z" fill="#000000"></path>
	<path d="M14.943 28.143c0-1.038 1.587-2.643 2.625-2.643h56.25c1.038 0 1.125 1.605 1.125 2.643v21.357h15.111l-10.764-25.488c-0.291-0.69-0.972-1.512-1.722-1.512h-63.75c-0.75 0-1.428 0.819-1.722 1.512l-10.761 25.488h13.611l-0.003-21.357z" fill="#000000"></path>
	<path d="M25.14 49.5c0.813 0 1.539 0.165 1.785 0.939l1.314 4.674c1.014 3.168 4.68 6.393 7.998 6.393h18.912c3.321 0 6.99-3.414 8.010-6.582l1.314-4.107c0.249-0.774 0.972-1.311 1.785-1.311h5.688v-21h-54v21l7.194-0.006z" fill="#000000"></path>
</svg>
