<svg width="24" height="24" viewBox="0 0 24 24" fill="none" xmlns="http://www.w3.org/2000/svg">
<path d="M23.0044 19.5734C23.0044 21.4595 21.5021 22.9938 19.6553 22.9938H4.34518C2.4984 22.9938 0.996094 21.4595 0.996094 19.5734V7.84655C0.996094 5.96048 2.4984 4.42621 4.34518 4.42621H19.6553C21.5021 4.42621 23.0044 5.96048 23.0044 7.84655V19.5734Z" stroke-miterlimit="10" stroke-linecap="round" stroke-linejoin="round"/>
<path d="M22.5262 10.2897H19.3685C17.2538 10.2897 15.541 12.0389 15.541 14.1986C15.541 16.3583 17.2538 18.1076 19.3685 18.1076H22.5262" stroke-miterlimit="10" stroke-linecap="round" stroke-linejoin="round"/>
<path d="M18.89 15.1759C19.4185 15.1759 19.8469 14.7384 19.8469 14.1987C19.8469 13.659 19.4185 13.2214 18.89 13.2214C18.3615 13.2214 17.9331 13.659 17.9331 14.1987C17.9331 14.7384 18.3615 15.1759 18.89 15.1759Z" stroke-miterlimit="10" stroke-linecap="round" stroke-linejoin="round"/>
<path d="M2.43164 7.35797H4.3454" stroke-miterlimit="10" stroke-linejoin="round"/>
<path d="M5.30225 7.35797H7.21601" stroke-miterlimit="10" stroke-linejoin="round"/>
<path d="M8.17285 7.35797H10.0866" stroke-miterlimit="10" stroke-linejoin="round"/>
<path d="M11.0435 7.35797H12.9572" stroke-miterlimit="10" stroke-linejoin="round"/>
<path d="M13.9141 7.35797H15.8278" stroke-miterlimit="10" stroke-linejoin="round"/>
<path d="M16.7847 7.35797H18.6984" stroke-miterlimit="10" stroke-linejoin="round"/>
<path d="M19.6553 7.35797H21.569" stroke-miterlimit="10" stroke-linejoin="round"/>
<path d="M2.43164 20.0621H4.3454" stroke-miterlimit="10" stroke-linejoin="round"/>
<path d="M5.30225 20.0621H7.21601" stroke-miterlimit="10" stroke-linejoin="round"/>
<path d="M8.17285 20.0621H10.0866" stroke-miterlimit="10" stroke-linejoin="round"/>
<path d="M11.0435 20.0621H12.9572" stroke-miterlimit="10" stroke-linejoin="round"/>
<path d="M13.9141 20.0621H15.8278" stroke-miterlimit="10" stroke-linejoin="round"/>
<path d="M16.7847 20.0621H18.6984" stroke-miterlimit="10" stroke-linejoin="round"/>
<path d="M19.6553 20.0621H21.569" stroke-miterlimit="10" stroke-linejoin="round"/>
<path d="M3.76172 4.42625L17.0049 1.05477C17.4834 0.92773 17.9905 1.02545 18.402 1.30885C18.8135 1.59225 19.0814 2.04178 19.1388 2.54018L19.3684 4.42625" stroke-miterlimit="10" stroke-linejoin="round"/>
</svg>
