<?xml version="1.0" encoding="utf-8"?>
<!-- Generated by IcoMoon.io -->
<!DOCTYPE svg PUBLIC "-//W3C//DTD SVG 1.1//EN" "http://www.w3.org/Graphics/SVG/1.1/DTD/svg11.dtd">
<svg version="1.1" xmlns="http://www.w3.org/2000/svg" xmlns:xlink="http://www.w3.org/1999/xlink" width="90" height="90" viewBox="0 0 90 90">
<g id="icomoon-ignore">
	<line stroke-width="1" x1="" y1="" x2="" y2="" stroke="#449FDB" opacity=""></line>
</g>
	<path d="M45 40.629c5.175 0 9.375-4.206 9.375-9.375s-4.197-9.375-9.375-9.375c-5.169 0-9.375 4.206-9.375 9.375s4.209 9.375 9.375 9.375z" fill="#000000"></path>
	<path d="M45 53.754c12.411 0 22.5-10.095 22.5-22.5 0-12.411-10.086-22.5-22.5-22.5-12.405 0-22.5 10.089-22.5 22.5 0 12.405 10.098 22.5 22.5 22.5zM45 18.129c7.236 0 13.125 5.889 13.125 13.125s-5.889 13.125-13.125 13.125c-7.236 0-13.125-5.889-13.125-13.125s5.889-13.125 13.125-13.125z" fill="#000000"></path>
	<path d="M87.861 71.544l-18.438-30.732c-3.828 9.753-13.32 16.692-24.426 16.692-11.097 0-20.589-6.939-24.423-16.692l-18.435 30.732c-0.408 0.672-0.348 1.524 0.141 2.133 0.492 0.615 1.317 0.855 2.061 0.609l19.527-6.516 12.933 12.933c0.354 0.36 0.834 0.546 1.323 0.546 0.165 0 0.333-0.018 0.504-0.063 0.651-0.186 1.152-0.699 1.317-1.353l5.055-20.226 5.058 20.223c0.165 0.654 0.669 1.176 1.317 1.353 0.168 0.045 0.333 0.063 0.498 0.063 0.492 0 0.972-0.186 1.323-0.546l12.933-12.933 19.53 6.516c0.747 0.246 1.563 0.006 2.058-0.609 0.489-0.609 0.549-1.464 0.144-2.13z" fill="#000000"></path>
</svg>
