<svg version="1.0" xmlns="http://www.w3.org/2000/svg"
 width="23" height="24" fill="#000000" viewBox="0 0 512 512"
 preserveAspectRatio="xMidYMid meet">

<g transform="translate(0.000000,512.000000) scale(0.100000,-0.100000)"
fill="#000000">
<path stroke="#000000" stroke-miterlimit="10" stroke-linecap="round" stroke-linejoin="round" d="M1588 4928 c-9 -7 -269 -350 -579 -763 -518 -689 -564 -753 -564
-789 0 -71 81 -111 136 -67 13 10 236 300 494 644 l470 625 5 -2179 5 -2178
23 -23 c31 -31 93 -31 124 0 l23 23 3 2181 2 2181 475 -632 c261 -348 482
-639 492 -647 22 -16 67 -18 95 -3 29 16 50 72 38 103 -10 28 -1115 1504
-1139 1523 -21 16 -83 16 -103 1z"/>
<path stroke="#000000" stroke-miterlimit="10" stroke-linecap="round" stroke-linejoin="round" d="M3429 4921 l-24 -19 -5 -2183 -5 -2183 -479 636 c-374 498 -485 639
-508 647 -66 23 -135 -45 -111 -109 14 -38 1122 -1509 1150 -1527 16 -10 34
-13 58 -9 34 7 71 54 605 767 521 694 570 762 570 797 0 72 -88 114 -139 68
-12 -11 -231 -300 -488 -643 l-468 -623 -5 2176 -5 2176 -28 24 c-34 29 -85
32 -118 5z"/>
</g>
</svg>
