<svg width="32" height="29" viewBox="0 0 32 29" fill="none" xmlns="http://www.w3.org/2000/svg">
<path d="M13.4414 17.1582L16.5438 14.7021L19.7756 17.1582" stroke="#07AC27" stroke-width="1.3" stroke-miterlimit="10" stroke-linecap="round" stroke-linejoin="round"/>
<path d="M16.9312 15.8662V27.5004" stroke="#07AC27" stroke-width="1.3" stroke-miterlimit="10" stroke-linecap="round" stroke-linejoin="round"/>
<path d="M20.163 21.6829H25.5922C28.4361 21.6829 30.763 19.3561 30.763 16.5122C30.763 14.5732 29.7288 12.8927 28.1776 11.9878C28.1776 11.7293 28.1776 11.4707 28.1776 11.3415C28.1776 5.65366 23.5239 1 17.8361 1C13.0532 1 8.91662 4.36098 7.88247 8.7561C7.7532 8.7561 7.62393 8.7561 7.49467 8.7561C3.87515 8.7561 1.03125 11.6 1.03125 15.2195C1.03125 18.839 3.87515 21.6829 7.49467 21.6829H13.6995" stroke="#07AC27" stroke-width="1.3" stroke-miterlimit="10" stroke-linecap="round" stroke-linejoin="round"/>
</svg>
