<svg width="246" height="188" viewBox="0 0 246 188" fill="none" xmlns="http://www.w3.org/2000/svg">
<g opacity="0.4">
<path d="M243.972 47.7387C251.04 84.5636 234.418 123.853 205.744 147.988C177.071 172.124 137.952 181.986 100.572 179.032C73.8896 176.92 47.0039 168.219 27.1476 150.265C7.29125 132.312 -4.35302 104.183 1.52686 78.0732C3.75451 68.211 8.72684 58.4754 17.2579 53.052C30.8878 44.3944 48.6705 48.9817 64.066 53.8496C79.4615 58.7174 97.2222 63.3487 110.863 54.7406C121.358 48.1402 126.171 35.6104 133.536 25.6327C146.065 8.66407 167.555 -1.28058 188.6 0.13301C192.104 0.382144 195.581 0.934242 198.99 1.78312C220.441 7.06897 237.206 23.8671 243.224 45.137L243.972 47.7387Z" fill="#EDE9DD"/>
</g>
<path d="M223 185H32V188H223V185Z" fill="#B5DEDD"/>
<path d="M94.6066 177.826L150.38 178.264L150.933 107.865L95.1595 107.427L94.6066 177.826Z" fill="#F98C7D"/>
<path d="M129.098 109.927L128.104 178.09L119.295 178.018L121.186 109.867L129.098 109.927Z" fill="#FAFAFA"/>
<path d="M63.1255 109.416L95.1183 109.667L150.893 110.098L95.0585 117.447L94.5917 177.83L62.6108 177.579L63.1255 109.416Z" fill="#BC7267"/>
<path d="M80.5383 109.558L79.2696 177.721L69.7783 177.649L71.3223 109.486L80.5383 109.558Z" fill="#FAFAFA"/>
<path d="M105.863 88.8103C105.863 89.2412 104.941 89.6841 103.23 90.103C100.799 90.6568 98.3236 90.9893 95.833 91.0964C94.082 91.1826 92.3273 91.1626 90.5787 91.0365C89.6212 90.9647 88.6397 90.869 87.6104 90.7014C86.5106 90.5447 85.4229 90.3127 84.3549 90.0072C83.655 89.7948 82.9806 89.5058 82.3441 89.1454C81.493 88.657 80.7676 87.9767 80.2256 87.1586C79.6481 86.2351 79.3336 85.1716 79.316 84.0826C79.3075 83.277 79.3959 82.4733 79.5793 81.6888C80.0777 79.2748 80.7948 76.9112 81.7217 74.6272C82.2686 73.3605 82.9508 72.1566 83.7564 71.0365C84.1815 70.4663 84.6412 69.9227 85.1328 69.4088C85.6971 68.8381 86.3234 68.3322 87 67.9007C87.773 67.4134 88.6291 67.0726 89.5254 66.8953C90.4807 66.7088 91.4652 66.7333 92.41 66.9671C93.8261 67.3702 95.1318 68.0906 96.228 69.0736C99.2168 71.5838 101.702 74.6379 103.553 78.0742C104.8 80.3514 105.635 82.8313 106.019 85.3992C106.234 87.2184 106.019 88.2597 105.612 88.3555C104.714 88.5709 103.397 84.9803 99.8546 80.456C97.7862 77.8519 95.3698 75.5443 92.6733 73.5979C92.2017 73.2048 91.6504 72.919 91.0575 72.76C90.9546 72.7411 90.8491 72.7411 90.7463 72.76C90.5754 72.8256 90.4144 72.9142 90.2675 73.0233C90.0108 73.2053 89.7741 73.4139 89.5613 73.6458C89.2806 73.9627 89.017 74.2943 88.7714 74.6392C88.2469 75.3931 87.7941 76.1946 87.4189 77.0329C86.6505 78.9838 86.0108 80.9829 85.5039 83.0174C85.4282 83.3045 85.3722 83.5964 85.3363 83.8911V83.9629H85.1688C84.9772 83.9629 84.9174 84.0587 85.0491 83.9629L85.2166 83.9509L85.3722 84.1065C85.6237 84.2713 85.8927 84.4078 86.1741 84.5135C86.9856 84.81 87.8127 85.0617 88.6517 85.2675C89.5135 85.4949 90.3752 85.6864 91.2131 85.854C92.8887 86.1891 94.4806 86.4285 96.0006 86.632C98.9569 87.0269 101.434 87.2903 103.182 87.6254C104.929 87.9605 105.851 88.3794 105.863 88.8103Z" fill="#C9756E"/>
<path d="M104.702 89.3287C104.559 88.443 108.724 87.1384 115.235 85.2234C118.975 84.1492 122.641 82.8339 126.211 81.2856C127.061 80.9489 127.865 80.5066 128.604 79.9691C128.856 79.7537 128.975 79.5741 128.939 79.5861C128.904 79.598 128.868 79.8374 128.868 79.7177C128.76 79.3795 128.624 79.0512 128.461 78.7363L127.659 77.0726C127.162 76.028 126.598 75.0165 125.971 74.0445C125.409 73.1686 124.742 72.3647 123.984 71.6507C123.629 71.3277 123.253 71.0278 122.859 70.753C122.544 70.5291 122.202 70.3442 121.842 70.2025C121.324 69.9679 120.743 69.9131 120.19 70.0469C119.46 70.3061 118.792 70.7137 118.227 71.2438C115.335 73.6593 112.771 76.4439 110.603 79.5262C106.869 84.8404 105.875 88.9936 104.954 88.862C104.547 88.8021 104.236 87.6651 104.379 85.6184C104.667 82.7273 105.478 79.9126 106.773 77.312C108.688 73.4241 111.278 69.9067 114.421 66.923C115.549 65.8223 116.894 64.9702 118.371 64.4215C120.172 63.8321 122.118 63.8616 123.901 64.5053C124.717 64.7897 125.497 65.1715 126.223 65.6423C126.883 66.0796 127.515 66.5594 128.114 67.0786C129.282 68.1352 130.304 69.3427 131.154 70.6692C131.938 71.8742 132.634 73.1342 133.236 74.4394C133.512 75.0379 133.787 75.6363 134.05 76.2348C134.441 77.0426 134.719 77.9005 134.876 78.7841C135.083 80.0557 134.864 81.3599 134.254 82.4945C133.739 83.3957 133.032 84.1722 132.183 84.7686C131.008 85.5758 129.728 86.2163 128.377 86.6716C124.424 88.0932 120.325 89.0727 116.157 89.5921C109.155 90.394 104.846 90.1426 104.702 89.3287Z" fill="#C9756E"/>
<path d="M52.9998 109.329L134.972 109.973L135.155 86.6699L53.1828 86.0261L52.9998 109.329Z" fill="#BC7267"/>
<path d="M83.128 109.547L157.225 110.129L157.408 86.8262L83.311 86.2442L83.128 109.547Z" fill="#F98C7D"/>
<path d="M134.663 86.687L134.137 110.098L125.495 109.919L126.106 86.6152L134.663 86.687Z" fill="#FAFAFA"/>
<path d="M73.2591 86.3204L72.4213 109.516L62.918 109.444L63.4326 86.1289L73.2591 86.3204Z" fill="#FAFAFA"/>
<path d="M164.6 177.63L190.105 177.83L190.358 145.635L164.853 145.434L164.6 177.63Z" fill="#F98C7D"/>
<path d="M180.357 146.584L179.902 177.763L175.88 177.728L176.742 146.561L180.357 146.584Z" fill="#FAFAFA"/>
<path d="M150.186 146.354L164.824 146.461L190.318 146.665L164.788 150.028L164.573 177.64L149.947 177.52L150.186 146.354Z" fill="#BC7267"/>
<path d="M158.155 146.407L157.569 177.574L153.224 177.538L153.942 146.371L158.155 146.407Z" fill="#FAFAFA"/>
<path d="M169.732 136.926C169.732 137.333 168.057 137.872 165.148 138.063C163.371 138.187 161.586 138.029 159.858 137.597C159.07 137.387 158.38 136.909 157.907 136.244C157.632 135.801 157.479 135.293 157.464 134.772C157.46 134.398 157.5 134.024 157.584 133.659C157.816 132.546 158.148 131.456 158.577 130.403C158.832 129.816 159.149 129.258 159.523 128.74C159.928 128.154 160.445 127.654 161.043 127.268C161.421 127.027 161.843 126.863 162.285 126.787C162.727 126.711 163.179 126.724 163.616 126.825C164.279 127.014 164.89 127.354 165.4 127.818C166.778 128.977 167.92 130.391 168.763 131.983C170.151 134.712 169.96 136.675 169.625 136.771C169.289 136.867 168.547 135.239 166.908 133.18C165.96 132.011 164.861 130.972 163.64 130.092C163.436 129.926 163.199 129.804 162.946 129.733C162.862 129.733 162.874 129.733 162.683 129.853C162.43 130.052 162.212 130.29 162.036 130.559C161.797 130.905 161.593 131.274 161.426 131.66C161.078 132.541 160.79 133.445 160.564 134.365C160.504 134.569 160.492 134.7 160.48 134.736C160.468 134.772 160.48 134.736 160.48 134.736H160.289C160.193 134.736 160.169 134.736 160.289 134.736L160.385 134.664C160.444 134.664 160.492 134.557 160.48 134.581C160.468 134.604 160.48 134.581 160.48 134.581C160.585 134.653 160.697 134.714 160.816 134.76C162.262 135.226 163.748 135.554 165.256 135.741C167.937 136.22 169.732 136.484 169.732 136.926Z" fill="#C9756E"/>
<path d="M169.202 137.16C169.13 136.718 171.033 136.083 173.99 135.186C175.691 134.689 177.358 134.081 178.981 133.366C179.355 133.216 179.709 133.019 180.034 132.78C180.142 132.684 180.178 132.612 180.154 132.648C180.13 132.684 180.154 132.816 180.154 132.78C180.154 132.744 179.842 132.086 179.615 131.583C179.388 131.08 179.112 130.625 178.849 130.207C178.595 129.823 178.298 129.47 177.963 129.153C177.692 128.885 177.376 128.667 177.03 128.507C176.82 128.41 176.585 128.385 176.36 128.435C176.039 128.538 175.745 128.709 175.498 128.938C174.181 130.027 173.01 131.282 172.015 132.672C170.291 135.066 169.801 136.957 169.346 136.897C168.891 136.837 168.652 134.683 170.1 131.571C170.977 129.781 172.164 128.16 173.607 126.783C174.129 126.258 174.757 125.85 175.45 125.587C176.296 125.299 177.213 125.299 178.059 125.587C178.441 125.725 178.807 125.905 179.148 126.125C179.461 126.324 179.757 126.548 180.034 126.795C180.574 127.279 181.048 127.83 181.446 128.435C181.804 128.996 182.124 129.58 182.404 130.183L182.775 131.008C182.96 131.388 183.093 131.79 183.17 132.205C183.267 132.814 183.158 133.438 182.859 133.977C182.618 134.409 182.282 134.782 181.877 135.066C181.329 135.439 180.733 135.737 180.106 135.952C178.291 136.6 176.407 137.038 174.492 137.256C171.249 137.711 169.274 137.567 169.202 137.16Z" fill="#C9756E"/>
<path d="M145.561 146.288L183.046 146.582L183.13 135.93L145.645 135.636L145.561 146.288Z" fill="#BC7267"/>
<path d="M159.366 146.402L193.249 146.668L193.332 136.016L159.449 135.75L159.366 146.402Z" fill="#F98C7D"/>
<path d="M182.909 135.95L182.669 146.65L178.708 146.566L178.983 135.914L182.909 135.95Z" fill="#FAFAFA"/>
<path d="M154.818 135.789L154.447 146.393L150.102 146.357L150.329 135.705L154.818 135.789Z" fill="#FAFAFA"/>
<path d="M158.054 52.0223C158.054 53.6649 156.738 55.0447 155.027 55.0447C153.382 55.0447 152 53.7306 152 52.0223C152 50.3141 153.316 49 155.027 49C156.738 49 158.054 50.3798 158.054 52.0223Z" fill="#CC003E"/>
<path d="M241.054 83.0223C241.054 84.6649 239.738 86.0447 238.027 86.0447C236.382 86.0447 235 84.7306 235 83.0223C235 81.3141 236.316 80 238.027 80C239.738 80 241.054 81.3798 241.054 83.0223Z" fill="#00AFAA"/>
<path d="M31 53C31 55.1739 29.2609 57 27 57C24.8261 57 23 55.2609 23 53C23 50.7391 24.7391 49 27 49C29.2609 49 31 50.8261 31 53Z" fill="#00AFAA"/>
<path d="M130 7.5C130 8.8587 128.913 10 127.5 10C126.141 10 125 8.91304 125 7.5C125 6.08696 126.087 5 127.5 5C128.913 5 130 6.1413 130 7.5Z" fill="#00AFAA"/>
<path d="M207.659 10.3219C207.659 13.2786 205.291 15.6439 202.33 15.6439C199.369 15.6439 197 13.2786 197 10.3219C197 7.36531 199.369 5 202.33 5C205.291 5 207.659 7.36531 207.659 10.3219Z" fill="#CC003E"/>
<path d="M41.6595 131.322C41.6595 134.279 39.2907 136.644 36.3297 136.644C33.3688 136.644 31 134.279 31 131.322C31 128.365 33.3688 126 36.3297 126C39.2907 126 41.6595 128.365 41.6595 131.322Z" fill="#CC003E"/>
<path d="M38.5004 96.9934C39.8813 96.9934 41.0007 95.8756 41.0007 94.4967C41.0007 93.1178 39.8813 92 38.5004 92C37.1195 92 36 93.1178 36 94.4967C36 95.8756 37.1195 96.9934 38.5004 96.9934Z" fill="#FF8300"/>
<path d="M73.6369 16.8377L76.4662 24.8535C76.5978 25.182 76.861 25.4448 77.1242 25.5762L84.2963 28.7957C85.2833 29.2556 85.2833 30.8325 84.2963 31.2924L77.1242 34.5118C76.7952 34.6432 76.5978 34.906 76.4662 35.2346L73.6369 43.2503C73.2421 44.3673 71.7945 44.3673 71.3997 43.2503L68.5703 35.2346C68.4387 34.906 68.1755 34.6432 67.9123 34.5118L60.7402 31.2924C59.7533 30.8325 59.7533 29.2556 60.7402 28.7957L67.9123 25.5762C68.2413 25.4448 68.4387 25.182 68.5703 24.8535L71.3997 16.8377C71.7945 15.7208 73.2421 15.7208 73.6369 16.8377Z" fill="#FF8300"/>
<path opacity="0.6" d="M226.804 137.596L228.838 143.304C228.933 143.538 229.122 143.725 229.311 143.819L234.468 146.111C235.177 146.439 235.177 147.561 234.468 147.889L229.311 150.181C229.075 150.275 228.933 150.462 228.838 150.696L226.804 156.404C226.52 157.199 225.48 157.199 225.196 156.404L223.162 150.696C223.067 150.462 222.878 150.275 222.689 150.181L217.532 147.889C216.823 147.561 216.823 146.439 217.532 146.111L222.689 143.819C222.925 143.725 223.067 143.538 223.162 143.304L225.196 137.596C225.48 136.801 226.52 136.801 226.804 137.596Z" fill="#D0CBC5"/>
<path opacity="0.6" d="M18.8042 157.596L20.8384 163.304C20.933 163.538 21.1222 163.725 21.3114 163.819L26.4678 166.111C27.1774 166.439 27.1774 167.561 26.4678 167.889L21.3114 170.181C21.0749 170.275 20.933 170.462 20.8384 170.696L18.8042 176.404C18.5204 177.199 17.4796 177.199 17.1958 176.404L15.1616 170.696C15.067 170.462 14.8778 170.275 14.6886 170.181L9.53219 167.889C8.8226 167.561 8.8226 166.439 9.53219 166.111L14.6886 163.819C14.9251 163.725 15.067 163.538 15.1616 163.304L17.1958 157.596C17.4796 156.801 18.5204 156.801 18.8042 157.596Z" fill="#D0CBC5"/>
<path d="M183.357 86.6538L185.509 92.8936C185.597 93.1689 185.773 93.3525 186.036 93.4901L191.44 96.0136C192.187 96.3806 192.187 97.6194 191.44 97.9864L186.036 100.51C185.817 100.602 185.641 100.831 185.509 101.106L183.357 107.346C183.049 108.218 181.951 108.218 181.643 107.346L179.491 101.106C179.403 100.831 179.227 100.648 178.964 100.51L173.56 97.9864C172.813 97.6194 172.813 96.3806 173.56 96.0136L178.964 93.4901C179.183 93.3983 179.359 93.1689 179.491 92.8936L181.643 86.6538C181.995 85.7821 183.093 85.7821 183.357 86.6538Z" fill="#FF8300"/>
</svg>
