<svg width="24" height="24" viewBox="0 0 24 24" fill="none" xmlns="http://www.w3.org/2000/svg">
<path d="M20.1999 11C20.1999 6.3 16.3999 2.5 11.6999 2.5C6.9999 2.5 3.1999 6.3 3.1999 11C3.1999 14.9 2.6999 16 1.4999 16.4C0.799902 16.6 0.399902 17.3 0.399902 18C0.399902 19.2 0.399902 20.5 0.399902 20.5H11.5999H23.3999C23.3999 20.5 23.3999 19.2 23.3999 18C23.3999 17.3 22.7999 16.6 22.0999 16.4C20.9999 16 20.1999 14.9 20.1999 11Z" stroke="white" stroke-miterlimit="10" stroke-linecap="round" stroke-linejoin="round"/>
<path d="M14.6997 20.5C14.6997 22.2 13.3997 23.5 11.6997 23.5C9.99971 23.5 8.69971 22.2 8.69971 20.5" stroke="white" stroke-miterlimit="10" stroke-linecap="round" stroke-linejoin="round"/>
<path d="M9.69971 2.7C9.69971 2.6 9.69971 2.5 9.69971 2.5C9.69971 1.4 10.5997 0.5 11.6997 0.5C12.7997 0.5 13.6997 1.4 13.6997 2.5C13.6997 2.6 13.6997 2.7 13.6997 2.7" stroke="white" stroke-miterlimit="10" stroke-linecap="round" stroke-linejoin="round"/>
</svg>
